STARTFONT 2.1
FONT -FontForge-Roboto Condensed-Book-R-Condensed---36-360-72-72-P-177-ISO10646-1
SIZE 36 72 72
FONTBOUNDINGBOX 63 47 -27 -9
COMMENT "Generated by fontforge, http://fontforge.sourceforge.net"
COMMENT "Copyright 2011 Google Inc. All Rights Reserved."
STARTPROPERTIES 41
FOUNDRY "FontForge"
FAMILY_NAME "Roboto Condensed"
WEIGHT_NAME "Book"
SLANT "R"
SETWIDTH_NAME "Condensed"
ADD_STYLE_NAME ""
PIXEL_SIZE 36
POINT_SIZE 360
RESOLUTION_X 72
RESOLUTION_Y 72
SPACING "P"
AVERAGE_WIDTH 177
CHARSET_REGISTRY "ISO10646"
CHARSET_ENCODING "1"
FONTNAME_REGISTRY ""
CHARSET_COLLECTIONS "ISO8859-2 ISO8859-5 ISO8859-7 ISO8859-9 ISO8859-4 ISO10646-1"
FONT_NAME "RobotoCondensed-Regular"
FACE_NAME "Roboto Condensed"
COPYRIGHT "Copyright 2011 Google Inc. All Rights Reserved."
FONT_VERSION "2.137; 2017"
FONT_ASCENT 27
FONT_DESCENT 9
UNDERLINE_POSITION -4
UNDERLINE_THICKNESS 2
X_HEIGHT 18
CAP_HEIGHT 25
DEFAULT_CHAR 1
RAW_ASCENT 750
RAW_DESCENT 250
NORM_SPACE 8
RELATIVE_WEIGHT 40
RELATIVE_SETWIDTH 50
SUPERSCRIPT_X 0
SUPERSCRIPT_Y 17
SUPERSCRIPT_SIZE 23
SUBSCRIPT_X 0
SUBSCRIPT_Y 5
SUBSCRIPT_SIZE 23
FIGURE_WIDTH 18
AVG_LOWERCASE_WIDTH 172
AVG_UPPERCASE_WIDTH 207
ENDPROPERTIES
CHARS 1296
STARTCHAR uni0000
ENCODING 0
SWIDTH 0 0
DWIDTH 0 0
BBX 1 1 0 0
BITMAP
00
ENDCHAR
STARTCHAR uni0002
ENCODING 2
SWIDTH 0 0
DWIDTH 0 0
BBX 1 1 0 0
BITMAP
00
ENDCHAR
STARTCHAR uni000D
ENCODING 13
SWIDTH 229 0
DWIDTH 8 0
BBX 1 1 0 0
BITMAP
00
ENDCHAR
STARTCHAR space
ENCODING 32
SWIDTH 229 0
DWIDTH 8 0
BBX 1 1 0 0
BITMAP
00
ENDCHAR
STARTCHAR exclam
ENCODING 33
SWIDTH 245 0
DWIDTH 9 0
BBX 3 26 3 0
BITMAP
E0
E0
E0
E0
E0
E0
E0
E0
E0
E0
E0
E0
E0
E0
E0
E0
E0
E0
00
00
00
00
E0
E0
E0
E0
ENDCHAR
STARTCHAR quotedbl
ENCODING 34
SWIDTH 319 0
DWIDTH 12 0
BBX 8 9 2 18
BITMAP
E7
E7
E7
E7
E6
E6
E6
C6
C6
ENDCHAR
STARTCHAR numbersign
ENCODING 35
SWIDTH 547 0
DWIDTH 20 0
BBX 17 26 2 0
BITMAP
018600
018E00
038E00
038E00
030C00
030C00
030C00
7FFF80
7FFF80
061800
061800
061800
061800
0E3800
0E3800
0E3800
FFFF00
FFFF00
0C3000
1C7000
1C7000
1C7000
186000
186000
186000
186000
ENDCHAR
STARTCHAR dollar
ENCODING 36
SWIDTH 493 0
DWIDTH 18 0
BBX 14 33 2 -3
BITMAP
0380
0380
0380
0380
0FC0
1FF0
3FF0
3878
7838
7038
701C
701C
7000
7800
3C00
3F00
1FC0
07F0
01F8
0078
003C
001C
E01C
E01C
E01C
F03C
7878
7FF8
3FF0
0FC0
0300
0300
0300
ENDCHAR
STARTCHAR percent
ENCODING 37
SWIDTH 632 0
DWIDTH 23 0
BBX 19 26 2 0
BITMAP
3C0000
7F0000
E30000
C38200
C38700
C18E00
C18C00
C39C00
E39800
E33800
7F3000
3C7000
006000
00E000
00C780
01DFC0
0198E0
033860
033860
063060
063060
0C3860
1C3860
0818E0
001FC0
000780
ENDCHAR
STARTCHAR ampersand
ENCODING 38
SWIDTH 543 0
DWIDTH 20 0
BBX 17 26 2 0
BITMAP
07C000
1FE000
1FF000
3C7000
387000
383800
383000
387000
3CF000
1DE000
1FC000
0F8000
0F0000
1F8000
3BC700
71C700
F1E700
E0F700
E07700
E07E00
E03E00
F01E00
787E00
7FFF00
3FF780
0FC780
ENDCHAR
STARTCHAR quotesingle
ENCODING 39
SWIDTH 174 0
DWIDTH 6 0
BBX 2 8 2 19
BITMAP
C0
C0
C0
C0
C0
C0
C0
C0
ENDCHAR
STARTCHAR parenleft
ENCODING 40
SWIDTH 313 0
DWIDTH 11 0
BBX 8 37 2 -8
BITMAP
01
03
07
0E
0C
1C
18
38
38
70
70
70
70
F0
F0
E0
E0
E0
E0
E0
E0
E0
E0
F0
70
70
70
70
38
38
18
1C
0C
0E
07
03
01
ENDCHAR
STARTCHAR parenright
ENCODING 41
SWIDTH 318 0
DWIDTH 11 0
BBX 8 37 1 -8
BITMAP
80
C0
E0
70
70
38
38
1C
1C
1C
0E
0E
0E
0E
0F
07
07
07
07
07
07
07
0F
0E
0E
0E
0E
0C
1C
1C
18
38
30
70
E0
C0
80
ENDCHAR
STARTCHAR asterisk
ENCODING 42
SWIDTH 430 0
DWIDTH 16 0
BBX 15 15 0 11
BITMAP
0380
0380
0180
0180
4184
799E
7FFE
BFF8
03C0
07C0
0EE0
0E70
1C78
3838
0820
ENDCHAR
STARTCHAR plus
ENCODING 43
SWIDTH 496 0
DWIDTH 18 0
BBX 14 18 2 3
BITMAP
0700
0700
0700
0700
0700
0700
0700
FFFC
FFFC
FFFC
0700
0700
0700
0700
0700
0700
0700
0700
ENDCHAR
STARTCHAR comma
ENCODING 44
SWIDTH 196 0
DWIDTH 7 0
BBX 4 9 1 -5
BITMAP
70
70
70
70
70
70
E0
E0
40
ENDCHAR
STARTCHAR hyphen
ENCODING 45
SWIDTH 248 0
DWIDTH 9 0
BBX 7 3 1 9
BITMAP
FE
FE
FE
ENDCHAR
STARTCHAR period
ENCODING 46
SWIDTH 263 0
DWIDTH 9 0
BBX 4 4 3 0
BITMAP
E0
F0
F0
E0
ENDCHAR
STARTCHAR slash
ENCODING 47
SWIDTH 370 0
DWIDTH 13 0
BBX 11 28 1 -2
BITMAP
00E0
00E0
00C0
01C0
01C0
0180
0380
0380
0300
0700
0700
0600
0600
0E00
0E00
0C00
1C00
1C00
1800
3800
3800
3000
7000
7000
6000
E000
E000
C000
ENDCHAR
STARTCHAR zero
ENCODING 48
SWIDTH 493 0
DWIDTH 18 0
BBX 14 26 2 0
BITMAP
0FC0
1FE0
3FF0
7870
7038
7038
E038
E03C
E01C
E01C
E01C
E01C
E01C
E01C
E01C
E01C
E01C
E01C
E03C
F038
7038
7078
7870
3FF0
1FE0
0F80
ENDCHAR
STARTCHAR one
ENCODING 49
SWIDTH 493 0
DWIDTH 18 0
BBX 8 26 3 0
BITMAP
01
07
1F
7F
FF
E7
87
07
07
07
07
07
07
07
07
07
07
07
07
07
07
07
07
07
07
07
ENDCHAR
STARTCHAR two
ENCODING 50
SWIDTH 493 0
DWIDTH 18 0
BBX 14 26 2 0
BITMAP
0FC0
3FE0
7FF0
7878
F078
E038
E038
E038
0038
0038
0038
0070
00F0
00E0
01C0
03C0
0780
0F00
0E00
1C00
3C00
7800
7000
FFFC
FFFC
FFFC
ENDCHAR
STARTCHAR three
ENCODING 51
SWIDTH 493 0
DWIDTH 18 0
BBX 14 26 2 0
BITMAP
0F80
1FE0
3FF0
7878
F038
E038
E038
0038
0038
0078
00F0
0FE0
0FC0
0FF0
00F8
0038
0038
0038
003C
E038
E038
F038
7878
7FF0
3FE0
0F80
ENDCHAR
STARTCHAR four
ENCODING 52
SWIDTH 493 0
DWIDTH 18 0
BBX 16 26 1 0
BITMAP
0078
0078
00F8
00F8
01F8
01F8
03B8
03B8
0738
0738
0E38
0C38
1C38
1838
3838
3038
7038
FFFF
FFFF
FFFF
0038
0038
0038
0038
0038
0038
ENDCHAR
STARTCHAR five
ENCODING 53
SWIDTH 493 0
DWIDTH 18 0
BBX 13 26 3 0
BITMAP
7FF8
7FF8
7FF8
7000
7000
7000
7000
7000
7000
7780
7FE0
FFF0
F0F0
2078
0038
0038
0038
0038
0038
E038
E038
E078
F0F0
7FF0
3FE0
0F80
ENDCHAR
STARTCHAR six
ENCODING 54
SWIDTH 493 0
DWIDTH 18 0
BBX 14 26 2 0
BITMAP
01E0
07E0
0FE0
1F00
3C00
3800
7800
7000
7000
73C0
7FF0
7FF8
FC78
F83C
F01C
F01C
F01C
F01C
701C
701C
701C
7838
3C78
1FF0
1FF0
07C0
ENDCHAR
STARTCHAR seven
ENCODING 55
SWIDTH 493 0
DWIDTH 18 0
BBX 15 26 1 0
BITMAP
FFFE
FFFE
FFFE
000E
001C
001C
001C
0038
0038
0070
0070
0070
00E0
00E0
01E0
01C0
01C0
0380
0380
0380
0700
0700
0F00
0E00
0E00
1E00
ENDCHAR
STARTCHAR eight
ENCODING 56
SWIDTH 493 0
DWIDTH 18 0
BBX 14 26 2 0
BITMAP
0FC0
1FE0
3FF0
7878
7038
7038
7038
7038
7038
7038
3870
3FF0
0FC0
3FF0
7878
7038
F038
E01C
E01C
E01C
F03C
7038
7878
3FF0
3FE0
0FC0
ENDCHAR
STARTCHAR nine
ENCODING 57
SWIDTH 493 0
DWIDTH 18 0
BBX 14 26 2 0
BITMAP
0F80
1FE0
3FE0
78F0
7078
F038
E038
E038
E038
E03C
E03C
E03C
F03C
7078
78F8
3FF8
3FB8
0F38
0038
0078
0070
00F0
03E0
1FC0
1F80
1E00
ENDCHAR
STARTCHAR colon
ENCODING 58
SWIDTH 233 0
DWIDTH 8 0
BBX 4 20 2 0
BITMAP
70
F0
F0
70
00
00
00
00
00
00
00
00
00
00
00
00
70
F0
F0
70
ENDCHAR
STARTCHAR semicolon
ENCODING 59
SWIDTH 202 0
DWIDTH 7 0
BBX 5 25 1 -5
BITMAP
30
78
78
30
00
00
00
00
00
00
00
00
00
00
00
00
78
78
78
78
70
70
70
E0
40
ENDCHAR
STARTCHAR less
ENCODING 60
SWIDTH 445 0
DWIDTH 16 0
BBX 12 16 1 3
BITMAP
0010
0030
00F0
03F0
0FC0
1F00
7C00
F800
F000
7C00
1F00
0FC0
03F0
00F0
0030
0010
ENDCHAR
STARTCHAR equal
ENCODING 61
SWIDTH 479 0
DWIDTH 17 0
BBX 12 10 3 7
BITMAP
FFF0
FFF0
FFF0
0000
0000
0000
0000
FFF0
FFF0
FFF0
ENDCHAR
STARTCHAR greater
ENCODING 62
SWIDTH 459 0
DWIDTH 17 0
BBX 13 16 2 3
BITMAP
8000
E000
F800
7E00
1F80
07E0
01F8
0078
0078
01F8
07E0
1F80
7E00
F800
E000
8000
ENDCHAR
STARTCHAR question
ENCODING 63
SWIDTH 421 0
DWIDTH 15 0
BBX 13 26 1 0
BITMAP
0F80
3FE0
7FF0
78F0
F070
E078
0078
0078
0070
0070
00E0
01E0
03C0
0380
0700
0700
0700
0F00
0000
0000
0000
0000
0600
0F00
0F00
0600
ENDCHAR
STARTCHAR at
ENCODING 64
SWIDTH 769 0
DWIDTH 28 0
BBX 24 33 2 -8
BITMAP
003F00
01FFC0
03C0F0
070038
0E0018
1C000C
18000E
380006
301E06
703F87
607183
60E183
60C183
E1C183
E1C383
E18383
E18383
E18383
E18383
E18387
E18386
E1C786
61C78C
60F9FC
6070F0
700000
300000
380000
1C0000
0E0000
078180
03FF80
00FE00
ENDCHAR
STARTCHAR A
ENCODING 65
SWIDTH 576 0
DWIDTH 21 0
BBX 19 26 1 0
BITMAP
00E000
00E000
01F000
01F000
01F000
03B800
03B800
03B800
071C00
071C00
071C00
0E0E00
0E0E00
0E0E00
0C0600
1C0700
1FFF00
1FFF00
3FFF80
380380
380380
7001C0
7001C0
7001C0
F001E0
E000E0
ENDCHAR
STARTCHAR B
ENCODING 66
SWIDTH 545 0
DWIDTH 20 0
BBX 15 26 3 0
BITMAP
FFC0
FFF0
FFF8
E078
E03C
E01C
E01C
E01C
E01C
E03C
E078
FFF0
FFE0
FFF8
E03C
E01C
E01C
E01E
E01E
E01E
E01C
E03C
E07C
FFF8
FFF0
FFC0
ENDCHAR
STARTCHAR C
ENCODING 67
SWIDTH 566 0
DWIDTH 20 0
BBX 17 26 2 0
BITMAP
03F000
0FFC00
1FFE00
3C1E00
780F00
700700
F00700
F00700
E00780
E00000
E00000
E00000
E00000
E00000
E00000
E00000
E00000
E00780
F00700
F00700
700700
780F00
3C1E00
1FFC00
0FF800
07E000
ENDCHAR
STARTCHAR D
ENCODING 68
SWIDTH 570 0
DWIDTH 21 0
BBX 15 26 3 0
BITMAP
FF80
FFE0
FFF8
E078
E03C
E01E
E00E
E00E
E00E
E00E
E00E
E00E
E00E
E00E
E00E
E00E
E00E
E00E
E00E
E00E
E01E
E03C
E07C
FFF8
FFE0
FF80
ENDCHAR
STARTCHAR E
ENCODING 69
SWIDTH 496 0
DWIDTH 18 0
BBX 14 26 3 0
BITMAP
FFF8
FFF8
FFF8
E000
E000
E000
E000
E000
E000
E000
E000
FFF0
FFF0
FFF0
E000
E000
E000
E000
E000
E000
E000
E000
E000
FFFC
FFFC
FFFC
ENDCHAR
STARTCHAR F
ENCODING 70
SWIDTH 480 0
DWIDTH 17 0
BBX 13 26 3 0
BITMAP
FFF8
FFF8
FFF8
E000
E000
E000
E000
E000
E000
E000
E000
E000
FFF0
FFF0
FFF0
E000
E000
E000
E000
E000
E000
E000
E000
E000
E000
E000
ENDCHAR
STARTCHAR G
ENCODING 71
SWIDTH 590 0
DWIDTH 21 0
BBX 17 26 2 0
BITMAP
07F000
1FFC00
3FFE00
3C1E00
780F00
700700
F00700
F00780
E00000
E00000
E00000
E00000
E00000
E07F80
E07F80
E07F80
E00780
E00780
F00780
700780
700780
780780
3E0F80
1FFF00
0FFE00
03F800
ENDCHAR
STARTCHAR H
ENCODING 72
SWIDTH 620 0
DWIDTH 22 0
BBX 16 26 3 0
BITMAP
E007
E007
E007
E007
E007
E007
E007
E007
E007
E007
E007
FFFF
FFFF
FFFF
E007
E007
E007
E007
E007
E007
E007
E007
E007
E007
E007
E007
ENDCHAR
STARTCHAR I
ENCODING 73
SWIDTH 250 0
DWIDTH 9 0
BBX 3 26 3 0
BITMAP
E0
E0
E0
E0
E0
E0
E0
E0
E0
E0
E0
E0
E0
E0
E0
E0
E0
E0
E0
E0
E0
E0
E0
E0
E0
E0
ENDCHAR
STARTCHAR J
ENCODING 74
SWIDTH 483 0
DWIDTH 17 0
BBX 14 26 1 0
BITMAP
001C
001C
001C
001C
001C
001C
001C
001C
001C
001C
001C
001C
001C
001C
001C
001C
001C
001C
001C
E03C
F03C
F038
7878
7FF0
3FE0
0FC0
ENDCHAR
STARTCHAR K
ENCODING 75
SWIDTH 544 0
DWIDTH 20 0
BBX 17 26 3 0
BITMAP
E00F00
E01E00
E03C00
E03C00
E07800
E0F000
E0E000
E1E000
E3C000
E78000
E70000
EF0000
FF0000
FF8000
FBC000
F9C000
F1E000
E0E000
E0F000
E07800
E03800
E03C00
E01E00
E01E00
E00F00
E00780
ENDCHAR
STARTCHAR L
ENCODING 76
SWIDTH 475 0
DWIDTH 17 0
BBX 13 26 3 0
BITMAP
E000
E000
E000
E000
E000
E000
E000
E000
E000
E000
E000
E000
E000
E000
E000
E000
E000
E000
E000
E000
E000
E000
E000
FFF8
FFF8
FFF8
ENDCHAR
STARTCHAR M
ENCODING 77
SWIDTH 755 0
DWIDTH 27 0
BBX 21 26 3 0
BITMAP
F00078
F00078
F800F8
F800F8
F800F8
FC00F8
FC01F8
FC01F8
EE01F8
EE03B8
EE03B8
E703B8
E70738
E70738
E30738
E38E38
E38E38
E18E38
E1DC38
E1DC38
E0DC38
E0F838
E0F838
E07838
E07038
E07038
ENDCHAR
STARTCHAR N
ENCODING 78
SWIDTH 619 0
DWIDTH 22 0
BBX 16 26 3 0
BITMAP
E007
F007
F007
F807
F807
FC07
FC07
EE07
EE07
E707
E707
E387
E387
E1C7
E1C7
E0E7
E0E7
E077
E077
E03F
E03F
E01F
E01F
E00F
E00F
E007
ENDCHAR
STARTCHAR O
ENCODING 79
SWIDTH 600 0
DWIDTH 22 0
BBX 18 26 2 0
BITMAP
03F000
0FFC00
1FFE00
3E1F00
380700
780780
700380
700380
700380
F003C0
F003C0
F003C0
F003C0
F003C0
F003C0
F003C0
F003C0
F00380
700380
700380
780780
380700
3E1F00
1FFE00
0FFC00
03F000
ENDCHAR
STARTCHAR P
ENCODING 80
SWIDTH 554 0
DWIDTH 20 0
BBX 16 26 3 0
BITMAP
FFE0
FFF8
FFFC
E03E
E01E
E00E
E00E
E00F
E00F
E00F
E00E
E01E
E03E
FFFC
FFF8
FFE0
E000
E000
E000
E000
E000
E000
E000
E000
E000
E000
ENDCHAR
STARTCHAR Q
ENCODING 81
SWIDTH 600 0
DWIDTH 22 0
BBX 18 30 2 -4
BITMAP
03F000
0FFC00
1FFE00
3E1F00
780700
700780
700380
F00380
F00380
E00380
E00380
E00380
E00380
E00380
E00380
E00380
E00380
F00380
F00380
700380
700780
780700
3E1F00
1FFE00
0FFC00
03FE00
000F00
000780
0003C0
000100
ENDCHAR
STARTCHAR R
ENCODING 82
SWIDTH 530 0
DWIDTH 19 0
BBX 15 26 3 0
BITMAP
FFC0
FFF0
FFF8
E07C
E03C
E01C
E01C
E01C
E01E
E01C
E01C
E03C
E078
FFF8
FFF0
FFE0
E0E0
E0F0
E070
E078
E078
E038
E03C
E01C
E01E
E00E
ENDCHAR
STARTCHAR S
ENCODING 83
SWIDTH 518 0
DWIDTH 19 0
BBX 15 26 2 0
BITMAP
07C0
1FF0
3FF8
783C
701E
F00E
F00E
F00E
F000
7800
7C00
3F00
1FE0
07F8
00FC
003C
001E
000E
E00E
E00E
E00E
F01E
783E
3FFC
1FF8
07E0
ENDCHAR
STARTCHAR T
ENCODING 84
SWIDTH 520 0
DWIDTH 19 0
BBX 17 26 1 0
BITMAP
FFFF80
FFFF80
FFFF80
01C000
01C000
01C000
01C000
01C000
01C000
01C000
01C000
01C000
01C000
01C000
01C000
01C000
01C000
01C000
01C000
01C000
01C000
01C000
01C000
01C000
01C000
01C000
ENDCHAR
STARTCHAR U
ENCODING 85
SWIDTH 561 0
DWIDTH 20 0
BBX 16 26 2 0
BITMAP
E007
E007
E007
E007
E007
E007
E007
E007
E007
E007
E007
E007
E007
E007
E007
E007
E007
E007
E007
E007
F00F
700E
7C1E
3FFC
1FF8
07E0
ENDCHAR
STARTCHAR V
ENCODING 86
SWIDTH 560 0
DWIDTH 20 0
BBX 18 26 1 0
BITMAP
E001C0
F003C0
F003C0
700380
700380
780780
380700
380700
3C0F00
1C0E00
1C0E00
1C0E00
1E1E00
0E1C00
0E1C00
0E1C00
073800
073800
073800
03F000
03F000
03F000
01E000
01E000
01E000
01E000
ENDCHAR
STARTCHAR W
ENCODING 87
SWIDTH 761 0
DWIDTH 27 0
BBX 25 26 1 0
BITMAP
F01C0380
701E0380
701E0380
701E0380
701E0780
703E0700
383F0700
383F0700
38330700
38730700
38738E00
3C738E00
1C638E00
1C618E00
1CE18E00
1CE1CC00
1CC1DC00
0EC0DC00
0FC0DC00
0FC0FC00
0FC0F800
0F80F800
07807800
07807800
07807800
07007000
ENDCHAR
STARTCHAR X
ENCODING 88
SWIDTH 550 0
DWIDTH 20 0
BBX 18 26 1 0
BITMAP
F003C0
780780
380700
3C0F00
1C0E00
1E1E00
0E1C00
0F3C00
073800
07F800
03F000
03F000
01E000
01E000
03F000
03F000
07F800
073800
0F3C00
0E1C00
1E1E00
1C0E00
3C0F00
780700
780780
F003C0
ENDCHAR
STARTCHAR Y
ENCODING 89
SWIDTH 524 0
DWIDTH 19 0
BBX 17 26 1 0
BITMAP
E00780
F00780
700700
780F00
380E00
381E00
3C1C00
1C1C00
1E3C00
0E3800
0E7800
077000
077000
03E000
03E000
03C000
01C000
01C000
01C000
01C000
01C000
01C000
01C000
01C000
01C000
01C000
ENDCHAR
STARTCHAR Z
ENCODING 90
SWIDTH 522 0
DWIDTH 19 0
BBX 15 26 2 0
BITMAP
FFFE
FFFE
FFFE
001C
003C
0038
0078
0070
00F0
01E0
01C0
03C0
0380
0780
0700
0F00
1E00
1C00
3C00
3800
7800
7000
E000
FFFE
FFFE
FFFE
ENDCHAR
STARTCHAR bracketleft
ENCODING 91
SWIDTH 250 0
DWIDTH 9 0
BBX 6 34 2 -5
BITMAP
FC
FC
FC
F0
F0
F0
F0
F0
F0
F0
F0
F0
F0
F0
F0
F0
F0
F0
F0
F0
F0
F0
F0
F0
F0
F0
F0
F0
F0
F0
F0
FC
FC
FC
ENDCHAR
STARTCHAR backslash
ENCODING 92
SWIDTH 369 0
DWIDTH 13 0
BBX 12 28 1 -2
BITMAP
E000
E000
7000
7000
7000
3800
3800
3800
1C00
1C00
1C00
0E00
0E00
0E00
0600
0700
0700
0300
0380
0380
0380
01C0
01C0
01C0
00E0
00E0
00E0
0070
ENDCHAR
STARTCHAR bracketright
ENCODING 93
SWIDTH 250 0
DWIDTH 9 0
BBX 5 34 1 -5
BITMAP
F8
F8
F8
38
38
38
38
38
38
38
38
38
38
38
38
38
38
38
38
38
38
38
38
38
38
38
38
38
38
38
38
F8
F8
F8
ENDCHAR
STARTCHAR asciicircum
ENCODING 94
SWIDTH 371 0
DWIDTH 13 0
BBX 11 13 1 13
BITMAP
0E00
0E00
0E00
1F00
1B00
1B00
3B80
3B80
3180
71C0
71C0
60C0
E0E0
ENDCHAR
STARTCHAR underscore
ENCODING 95
SWIDTH 404 0
DWIDTH 15 0
BBX 14 3 0 -3
BITMAP
FFFC
FFFC
FFFC
ENDCHAR
STARTCHAR grave
ENCODING 96
SWIDTH 309 0
DWIDTH 11 0
BBX 7 5 1 22
BITMAP
F0
78
3C
1E
0E
ENDCHAR
STARTCHAR a
ENCODING 97
SWIDTH 479 0
DWIDTH 17 0
BBX 13 19 2 0
BITMAP
0FC0
3FE0
7FF0
78F0
F078
E078
0038
0038
0FF8
3FF8
7FF8
F838
E038
E038
E078
F0F8
FFF8
7FB8
1E38
ENDCHAR
STARTCHAR b
ENCODING 98
SWIDTH 493 0
DWIDTH 18 0
BBX 14 27 2 0
BITMAP
F000
F000
F000
F000
F000
F000
F000
F000
F3E0
FFF0
FFF8
F878
F03C
F01C
F01C
F01C
F01C
F01C
F01C
F01C
F01C
F01C
F03C
F878
FFF8
EFF0
E3E0
ENDCHAR
STARTCHAR c
ENCODING 99
SWIDTH 461 0
DWIDTH 17 0
BBX 14 19 2 0
BITMAP
0FC0
3FE0
7FF0
7878
F038
E038
E01C
E000
E000
E000
E000
E000
E000
E01C
F038
7878
7FF0
3FE0
0FC0
ENDCHAR
STARTCHAR d
ENCODING 100
SWIDTH 496 0
DWIDTH 18 0
BBX 13 27 2 0
BITMAP
0038
0038
0038
0038
0038
0038
0038
0038
0F38
3FF8
7FF8
7878
F038
E038
E038
E038
E038
E038
E038
E038
E038
E038
F038
7878
7FF8
3FD8
0F18
ENDCHAR
STARTCHAR e
ENCODING 101
SWIDTH 468 0
DWIDTH 17 0
BBX 14 19 2 0
BITMAP
0FC0
3FE0
3FF0
7878
F038
E038
E038
E038
FFFC
FFFC
FFFC
E000
E000
E000
F010
7838
7FF8
3FF0
0FC0
ENDCHAR
STARTCHAR f
ENCODING 102
SWIDTH 316 0
DWIDTH 11 0
BBX 10 27 1 0
BITMAP
07C0
0FC0
1FC0
1E00
1C00
3C00
3C00
3C00
FF80
FF80
FF80
3C00
3C00
3C00
3C00
3C00
3C00
3C00
3C00
3C00
3C00
3C00
3C00
3C00
3C00
3C00
3C00
ENDCHAR
STARTCHAR g
ENCODING 103
SWIDTH 492 0
DWIDTH 18 0
BBX 14 26 2 -7
BITMAP
0F1C
3FDC
7FFC
787C
F03C
E03C
E03C
E03C
E03C
E03C
E03C
E03C
E03C
E03C
F03C
787C
7FFC
3FFC
0F3C
003C
0038
0038
3078
7FF0
3FE0
0FC0
ENDCHAR
STARTCHAR h
ENCODING 104
SWIDTH 482 0
DWIDTH 17 0
BBX 13 27 2 0
BITMAP
E000
E000
E000
E000
E000
E000
E000
E000
E7C0
EFE0
FFF0
F870
F078
E038
E038
E038
E038
E038
E038
E038
E038
E038
E038
E038
E038
E038
E038
ENDCHAR
STARTCHAR i
ENCODING 105
SWIDTH 229 0
DWIDTH 8 0
BBX 4 26 2 0
BITMAP
60
F0
F0
60
00
00
00
F0
F0
F0
F0
F0
F0
F0
F0
F0
F0
F0
F0
F0
F0
F0
F0
F0
F0
F0
ENDCHAR
STARTCHAR j
ENCODING 106
SWIDTH 223 0
DWIDTH 8 0
BBX 6 33 0 -7
BITMAP
18
3C
3C
18
00
00
00
38
38
38
38
38
38
38
38
38
38
38
38
38
38
38
38
38
38
38
38
38
38
38
F8
F8
E0
ENDCHAR
STARTCHAR k
ENCODING 107
SWIDTH 450 0
DWIDTH 16 0
BBX 14 27 2 0
BITMAP
E000
E000
E000
E000
E000
E000
E000
E000
E078
E0F0
E1E0
E1C0
E3C0
E780
E700
EE00
FE00
FF00
FF80
F380
E3C0
E1C0
E1E0
E0F0
E070
E078
E03C
ENDCHAR
STARTCHAR l
ENCODING 108
SWIDTH 229 0
DWIDTH 8 0
BBX 3 27 3 0
BITMAP
E0
E0
E0
E0
E0
E0
E0
E0
E0
E0
E0
E0
E0
E0
E0
E0
E0
E0
E0
E0
E0
E0
E0
E0
E0
E0
E0
ENDCHAR
STARTCHAR m
ENCODING 109
SWIDTH 752 0
DWIDTH 27 0
BBX 23 19 2 0
BITMAP
E7C1F0
EFF7F8
FFFFFC
F87E3C
F07C1C
E0381E
E0380E
E0380E
E0380E
E0380E
E0380E
E0380E
E0380E
E0380E
E0380E
E0380E
E0380E
E0380E
E0380E
ENDCHAR
STARTCHAR n
ENCODING 110
SWIDTH 483 0
DWIDTH 17 0
BBX 13 19 2 0
BITMAP
E7C0
EFE0
FFF0
F870
F078
E038
E038
E038
E038
E038
E038
E038
E038
E038
E038
E038
E038
E038
E038
ENDCHAR
STARTCHAR o
ENCODING 111
SWIDTH 501 0
DWIDTH 18 0
BBX 14 19 2 0
BITMAP
0FC0
1FE0
7FF0
7878
F03C
E01C
E01C
E01C
E01C
E01C
E01C
E01C
E01C
E01C
F03C
7878
7FF0
3FE0
0FC0
ENDCHAR
STARTCHAR p
ENCODING 112
SWIDTH 493 0
DWIDTH 18 0
BBX 14 26 2 -7
BITMAP
E3E0
EFF0
FFF8
F878
F03C
F01C
F01C
F01C
F01C
F01C
F01C
F01C
F01C
F01C
F03C
F878
FFF8
FFF0
F7E0
F000
F000
F000
F000
F000
F000
F000
ENDCHAR
STARTCHAR q
ENCODING 113
SWIDTH 500 0
DWIDTH 18 0
BBX 13 26 2 -7
BITMAP
1F38
3FF8
7FF8
7878
F038
E038
E038
E038
E038
E038
E038
E038
E038
E038
F038
7878
7FF8
3FF8
1FB8
0038
0038
0038
0038
0038
0038
0038
ENDCHAR
STARTCHAR r
ENCODING 114
SWIDTH 304 0
DWIDTH 11 0
BBX 8 19 2 0
BITMAP
E7
EF
FF
F8
F0
E0
E0
E0
E0
E0
E0
E0
E0
E0
E0
E0
E0
E0
E0
ENDCHAR
STARTCHAR s
ENCODING 115
SWIDTH 455 0
DWIDTH 16 0
BBX 12 19 2 0
BITMAP
1F80
3FE0
7FE0
F0F0
E070
E070
F000
7C00
3F00
1FC0
07E0
01F0
0070
E070
E070
F0F0
7FF0
3FE0
1F80
ENDCHAR
STARTCHAR t
ENCODING 116
SWIDTH 295 0
DWIDTH 11 0
BBX 8 24 1 0
BITMAP
3C
3C
3C
3C
3C
FF
FF
FF
3C
3C
3C
3C
3C
3C
3C
3C
3C
3C
3C
3C
1C
1F
1F
0F
ENDCHAR
STARTCHAR u
ENCODING 117
SWIDTH 483 0
DWIDTH 17 0
BBX 13 19 2 0
BITMAP
E038
E038
E038
E038
E038
E038
E038
E038
E038
E038
E038
E038
E038
E038
F078
70F8
7FF8
3FB8
1F38
ENDCHAR
STARTCHAR v
ENCODING 118
SWIDTH 427 0
DWIDTH 15 0
BBX 13 19 1 0
BITMAP
E038
E038
E078
7070
7070
7070
30E0
38E0
38E0
38C0
1DC0
1DC0
1DC0
0D80
0F80
0F80
0700
0700
0700
ENDCHAR
STARTCHAR w
ENCODING 119
SWIDTH 649 0
DWIDTH 23 0
BBX 21 19 1 0
BITMAP
E07038
E07038
E07038
70F870
70F870
70F870
71D870
71DC60
39DCE0
398CE0
3B8CE0
3B8EC0
1F8FC0
1F07C0
1F07C0
1F0780
0E0780
0E0380
0E0380
ENDCHAR
STARTCHAR x
ENCODING 120
SWIDTH 438 0
DWIDTH 16 0
BBX 14 19 1 0
BITMAP
F03C
7078
7870
38F0
1CE0
1DE0
0FC0
0FC0
0780
0780
0780
0FC0
1FC0
1CE0
3CE0
3870
7870
7038
F03C
ENDCHAR
STARTCHAR y
ENCODING 121
SWIDTH 416 0
DWIDTH 15 0
BBX 13 26 1 -7
BITMAP
E038
E038
F078
7070
7070
7070
38E0
38E0
38E0
18E0
1DC0
1DC0
1DC0
0F80
0F80
0F80
0700
0700
0700
0700
0E00
0E00
1E00
7C00
7800
7000
ENDCHAR
STARTCHAR z
ENCODING 122
SWIDTH 438 0
DWIDTH 16 0
BBX 12 19 2 0
BITMAP
FFF0
FFF0
FFF0
00E0
01E0
01C0
0380
0780
0700
0E00
1E00
1C00
3C00
7800
7000
F000
FFF0
FFF0
FFF0
ENDCHAR
STARTCHAR braceleft
ENCODING 123
SWIDTH 306 0
DWIDTH 11 0
BBX 9 34 1 -6
BITMAP
0180
0380
0700
0E00
0E00
0E00
1C00
1C00
1C00
1C00
1C00
1C00
1C00
1C00
1C00
3800
F000
F000
3800
1C00
1C00
1C00
1C00
1C00
1C00
1C00
1C00
1C00
0E00
0E00
0E00
0700
0380
0180
ENDCHAR
STARTCHAR bar
ENCODING 124
SWIDTH 243 0
DWIDTH 9 0
BBX 3 31 3 -5
BITMAP
E0
E0
E0
E0
E0
E0
E0
E0
E0
E0
E0
E0
E0
E0
E0
E0
E0
E0
E0
E0
E0
E0
E0
E0
E0
E0
E0
E0
E0
E0
E0
ENDCHAR
STARTCHAR braceright
ENCODING 125
SWIDTH 306 0
DWIDTH 11 0
BBX 9 34 1 -6
BITMAP
C000
E000
7000
3800
3800
3800
3C00
1C00
1C00
1C00
1C00
1C00
1C00
1C00
1C00
0E00
0780
0780
0E00
1C00
1C00
1C00
1C00
1C00
1C00
1C00
1C00
3C00
3800
3800
3800
7000
E000
C000
ENDCHAR
STARTCHAR asciitilde
ENCODING 126
SWIDTH 589 0
DWIDTH 21 0
BBX 17 7 2 7
BITMAP
1E0180
3F8380
7FC380
73E780
E0FF00
E07E00
003C00
ENDCHAR
STARTCHAR uni00A0
ENCODING 160
SWIDTH 229 0
DWIDTH 8 0
BBX 1 1 0 0
BITMAP
00
ENDCHAR
STARTCHAR exclamdown
ENCODING 161
SWIDTH 231 0
DWIDTH 8 0
BBX 4 25 2 -6
BITMAP
60
F0
F0
60
00
00
00
60
60
60
70
70
70
70
70
70
70
70
F0
F0
F0
F0
F0
F0
F0
ENDCHAR
STARTCHAR cent
ENCODING 162
SWIDTH 479 0
DWIDTH 17 0
BBX 13 27 2 -4
BITMAP
0700
0700
0700
0700
0FC0
3FE0
3FF0
7878
F038
E038
E038
E000
E000
E000
E000
E000
E000
E038
F038
7878
7FF0
3FE0
0FC0
0700
0700
0700
0700
ENDCHAR
STARTCHAR sterling
ENCODING 163
SWIDTH 510 0
DWIDTH 18 0
BBX 16 26 1 0
BITMAP
01F0
07FC
0FFC
1F1E
1E0E
1C0E
1C0F
1C00
1C00
1C00
1C00
1C00
FFE0
FFE0
FFE0
1C00
1C00
1C00
1C00
1C00
1C00
1C00
3800
7FFF
7FFF
7FFF
ENDCHAR
STARTCHAR currency
ENCODING 164
SWIDTH 712 0
DWIDTH 26 0
BBX 22 23 2 0
BITMAP
400010
60FC18
F3FF3C
7FFFFC
3F83F8
1E01F0
3C00F0
780078
700038
700038
700038
70003C
70003C
700038
700038
700038
780078
3C00F0
3E01F0
7F83F8
FFFFFC
73FF3C
20FC18
ENDCHAR
STARTCHAR yen
ENCODING 165
SWIDTH 463 0
DWIDTH 17 0
BBX 15 26 1 0
BITMAP
F00E
F01E
701C
783C
3838
3838
3C78
1C70
1E70
0EE0
0EE0
0FE0
07C0
7FFC
7FFC
0380
0380
0380
7FFC
7FFC
0380
0380
0380
0380
0380
0380
ENDCHAR
STARTCHAR brokenbar
ENCODING 166
SWIDTH 239 0
DWIDTH 9 0
BBX 3 31 3 -5
BITMAP
E0
E0
E0
E0
E0
E0
E0
E0
E0
E0
E0
E0
E0
E0
00
00
00
E0
E0
E0
E0
E0
E0
E0
E0
E0
E0
E0
E0
E0
E0
ENDCHAR
STARTCHAR section
ENCODING 167
SWIDTH 537 0
DWIDTH 19 0
BBX 16 35 1 -9
BITMAP
07F0
0FF8
3FFC
3C1E
780E
700F
7007
7007
7800
3C00
3F00
1FE0
3FF8
79FC
707E
701F
700F
7007
7007
7807
3E07
3F8F
0FFE
03F8
007C
001E
000E
F00E
700F
700F
780E
7C1E
3FFC
1FF8
07E0
ENDCHAR
STARTCHAR dieresis
ENCODING 168
SWIDTH 417 0
DWIDTH 15 0
BBX 11 4 2 22
BITMAP
E0E0
F1E0
F1E0
E0E0
ENDCHAR
STARTCHAR copyright
ENCODING 169
SWIDTH 785 0
DWIDTH 28 0
BBX 25 26 1 0
BITMAP
007F0000
01FFE000
03C0F000
0F003C00
1C000C00
183F0600
307F8700
30E1C300
61C0C380
6180C180
6180E180
61800180
E1800180
C1800180
61800180
6180E180
6180C180
61C0C380
30E1C300
307F8700
183E0600
1C000C00
0F003C00
07C0F000
01FFE000
007F0000
ENDCHAR
STARTCHAR ordfeminine
ENCODING 170
SWIDTH 395 0
DWIDTH 14 0
BBX 10 14 2 12
BITMAP
1E00
3F80
7380
6180
21C0
01C0
3FC0
7FC0
71C0
E1C0
E1C0
63C0
7FC0
3DC0
ENDCHAR
STARTCHAR guillemotleft
ENCODING 171
SWIDTH 417 0
DWIDTH 15 0
BBX 11 14 2 3
BITMAP
0C60
1CE0
39C0
39C0
7380
6300
E700
E700
6300
7380
3180
39C0
1CE0
0C60
ENDCHAR
STARTCHAR logicalnot
ENCODING 172
SWIDTH 487 0
DWIDTH 18 0
BBX 13 7 2 7
BITMAP
FFF8
FFF8
FFF8
0078
0078
0078
0078
ENDCHAR
STARTCHAR uni00AD
ENCODING 173
SWIDTH 248 0
DWIDTH 9 0
BBX 7 3 1 9
BITMAP
FE
FE
FE
ENDCHAR
STARTCHAR registered
ENCODING 174
SWIDTH 786 0
DWIDTH 28 0
BBX 25 26 1 0
BITMAP
007F0000
01FFE000
07C0F000
0F003800
1C000C00
18FF0600
30FF8700
30C1C300
60C0C380
60C0C180
60C0C180
E0C1C180
C0FF8180
C0FF8180
E0C1C180
60C0C180
60C0C180
60C0C380
30C0C300
30C0C700
18000600
1C000C00
0F003800
07C0F000
01FFE000
007F0000
ENDCHAR
STARTCHAR macron
ENCODING 175
SWIDTH 414 0
DWIDTH 15 0
BBX 11 3 2 22
BITMAP
FFE0
FFE0
FFE0
ENDCHAR
STARTCHAR degree
ENCODING 176
SWIDTH 373 0
DWIDTH 13 0
BBX 9 9 2 17
BITMAP
1E00
7F00
6380
E180
C180
E180
6380
7F00
1E00
ENDCHAR
STARTCHAR plusminus
ENCODING 177
SWIDTH 469 0
DWIDTH 17 0
BBX 13 22 2 0
BITMAP
0700
0700
0700
0700
0700
0700
0700
FFF8
FFF8
FFF8
0700
0700
0700
0700
0700
0700
0700
0000
0000
FFF8
FFF8
FFF8
ENDCHAR
STARTCHAR uni00B2
ENCODING 178
SWIDTH 329 0
DWIDTH 12 0
BBX 10 14 1 12
BITMAP
1E00
7F00
7380
E380
0380
0380
0380
0700
0E00
1C00
3800
7000
7FC0
7FC0
ENDCHAR
STARTCHAR uni00B3
ENCODING 179
SWIDTH 329 0
DWIDTH 12 0
BBX 9 14 1 12
BITMAP
3E00
7F80
6380
8180
0380
1E00
1F80
0380
0180
0180
E180
7380
7F00
3E00
ENDCHAR
STARTCHAR acute
ENCODING 180
SWIDTH 313 0
DWIDTH 11 0
BBX 8 5 2 22
BITMAP
1F
3C
38
70
E0
ENDCHAR
STARTCHAR mu
ENCODING 181
SWIDTH 498 0
DWIDTH 18 0
BBX 12 26 3 -7
BITMAP
E070
E070
E070
E070
E070
E070
E070
E070
E070
E070
E070
E070
E070
E070
E070
F0F0
FFF0
FFF0
EF30
E000
E000
E000
E000
E000
E000
E000
ENDCHAR
STARTCHAR paragraph
ENCODING 182
SWIDTH 434 0
DWIDTH 16 0
BBX 12 26 1 0
BITMAP
07F0
1FF0
3FF0
3FF0
7FF0
7FF0
7FF0
FFF0
FFF0
FFF0
7FF0
7FF0
7FF0
3FF0
3FF0
0FF0
03F0
0070
0070
0070
0070
0070
0070
0070
0070
0070
ENDCHAR
STARTCHAR periodcentered
ENCODING 183
SWIDTH 243 0
DWIDTH 9 0
BBX 3 4 3 11
BITMAP
E0
E0
E0
E0
ENDCHAR
STARTCHAR cedilla
ENCODING 184
SWIDTH 229 0
DWIDTH 8 0
BBX 5 7 2 -7
BITMAP
E0
F0
30
38
38
F0
E0
ENDCHAR
STARTCHAR uni00B9
ENCODING 185
SWIDTH 329 0
DWIDTH 12 0
BBX 6 14 2 12
BITMAP
0C
3C
FC
DC
1C
1C
1C
1C
1C
1C
1C
1C
1C
1C
ENDCHAR
STARTCHAR ordmasculine
ENCODING 186
SWIDTH 402 0
DWIDTH 15 0
BBX 11 14 2 12
BITMAP
1F00
3F80
71C0
61C0
E0C0
E0E0
E0E0
E0E0
E0E0
E0C0
61C0
71C0
3F80
1F00
ENDCHAR
STARTCHAR guillemotright
ENCODING 187
SWIDTH 417 0
DWIDTH 15 0
BBX 12 14 2 3
BITMAP
C700
6300
7380
31C0
39C0
1CE0
1C70
1C70
1CE0
39C0
31C0
7380
6300
C700
ENDCHAR
STARTCHAR onequarter
ENCODING 188
SWIDTH 637 0
DWIDTH 23 0
BBX 21 26 1 0
BITMAP
0C0000
3C0000
FC0000
CC0100
0C0380
0C0300
0C0600
0C0E00
0C0C00
0C1C00
0C1800
0C3800
0C30E0
0C70E0
0061E0
00E3E0
00C3E0
01C7E0
0186E0
030CE0
030CE0
061FF8
061FF8
0C00E0
0000E0
0000E0
ENDCHAR
STARTCHAR onehalf
ENCODING 189
SWIDTH 677 0
DWIDTH 24 0
BBX 22 26 1 0
BITMAP
0C0000
3C0000
FC0000
CC0200
0C0700
0C0600
0C0E00
0C0C00
0C1C00
0C1800
0C3800
0C3000
0C71E0
0C67F0
00C738
00CE38
018E38
018038
030030
070070
0600E0
0E01C0
0C0380
040700
0007FC
0007FC
ENDCHAR
STARTCHAR threequarters
ENCODING 190
SWIDTH 673 0
DWIDTH 24 0
BBX 21 26 2 0
BITMAP
3E0000
7F0000
E38000
038100
038180
1F0380
1F0300
038700
038600
038E00
E38C00
E39800
7F18E0
3E30E0
0031E0
0061E0
00E360
00C760
01C660
018E60
038C60
031FF8
071FF8
020060
000060
000060
ENDCHAR
STARTCHAR questiondown
ENCODING 191
SWIDTH 421 0
DWIDTH 15 0
BBX 13 26 1 -7
BITMAP
0700
0700
0700
0700
0000
0000
0000
0000
0700
0700
0700
0E00
1E00
3C00
3800
7800
7000
F000
E000
E000
E078
F070
78F0
7FF0
3FE0
0F80
ENDCHAR
STARTCHAR Agrave
ENCODING 192
SWIDTH 576 0
DWIDTH 21 0
BBX 19 33 1 0
BITMAP
0F0000
078000
03C000
01E000
00E000
000000
000000
00E000
00E000
01F000
01F000
01F000
03B800
03B800
03B800
071C00
071C00
071C00
0E0E00
0E0E00
0E0E00
0C0600
1C0700
1FFF00
1FFF00
3FFF80
380380
380380
7001C0
7001C0
7001C0
F001E0
E000E0
ENDCHAR
STARTCHAR Aacute
ENCODING 193
SWIDTH 576 0
DWIDTH 21 0
BBX 19 33 1 0
BITMAP
001E00
003C00
007800
00F000
00E000
000000
000000
00E000
00E000
01F000
01F000
01F000
03B800
03B800
03B800
071C00
071C00
071C00
0E0E00
0E0E00
0E0E00
0C0600
1C0700
1FFF00
1FFF00
3FFF80
380380
380380
7001C0
7001C0
7001C0
F001E0
E000E0
ENDCHAR
STARTCHAR Acircumflex
ENCODING 194
SWIDTH 576 0
DWIDTH 21 0
BBX 19 33 1 0
BITMAP
00E000
01F000
03B000
033800
071C00
000000
000000
00E000
00E000
01F000
01F000
01F000
03B800
03B800
03B800
071C00
071C00
071C00
0E0E00
0E0E00
0E0E00
0C0600
1C0700
1FFF00
1FFF00
3FFF80
380380
380380
7001C0
7001C0
7001C0
F001E0
E000E0
ENDCHAR
STARTCHAR Atilde
ENCODING 195
SWIDTH 576 0
DWIDTH 21 0
BBX 19 32 1 0
BITMAP
038600
07CE00
0E7C00
0C3800
000000
000000
00E000
00E000
01F000
01F000
01F000
03B800
03B800
03B800
071C00
071C00
071C00
0E0E00
0E0E00
0E0E00
0C0600
1C0700
1FFF00
1FFF00
3FFF80
380380
380380
7001C0
7001C0
7001C0
F001E0
E000E0
ENDCHAR
STARTCHAR Adieresis
ENCODING 196
SWIDTH 576 0
DWIDTH 21 0
BBX 19 32 1 0
BITMAP
0E0E00
0F1E00
0F1E00
0E0E00
000000
000000
00E000
00E000
01F000
01F000
01F000
03B800
03B800
03B800
071C00
071C00
071C00
0E0E00
0E0E00
0E0E00
0C0600
1C0700
1FFF00
1FFF00
3FFF80
380380
380380
7001C0
7001C0
7001C0
F001E0
E000E0
ENDCHAR
STARTCHAR Aring
ENCODING 197
SWIDTH 576 0
DWIDTH 21 0
BBX 19 35 1 0
BITMAP
01E000
03F800
031800
021800
031800
03F800
01E000
000000
000000
00E000
00E000
01F000
01F000
01F000
03B800
03B800
03B800
071C00
071C00
071C00
0E0E00
0E0E00
0E0E00
0C0600
1C0700
1FFF00
1FFF00
3FFF80
380380
380380
7001C0
7001C0
7001C0
F001E0
E000E0
ENDCHAR
STARTCHAR AE
ENCODING 198
SWIDTH 812 0
DWIDTH 29 0
BBX 28 26 0 0
BITMAP
0007FFF0
000FFFF0
000FFFF0
001F8000
001F8000
003B8000
003B8000
00738000
00738000
00F3C000
00E3C000
01E3FFC0
01C1FFC0
03C1FFC0
0381C000
0781C000
0701C000
0FFFC000
0FFFC000
1FFFC000
1C01C000
3C01C000
3801C000
7801FFF0
7801FFF0
F001FFF0
ENDCHAR
STARTCHAR Ccedilla
ENCODING 199
SWIDTH 566 0
DWIDTH 20 0
BBX 17 33 2 -7
BITMAP
03F000
0FFC00
1FFE00
3C1E00
780F00
700700
F00700
F00700
E00780
E00000
E00000
E00000
E00000
E00000
E00000
E00000
E00000
E00780
F00700
F00700
700700
780F00
3C1E00
1FFC00
0FF800
07E000
018000
01C000
006000
006000
006000
01E000
01C000
ENDCHAR
STARTCHAR Egrave
ENCODING 200
SWIDTH 496 0
DWIDTH 18 0
BBX 14 33 3 0
BITMAP
7800
3C00
1E00
0F00
0700
0000
0000
FFF8
FFF8
FFF8
E000
E000
E000
E000
E000
E000
E000
E000
FFF0
FFF0
FFF0
E000
E000
E000
E000
E000
E000
E000
E000
E000
FFFC
FFFC
FFFC
ENDCHAR
STARTCHAR Eacute
ENCODING 201
SWIDTH 496 0
DWIDTH 18 0
BBX 14 33 3 0
BITMAP
00F0
01E0
03C0
0780
0700
0000
0000
FFF8
FFF8
FFF8
E000
E000
E000
E000
E000
E000
E000
E000
FFF0
FFF0
FFF0
E000
E000
E000
E000
E000
E000
E000
E000
E000
FFFC
FFFC
FFFC
ENDCHAR
STARTCHAR Ecircumflex
ENCODING 202
SWIDTH 496 0
DWIDTH 18 0
BBX 14 33 3 0
BITMAP
0700
0F80
1DC0
18C0
38E0
0000
0000
FFF8
FFF8
FFF8
E000
E000
E000
E000
E000
E000
E000
E000
FFF0
FFF0
FFF0
E000
E000
E000
E000
E000
E000
E000
E000
E000
FFFC
FFFC
FFFC
ENDCHAR
STARTCHAR Edieresis
ENCODING 203
SWIDTH 496 0
DWIDTH 18 0
BBX 14 32 3 0
BITMAP
7070
78F0
78F0
7070
0000
0000
FFF8
FFF8
FFF8
E000
E000
E000
E000
E000
E000
E000
E000
FFF0
FFF0
FFF0
E000
E000
E000
E000
E000
E000
E000
E000
E000
FFFC
FFFC
FFFC
ENDCHAR
STARTCHAR Igrave
ENCODING 204
SWIDTH 250 0
DWIDTH 9 0
BBX 7 33 -1 0
BITMAP
F0
78
3C
1E
0E
00
00
0E
0E
0E
0E
0E
0E
0E
0E
0E
0E
0E
0E
0E
0E
0E
0E
0E
0E
0E
0E
0E
0E
0E
0E
0E
0E
ENDCHAR
STARTCHAR Iacute
ENCODING 205
SWIDTH 250 0
DWIDTH 9 0
BBX 7 33 3 0
BITMAP
1E
3C
78
F0
E0
00
00
E0
E0
E0
E0
E0
E0
E0
E0
E0
E0
E0
E0
E0
E0
E0
E0
E0
E0
E0
E0
E0
E0
E0
E0
E0
E0
ENDCHAR
STARTCHAR Icircumflex
ENCODING 206
SWIDTH 250 0
DWIDTH 9 0
BBX 9 33 0 0
BITMAP
1C00
3E00
7700
6300
E380
0000
0000
1C00
1C00
1C00
1C00
1C00
1C00
1C00
1C00
1C00
1C00
1C00
1C00
1C00
1C00
1C00
1C00
1C00
1C00
1C00
1C00
1C00
1C00
1C00
1C00
1C00
1C00
ENDCHAR
STARTCHAR Idieresis
ENCODING 207
SWIDTH 250 0
DWIDTH 9 0
BBX 11 32 -1 0
BITMAP
E0E0
F1E0
F1E0
E0E0
0000
0000
0E00
0E00
0E00
0E00
0E00
0E00
0E00
0E00
0E00
0E00
0E00
0E00
0E00
0E00
0E00
0E00
0E00
0E00
0E00
0E00
0E00
0E00
0E00
0E00
0E00
0E00
ENDCHAR
STARTCHAR Eth
ENCODING 208
SWIDTH 585 0
DWIDTH 21 0
BBX 19 26 0 0
BITMAP
1FF800
1FFE00
1FFF00
1C0F80
1C0380
1C03C0
1C01C0
1C01C0
1C01E0
1C00E0
1C00E0
FFC0E0
FFC0E0
FFC0E0
1C00E0
1C00E0
1C00E0
1C01E0
1C01C0
1C01C0
1C03C0
1C0380
1C0F80
1FFF00
1FFE00
1FF800
ENDCHAR
STARTCHAR Ntilde
ENCODING 209
SWIDTH 619 0
DWIDTH 22 0
BBX 16 32 3 0
BITMAP
0E18
1F98
19F8
1870
0000
0000
E007
F007
F007
F807
F807
FC07
FC07
EE07
EE07
E707
E707
E387
E387
E1C7
E1C7
E0E7
E0E7
E077
E077
E03F
E03F
E01F
E01F
E00F
E00F
E007
ENDCHAR
STARTCHAR Ograve
ENCODING 210
SWIDTH 600 0
DWIDTH 22 0
BBX 18 33 2 0
BITMAP
1F0000
070000
038000
01C000
01E000
000000
000000
03F000
0FFC00
1FFE00
3E1F00
380700
780780
700380
700380
700380
F003C0
F003C0
F003C0
F003C0
F003C0
F003C0
F003C0
F003C0
F00380
700380
700380
780780
380700
3E1F00
1FFE00
0FFC00
03F000
ENDCHAR
STARTCHAR Oacute
ENCODING 211
SWIDTH 600 0
DWIDTH 22 0
BBX 18 33 2 0
BITMAP
003C00
007800
007000
00E000
01C000
000000
000000
03F000
0FFC00
1FFE00
3E1F00
380700
780780
700380
700380
700380
F003C0
F003C0
F003C0
F003C0
F003C0
F003C0
F003C0
F003C0
F00380
700380
700380
780780
380700
3E1F00
1FFE00
0FFC00
03F000
ENDCHAR
STARTCHAR Ocircumflex
ENCODING 212
SWIDTH 600 0
DWIDTH 22 0
BBX 18 33 2 0
BITMAP
01C000
01E000
03F000
073800
0E1800
000000
000000
03F000
0FFC00
1FFE00
3E1F00
380700
780780
700380
700380
700380
F003C0
F003C0
F003C0
F003C0
F003C0
F003C0
F003C0
F003C0
F00380
700380
700380
780780
380700
3E1F00
1FFE00
0FFC00
03F000
ENDCHAR
STARTCHAR Otilde
ENCODING 213
SWIDTH 600 0
DWIDTH 22 0
BBX 18 32 2 0
BITMAP
070C00
0F8C00
0CF800
0C7800
000000
000000
03F000
0FFC00
1FFE00
3E1F00
380700
780780
700380
700380
700380
F003C0
F003C0
F003C0
F003C0
F003C0
F003C0
F003C0
F003C0
F00380
700380
700380
780780
380700
3E1F00
1FFE00
0FFC00
03F000
ENDCHAR
STARTCHAR Odieresis
ENCODING 214
SWIDTH 600 0
DWIDTH 22 0
BBX 18 32 2 0
BITMAP
0C1C00
1E1E00
1E1E00
0C1C00
000000
000000
03F000
0FFC00
1FFE00
3E1F00
380700
780780
700380
700380
700380
F003C0
F003C0
F003C0
F003C0
F003C0
F003C0
F003C0
F003C0
F00380
700380
700380
780780
380700
3E1F00
1FFE00
0FFC00
03F000
ENDCHAR
STARTCHAR multiply
ENCODING 215
SWIDTH 470 0
DWIDTH 17 0
BBX 13 16 2 4
BITMAP
4010
E038
F078
78F0
39E0
3DC0
1FC0
0F80
0F80
1F80
3DC0
39E0
78F0
F078
E030
4010
ENDCHAR
STARTCHAR Oslash
ENCODING 216
SWIDTH 600 0
DWIDTH 22 0
BBX 18 28 2 -1
BITMAP
0000C0
03F180
0FFD80
1FFF00
1E1F00
3C0700
780F80
700F80
701F80
701B80
F03BC0
F033C0
E071C0
E061C0
E0E1C0
E0C3C0
E183C0
F183C0
730380
730380
760380
7E0780
3C0F00
1E1F00
1FFE00
3FFC00
33F000
700000
ENDCHAR
STARTCHAR Ugrave
ENCODING 217
SWIDTH 561 0
DWIDTH 20 0
BBX 16 33 2 0
BITMAP
1E00
0F00
0700
0380
01C0
0000
0000
E007
E007
E007
E007
E007
E007
E007
E007
E007
E007
E007
E007
E007
E007
E007
E007
E007
E007
E007
E007
F00F
700E
7C1E
3FFC
1FF8
07E0
ENDCHAR
STARTCHAR Uacute
ENCODING 218
SWIDTH 561 0
DWIDTH 20 0
BBX 16 33 2 0
BITMAP
007C
0070
00E0
01C0
0380
0000
0000
E007
E007
E007
E007
E007
E007
E007
E007
E007
E007
E007
E007
E007
E007
E007
E007
E007
E007
E007
E007
F00F
700E
7C1E
3FFC
1FF8
07E0
ENDCHAR
STARTCHAR Ucircumflex
ENCODING 219
SWIDTH 561 0
DWIDTH 20 0
BBX 16 33 2 0
BITMAP
0180
03C0
07E0
0E70
0C38
0000
0000
E007
E007
E007
E007
E007
E007
E007
E007
E007
E007
E007
E007
E007
E007
E007
E007
E007
E007
E007
E007
F00F
700E
7C1E
3FFC
1FF8
07E0
ENDCHAR
STARTCHAR Udieresis
ENCODING 220
SWIDTH 561 0
DWIDTH 20 0
BBX 16 32 2 0
BITMAP
1C18
3C3C
3C3C
1C18
0000
0000
E007
E007
E007
E007
E007
E007
E007
E007
E007
E007
E007
E007
E007
E007
E007
E007
E007
E007
E007
E007
F00F
700E
7C1E
3FFC
1FF8
07E0
ENDCHAR
STARTCHAR Yacute
ENCODING 221
SWIDTH 524 0
DWIDTH 19 0
BBX 17 33 1 0
BITMAP
003C00
007800
00F000
01E000
01C000
000000
000000
E00780
F00780
700700
780F00
380E00
381E00
3C1C00
1C1C00
1E3C00
0E3800
0E7800
077000
077000
03E000
03E000
03C000
01C000
01C000
01C000
01C000
01C000
01C000
01C000
01C000
01C000
01C000
ENDCHAR
STARTCHAR Thorn
ENCODING 222
SWIDTH 515 0
DWIDTH 19 0
BBX 14 26 3 0
BITMAP
E000
E000
E000
E000
E000
FFC0
FFF0
FFF0
E078
E03C
E01C
E01C
E01C
E01C
E01C
E01C
E03C
E078
FFF0
FFE0
FFC0
E000
E000
E000
E000
E000
ENDCHAR
STARTCHAR germandbls
ENCODING 223
SWIDTH 521 0
DWIDTH 19 0
BBX 15 27 2 0
BITMAP
0F80
3FE0
3FE0
78F0
7070
7070
F070
F070
F070
F0E0
F0E0
F1C0
F1C0
F1C0
F1E0
F0F0
F078
F03C
F01E
F00E
F00E
F00E
F00E
F21E
F7FE
F7FC
F1F0
ENDCHAR
STARTCHAR agrave
ENCODING 224
SWIDTH 479 0
DWIDTH 17 0
BBX 13 26 2 0
BITMAP
7C00
1E00
0E00
0700
0380
0000
0000
0FC0
3FE0
7FF0
78F0
F078
E078
0038
0038
0FF8
3FF8
7FF8
F838
E038
E038
E078
F0F8
FFF8
7FB8
1E38
ENDCHAR
STARTCHAR aacute
ENCODING 225
SWIDTH 479 0
DWIDTH 17 0
BBX 13 26 2 0
BITMAP
00F8
01E0
01C0
0380
0700
0000
0000
0FC0
3FE0
7FF0
78F0
F078
E078
0038
0038
0FF8
3FF8
7FF8
F838
E038
E038
E078
F0F8
FFF8
7FB8
1E38
ENDCHAR
STARTCHAR acircumflex
ENCODING 226
SWIDTH 479 0
DWIDTH 17 0
BBX 13 27 2 0
BITMAP
0300
0780
0FC0
1CE0
3870
0000
0000
0000
0FC0
3FE0
7FF0
78F0
F078
E078
0038
0038
0FF8
3FF8
7FF8
F838
E038
E038
E078
F0F8
FFF8
7FB8
1E38
ENDCHAR
STARTCHAR atilde
ENCODING 227
SWIDTH 479 0
DWIDTH 17 0
BBX 13 26 2 0
BITMAP
1C30
3F30
33F0
31E0
0000
0000
0000
0FC0
3FE0
7FF0
78F0
F078
E078
0038
0038
0FF8
3FF8
7FF8
F838
E038
E038
E078
F0F8
FFF8
7FB8
1E38
ENDCHAR
STARTCHAR adieresis
ENCODING 228
SWIDTH 479 0
DWIDTH 17 0
BBX 13 26 2 0
BITMAP
3870
7878
7878
3870
0000
0000
0000
0FC0
3FE0
7FF0
78F0
F078
E078
0038
0038
0FF8
3FF8
7FF8
F838
E038
E038
E078
F0F8
FFF8
7FB8
1E38
ENDCHAR
STARTCHAR aring
ENCODING 229
SWIDTH 479 0
DWIDTH 17 0
BBX 13 28 2 0
BITMAP
0780
0FC0
1860
1860
1860
0FC0
0780
0000
0000
0FC0
3FE0
7FF0
78F0
F078
E078
0038
0038
0FF8
3FF8
7FF8
F838
E038
E038
E078
F0F8
FFF8
7FB8
1E38
ENDCHAR
STARTCHAR ae
ENCODING 230
SWIDTH 728 0
DWIDTH 26 0
BBX 24 19 1 0
BITMAP
0FC1F0
1FE7F8
3FFFFC
787E1E
703C0E
703C0E
003C07
003807
0FFFFF
3FFFFF
7FFFFF
783800
F03800
E03C00
F03C00
70FF06
7FFFFE
3FE7FF
1F81F8
ENDCHAR
STARTCHAR ccedilla
ENCODING 231
SWIDTH 461 0
DWIDTH 17 0
BBX 14 26 2 -7
BITMAP
0FC0
3FE0
7FF0
7878
F038
E038
E01C
E000
E000
E000
E000
E000
E000
E01C
F038
7878
7FF0
3FE0
0FC0
0600
0700
0380
0180
0380
0780
0600
ENDCHAR
STARTCHAR egrave
ENCODING 232
SWIDTH 468 0
DWIDTH 17 0
BBX 14 26 2 0
BITMAP
7C00
1C00
1E00
0F00
0780
0000
0000
0FC0
3FE0
3FF0
7878
F038
E038
E038
E038
FFFC
FFFC
FFFC
E000
E000
E000
F010
7838
7FF8
3FF0
0FC0
ENDCHAR
STARTCHAR eacute
ENCODING 233
SWIDTH 468 0
DWIDTH 17 0
BBX 14 26 2 0
BITMAP
00F0
01E0
03C0
0380
0700
0000
0000
0FC0
3FE0
3FF0
7878
F038
E038
E038
E038
FFFC
FFFC
FFFC
E000
E000
E000
F010
7838
7FF8
3FF0
0FC0
ENDCHAR
STARTCHAR ecircumflex
ENCODING 234
SWIDTH 468 0
DWIDTH 17 0
BBX 14 27 2 0
BITMAP
0700
0F80
0DC0
1CE0
38E0
0000
0000
0000
0FC0
3FE0
3FF0
7878
F038
E038
E038
E038
FFFC
FFFC
FFFC
E000
E000
E000
F010
7838
7FF8
3FF0
0FC0
ENDCHAR
STARTCHAR edieresis
ENCODING 235
SWIDTH 468 0
DWIDTH 17 0
BBX 14 26 2 0
BITMAP
3070
7870
7870
3070
0000
0000
0000
0FC0
3FE0
3FF0
7878
F038
E038
E038
E038
FFFC
FFFC
FFFC
E000
E000
E000
F010
7838
7FF8
3FF0
0FC0
ENDCHAR
STARTCHAR igrave
ENCODING 236
SWIDTH 234 0
DWIDTH 8 0
BBX 7 26 -1 0
BITMAP
F0
78
3C
1C
0E
00
00
0E
0E
0E
0E
0E
0E
0E
0E
0E
0E
0E
0E
0E
0E
0E
0E
0E
0E
0E
ENDCHAR
STARTCHAR iacute
ENCODING 237
SWIDTH 234 0
DWIDTH 8 0
BBX 8 26 2 0
BITMAP
1F
1C
38
70
F0
00
00
70
70
70
70
70
70
70
70
70
70
70
70
70
70
70
70
70
70
70
ENDCHAR
STARTCHAR icircumflex
ENCODING 238
SWIDTH 234 0
DWIDTH 8 0
BBX 9 27 0 0
BITMAP
1C00
3C00
7600
E700
C380
0000
0000
0000
1C00
1C00
1C00
1C00
1C00
1C00
1C00
1C00
1C00
1C00
1C00
1C00
1C00
1C00
1C00
1C00
1C00
1C00
1C00
ENDCHAR
STARTCHAR idieresis
ENCODING 239
SWIDTH 234 0
DWIDTH 8 0
BBX 11 26 -1 0
BITMAP
E0C0
E1E0
E1E0
E0C0
0000
0000
0000
0E00
0E00
0E00
0E00
0E00
0E00
0E00
0E00
0E00
0E00
0E00
0E00
0E00
0E00
0E00
0E00
0E00
0E00
0E00
ENDCHAR
STARTCHAR eth
ENCODING 240
SWIDTH 513 0
DWIDTH 18 0
BBX 14 27 2 0
BITMAP
3000
3C10
3F38
0FF0
07C0
03E0
0FE0
1C70
0878
0038
0FB8
1FF8
3FFC
787C
703C
F01C
E01C
E01C
E01C
E01C
E03C
F038
7038
7878
3FF0
1FE0
0F80
ENDCHAR
STARTCHAR ntilde
ENCODING 241
SWIDTH 483 0
DWIDTH 17 0
BBX 13 26 2 0
BITMAP
1C30
3E30
33E0
71C0
0000
0000
0000
E7C0
EFE0
FFF0
F870
F078
E038
E038
E038
E038
E038
E038
E038
E038
E038
E038
E038
E038
E038
E038
ENDCHAR
STARTCHAR ograve
ENCODING 242
SWIDTH 501 0
DWIDTH 18 0
BBX 14 26 2 0
BITMAP
7C00
1C00
0E00
0700
0780
0000
0000
0FC0
1FE0
7FF0
7878
F03C
E01C
E01C
E01C
E01C
E01C
E01C
E01C
E01C
E01C
F03C
7878
7FF0
3FE0
0FC0
ENDCHAR
STARTCHAR oacute
ENCODING 243
SWIDTH 501 0
DWIDTH 18 0
BBX 14 26 2 0
BITMAP
00F0
01E0
01C0
0380
0700
0000
0000
0FC0
1FE0
7FF0
7878
F03C
E01C
E01C
E01C
E01C
E01C
E01C
E01C
E01C
E01C
F03C
7878
7FF0
3FE0
0FC0
ENDCHAR
STARTCHAR ocircumflex
ENCODING 244
SWIDTH 501 0
DWIDTH 18 0
BBX 14 27 2 0
BITMAP
0700
0780
0FC0
1CE0
3860
0000
0000
0000
0FC0
1FE0
7FF0
7878
F03C
E01C
E01C
E01C
E01C
E01C
E01C
E01C
E01C
E01C
F03C
7878
7FF0
3FE0
0FC0
ENDCHAR
STARTCHAR otilde
ENCODING 245
SWIDTH 501 0
DWIDTH 18 0
BBX 14 26 2 0
BITMAP
1C30
3E30
33E0
31E0
0000
0000
0000
0FC0
1FE0
7FF0
7878
F03C
E01C
E01C
E01C
E01C
E01C
E01C
E01C
E01C
E01C
F03C
7878
7FF0
3FE0
0FC0
ENDCHAR
STARTCHAR odieresis
ENCODING 246
SWIDTH 501 0
DWIDTH 18 0
BBX 14 26 2 0
BITMAP
3070
7878
7878
3070
0000
0000
0000
0FC0
1FE0
7FF0
7878
F03C
E01C
E01C
E01C
E01C
E01C
E01C
E01C
E01C
E01C
F03C
7878
7FF0
3FE0
0FC0
ENDCHAR
STARTCHAR divide
ENCODING 247
SWIDTH 500 0
DWIDTH 18 0
BBX 15 19 1 3
BITMAP
0180
03C0
03C0
0180
0000
0000
0000
0000
FFFE
FFFE
FFFE
0000
0000
0000
0000
0180
03C0
03C0
0180
ENDCHAR
STARTCHAR oslash
ENCODING 248
SWIDTH 498 0
DWIDTH 18 0
BBX 14 23 2 -2
BITMAP
0018
0030
07F0
1FF0
3FF0
7878
70F8
F0DC
E19C
E19C
E19C
E31C
E31C
E61C
E61C
EC3C
7C3C
7C78
3FF0
1FE0
3FC0
3000
6000
ENDCHAR
STARTCHAR ugrave
ENCODING 249
SWIDTH 483 0
DWIDTH 17 0
BBX 13 26 2 0
BITMAP
7C00
1C00
1E00
0F00
0780
0000
0000
E038
E038
E038
E038
E038
E038
E038
E038
E038
E038
E038
E038
E038
E038
F078
70F8
7FF8
3FB8
1F38
ENDCHAR
STARTCHAR uacute
ENCODING 250
SWIDTH 483 0
DWIDTH 17 0
BBX 13 26 2 0
BITMAP
00F0
01E0
03C0
0380
0700
0000
0000
E038
E038
E038
E038
E038
E038
E038
E038
E038
E038
E038
E038
E038
E038
F078
70F8
7FF8
3FB8
1F38
ENDCHAR
STARTCHAR ucircumflex
ENCODING 251
SWIDTH 483 0
DWIDTH 17 0
BBX 13 27 2 0
BITMAP
0700
0F80
0DC0
1CE0
38E0
0000
0000
0000
E038
E038
E038
E038
E038
E038
E038
E038
E038
E038
E038
E038
E038
E038
F078
70F8
7FF8
3FB8
1F38
ENDCHAR
STARTCHAR udieresis
ENCODING 252
SWIDTH 483 0
DWIDTH 17 0
BBX 13 26 2 0
BITMAP
3070
7870
7870
3070
0000
0000
0000
E038
E038
E038
E038
E038
E038
E038
E038
E038
E038
E038
E038
E038
E038
F078
70F8
7FF8
3FB8
1F38
ENDCHAR
STARTCHAR yacute
ENCODING 253
SWIDTH 416 0
DWIDTH 15 0
BBX 13 33 1 -7
BITMAP
00F0
01E0
01C0
0380
0700
0000
0000
E038
E038
F078
7070
7070
7070
38E0
38E0
38E0
18E0
1DC0
1DC0
1DC0
0F80
0F80
0F80
0700
0700
0700
0700
0E00
0E00
1E00
7C00
7800
7000
ENDCHAR
STARTCHAR thorn
ENCODING 254
SWIDTH 508 0
DWIDTH 18 0
BBX 14 34 2 -7
BITMAP
E000
E000
E000
E000
E000
E000
E000
E000
E7C0
EFF0
FFF0
F878
F038
E03C
E01C
E01C
E01C
E01C
E01C
E01C
E01C
E03C
F038
F878
FFF0
EFF0
E7C0
E000
E000
E000
E000
E000
E000
E000
ENDCHAR
STARTCHAR ydieresis
ENCODING 255
SWIDTH 416 0
DWIDTH 15 0
BBX 13 33 1 -7
BITMAP
3070
7878
7878
3070
0000
0000
0000
E038
E038
F078
7070
7070
7070
38E0
38E0
38E0
18E0
1DC0
1DC0
1DC0
0F80
0F80
0F80
0700
0700
0700
0700
0E00
0E00
1E00
7C00
7800
7000
ENDCHAR
STARTCHAR Amacron
ENCODING 256
SWIDTH 576 0
DWIDTH 21 0
BBX 19 31 1 0
BITMAP
0FFE00
0FFE00
0FFE00
000000
000000
00E000
00E000
01F000
01F000
01F000
03B800
03B800
03B800
071C00
071C00
071C00
0E0E00
0E0E00
0E0E00
0C0600
1C0700
1FFF00
1FFF00
3FFF80
380380
380380
7001C0
7001C0
7001C0
F001E0
E000E0
ENDCHAR
STARTCHAR amacron
ENCODING 257
SWIDTH 479 0
DWIDTH 17 0
BBX 13 25 2 0
BITMAP
3FF0
3FF0
3FF0
0000
0000
0000
0FC0
3FE0
7FF0
78F0
F078
E078
0038
0038
0FF8
3FF8
7FF8
F838
E038
E038
E078
F0F8
FFF8
7FB8
1E38
ENDCHAR
STARTCHAR Abreve
ENCODING 258
SWIDTH 576 0
DWIDTH 21 0
BBX 19 32 1 0
BITMAP
0E0E00
0E0C00
071C00
07F800
01F000
000000
00E000
00E000
01F000
01F000
01F000
03B800
03B800
03B800
071C00
071C00
071C00
0E0E00
0E0E00
0E0E00
0C0600
1C0700
1FFF00
1FFF00
3FFF80
380380
380380
7001C0
7001C0
7001C0
F001E0
E000E0
ENDCHAR
STARTCHAR abreve
ENCODING 259
SWIDTH 479 0
DWIDTH 17 0
BBX 13 26 2 0
BITMAP
7070
3070
38E0
1FE0
0F80
0000
0000
0FC0
3FE0
7FF0
78F0
F078
E078
0038
0038
0FF8
3FF8
7FF8
F838
E038
E038
E078
F0F8
FFF8
7FB8
1E38
ENDCHAR
STARTCHAR Aogonek
ENCODING 260
SWIDTH 576 0
DWIDTH 21 0
BBX 19 33 1 -7
BITMAP
00E000
00E000
01F000
01F000
01F000
03B800
03B800
03B800
071C00
071C00
071C00
0E0E00
0E0E00
0E0E00
0C0600
1C0700
1FFF00
1FFF00
3FFF80
380380
380380
7001C0
7001C0
7001C0
F001E0
E000E0
0001C0
000380
000300
000700
000700
0003E0
0003C0
ENDCHAR
STARTCHAR aogonek
ENCODING 261
SWIDTH 479 0
DWIDTH 17 0
BBX 13 26 2 -7
BITMAP
0FC0
3FE0
7FF0
78F0
F078
E078
0038
0038
0FF8
3FF8
7FF8
F838
E038
E038
E078
F0F8
FFF8
7FB8
1E38
0070
00E0
00E0
01C0
00C0
00F8
0078
ENDCHAR
STARTCHAR Cacute
ENCODING 262
SWIDTH 566 0
DWIDTH 20 0
BBX 17 33 2 0
BITMAP
003C00
007800
00F000
01E000
01C000
000000
000000
03F000
0FFC00
1FFE00
3C1E00
780F00
700700
F00700
F00700
E00780
E00000
E00000
E00000
E00000
E00000
E00000
E00000
E00000
E00780
F00700
F00700
700700
780F00
3C1E00
1FFC00
0FF800
07E000
ENDCHAR
STARTCHAR cacute
ENCODING 263
SWIDTH 461 0
DWIDTH 17 0
BBX 14 26 2 0
BITMAP
01F0
01C0
0380
0700
0E00
0000
0000
0FC0
3FE0
7FF0
7878
F038
E038
E01C
E000
E000
E000
E000
E000
E000
E01C
F038
7878
7FF0
3FE0
0FC0
ENDCHAR
STARTCHAR Ccircumflex
ENCODING 264
SWIDTH 566 0
DWIDTH 20 0
BBX 17 33 2 0
BITMAP
01C000
03E000
076000
0E7000
0E3800
000000
000000
03F000
0FFC00
1FFE00
3C1E00
780F00
700700
F00700
F00700
E00780
E00000
E00000
E00000
E00000
E00000
E00000
E00000
E00000
E00780
F00700
F00700
700700
780F00
3C1E00
1FFC00
0FF800
07E000
ENDCHAR
STARTCHAR ccircumflex
ENCODING 265
SWIDTH 461 0
DWIDTH 17 0
BBX 14 27 2 0
BITMAP
0700
0F00
1F80
39C0
30E0
0000
0000
0000
0FC0
3FE0
7FF0
7878
F038
E038
E01C
E000
E000
E000
E000
E000
E000
E01C
F038
7878
7FF0
3FE0
0FC0
ENDCHAR
STARTCHAR Cdotaccent
ENCODING 266
SWIDTH 566 0
DWIDTH 20 0
BBX 17 32 2 0
BITMAP
01C000
01C000
01C000
01C000
000000
000000
03F000
0FFC00
1FFE00
3C1E00
780F00
700700
F00700
F00700
E00780
E00000
E00000
E00000
E00000
E00000
E00000
E00000
E00000
E00780
F00700
F00700
700700
780F00
3C1E00
1FFC00
0FF800
07E000
ENDCHAR
STARTCHAR cdotaccent
ENCODING 267
SWIDTH 461 0
DWIDTH 17 0
BBX 14 26 2 0
BITMAP
0700
0F00
0F00
0700
0000
0000
0000
0FC0
3FE0
7FF0
7878
F038
E038
E01C
E000
E000
E000
E000
E000
E000
E01C
F038
7878
7FF0
3FE0
0FC0
ENDCHAR
STARTCHAR Ccaron
ENCODING 268
SWIDTH 566 0
DWIDTH 20 0
BBX 17 33 2 0
BITMAP
0E3800
067000
076000
03C000
01C000
000000
000000
03F000
0FFC00
1FFE00
3C1E00
780F00
700700
F00700
F00700
E00780
E00000
E00000
E00000
E00000
E00000
E00000
E00000
E00000
E00780
F00700
F00700
700700
780F00
3C1E00
1FFC00
0FF800
07E000
ENDCHAR
STARTCHAR ccaron
ENCODING 269
SWIDTH 461 0
DWIDTH 17 0
BBX 14 27 2 0
BITMAP
70E0
39C0
1F80
0F00
0600
0000
0000
0000
0FC0
3FE0
7FF0
7878
F038
E038
E01C
E000
E000
E000
E000
E000
E000
E01C
F038
7878
7FF0
3FE0
0FC0
ENDCHAR
STARTCHAR Dcaron
ENCODING 270
SWIDTH 570 0
DWIDTH 21 0
BBX 15 33 3 0
BITMAP
38E0
19C0
1D80
0F00
0700
0000
0000
FF80
FFE0
FFF8
E078
E03C
E01E
E00E
E00E
E00E
E00E
E00E
E00E
E00E
E00E
E00E
E00E
E00E
E00E
E00E
E00E
E01E
E03C
E07C
FFF8
FFE0
FF80
ENDCHAR
STARTCHAR dcaron
ENCODING 271
SWIDTH 569 0
DWIDTH 21 0
BBX 18 27 2 0
BITMAP
0039C0
0039C0
0039C0
0039C0
003B80
003B80
003900
003800
0F3800
3FF800
7FF800
787800
F03800
E03800
E03800
E03800
E03800
E03800
E03800
E03800
E03800
E03800
F03800
787800
7FF800
3FD800
0F1800
ENDCHAR
STARTCHAR Dcroat
ENCODING 272
SWIDTH 585 0
DWIDTH 21 0
BBX 19 26 0 0
BITMAP
1FF800
1FFE00
1FFF00
1C0F80
1C0380
1C03C0
1C01C0
1C01C0
1C01E0
1C00E0
1C00E0
FFC0E0
FFC0E0
FFC0E0
1C00E0
1C00E0
1C00E0
1C01E0
1C01C0
1C01C0
1C03C0
1C0380
1C0F80
1FFF00
1FFE00
1FF800
ENDCHAR
STARTCHAR dcroat
ENCODING 273
SWIDTH 529 0
DWIDTH 19 0
BBX 16 27 2 0
BITMAP
0038
0038
0038
01FF
01FF
01FF
0038
0038
0F38
3FF8
7FF8
7878
F038
E038
E038
E038
E038
E038
E038
E038
E038
E038
F038
7878
7FF8
3FF8
0FB8
ENDCHAR
STARTCHAR Emacron
ENCODING 274
SWIDTH 496 0
DWIDTH 18 0
BBX 14 31 3 0
BITMAP
7FF0
7FF0
7FF0
0000
0000
FFF8
FFF8
FFF8
E000
E000
E000
E000
E000
E000
E000
E000
FFF0
FFF0
FFF0
E000
E000
E000
E000
E000
E000
E000
E000
E000
FFFC
FFFC
FFFC
ENDCHAR
STARTCHAR emacron
ENCODING 275
SWIDTH 468 0
DWIDTH 17 0
BBX 14 25 2 0
BITMAP
3FF0
3FF0
3FF0
0000
0000
0000
0FC0
3FE0
3FF0
7878
F038
E038
E038
E038
FFFC
FFFC
FFFC
E000
E000
E000
F010
7838
7FF8
3FF0
0FC0
ENDCHAR
STARTCHAR Ebreve
ENCODING 276
SWIDTH 496 0
DWIDTH 18 0
BBX 14 32 3 0
BITMAP
7070
7060
38E0
3FC0
0F80
0000
FFF8
FFF8
FFF8
E000
E000
E000
E000
E000
E000
E000
E000
FFF0
FFF0
FFF0
E000
E000
E000
E000
E000
E000
E000
E000
E000
FFFC
FFFC
FFFC
ENDCHAR
STARTCHAR ebreve
ENCODING 277
SWIDTH 468 0
DWIDTH 17 0
BBX 14 26 2 0
BITMAP
7070
7070
38E0
1FC0
0F80
0000
0000
0FC0
3FE0
3FF0
7878
F038
E038
E038
E038
FFFC
FFFC
FFFC
E000
E000
E000
F010
7838
7FF8
3FF0
0FC0
ENDCHAR
STARTCHAR Edotaccent
ENCODING 278
SWIDTH 496 0
DWIDTH 18 0
BBX 14 32 3 0
BITMAP
0700
0700
0780
0700
0000
0000
FFF8
FFF8
FFF8
E000
E000
E000
E000
E000
E000
E000
E000
FFF0
FFF0
FFF0
E000
E000
E000
E000
E000
E000
E000
E000
E000
FFFC
FFFC
FFFC
ENDCHAR
STARTCHAR edotaccent
ENCODING 279
SWIDTH 468 0
DWIDTH 17 0
BBX 14 26 2 0
BITMAP
0700
0780
0780
0700
0000
0000
0000
0FC0
3FE0
3FF0
7878
F038
E038
E038
E038
FFFC
FFFC
FFFC
E000
E000
E000
F010
7838
7FF8
3FF0
0FC0
ENDCHAR
STARTCHAR Eogonek
ENCODING 280
SWIDTH 496 0
DWIDTH 18 0
BBX 14 33 3 -7
BITMAP
FFF8
FFF8
FFF8
E000
E000
E000
E000
E000
E000
E000
E000
FFF0
FFF0
FFF0
E000
E000
E000
E000
E000
E000
E000
E000
E000
FFFC
FFFC
FFFC
0070
00E0
00C0
01C0
01C0
00F8
0070
ENDCHAR
STARTCHAR eogonek
ENCODING 281
SWIDTH 468 0
DWIDTH 17 0
BBX 14 26 2 -7
BITMAP
0FC0
3FE0
3FF0
7878
F038
E038
E038
E038
FFFC
FFFC
FFFC
E000
E000
E000
F010
7838
7FF8
3FF0
0FC0
0380
0300
0700
0700
0700
03E0
03C0
ENDCHAR
STARTCHAR Ecaron
ENCODING 282
SWIDTH 496 0
DWIDTH 18 0
BBX 14 33 3 0
BITMAP
38E0
18C0
0D80
0F80
0700
0000
0000
FFF8
FFF8
FFF8
E000
E000
E000
E000
E000
E000
E000
E000
FFF0
FFF0
FFF0
E000
E000
E000
E000
E000
E000
E000
E000
E000
FFFC
FFFC
FFFC
ENDCHAR
STARTCHAR ecaron
ENCODING 283
SWIDTH 468 0
DWIDTH 17 0
BBX 14 27 2 0
BITMAP
38E0
1CC0
0DC0
0780
0700
0000
0000
0000
0FC0
3FE0
3FF0
7878
F038
E038
E038
E038
FFFC
FFFC
FFFC
E000
E000
E000
F010
7838
7FF8
3FF0
0FC0
ENDCHAR
STARTCHAR Gcircumflex
ENCODING 284
SWIDTH 590 0
DWIDTH 21 0
BBX 17 33 2 0
BITMAP
01C000
03C000
076000
0E7000
0C3800
000000
000000
07F000
1FFC00
3FFE00
3C1E00
780F00
700700
F00700
F00780
E00000
E00000
E00000
E00000
E00000
E07F80
E07F80
E07F80
E00780
E00780
F00780
700780
700780
780780
3E0F80
1FFF00
0FFE00
03F800
ENDCHAR
STARTCHAR gcircumflex
ENCODING 285
SWIDTH 492 0
DWIDTH 18 0
BBX 14 34 2 -7
BITMAP
0700
0F80
1DC0
18C0
38E0
0000
0000
0000
0F1C
3FDC
7FFC
787C
F03C
E03C
E03C
E03C
E03C
E03C
E03C
E03C
E03C
E03C
F03C
787C
7FFC
3FFC
0F3C
003C
0038
0038
3078
7FF0
3FE0
0FC0
ENDCHAR
STARTCHAR Gbreve
ENCODING 286
SWIDTH 590 0
DWIDTH 21 0
BBX 17 32 2 0
BITMAP
181800
1C3800
1C3800
0FF000
03E000
000000
07F000
1FFC00
3FFE00
3C1E00
780F00
700700
F00700
F00780
E00000
E00000
E00000
E00000
E00000
E07F80
E07F80
E07F80
E00780
E00780
F00780
700780
700780
780780
3E0F80
1FFF00
0FFE00
03F800
ENDCHAR
STARTCHAR gbreve
ENCODING 287
SWIDTH 492 0
DWIDTH 18 0
BBX 14 33 2 -7
BITMAP
7070
7060
38E0
3FC0
0F80
0000
0000
0F1C
3FDC
7FFC
787C
F03C
E03C
E03C
E03C
E03C
E03C
E03C
E03C
E03C
E03C
F03C
787C
7FFC
3FFC
0F3C
003C
0038
0038
3078
7FF0
3FE0
0FC0
ENDCHAR
STARTCHAR Gdotaccent
ENCODING 288
SWIDTH 590 0
DWIDTH 21 0
BBX 17 32 2 0
BITMAP
01C000
03C000
03C000
01C000
000000
000000
07F000
1FFC00
3FFE00
3C1E00
780F00
700700
F00700
F00780
E00000
E00000
E00000
E00000
E00000
E07F80
E07F80
E07F80
E00780
E00780
F00780
700780
700780
780780
3E0F80
1FFF00
0FFE00
03F800
ENDCHAR
STARTCHAR gdotaccent
ENCODING 289
SWIDTH 492 0
DWIDTH 18 0
BBX 14 33 2 -7
BITMAP
0700
0700
0780
0700
0000
0000
0000
0F1C
3FDC
7FFC
787C
F03C
E03C
E03C
E03C
E03C
E03C
E03C
E03C
E03C
E03C
F03C
787C
7FFC
3FFC
0F3C
003C
0038
0038
3078
7FF0
3FE0
0FC0
ENDCHAR
STARTCHAR uni0122
ENCODING 290
SWIDTH 590 0
DWIDTH 21 0
BBX 17 35 2 -9
BITMAP
07F000
1FFC00
3FFE00
3C1E00
780F00
700700
F00700
F00780
E00000
E00000
E00000
E00000
E00000
E07F80
E07F80
E07F80
E00780
E00780
F00780
700780
700780
780780
3E0F80
1FFF00
0FFE00
03F800
000000
000000
01C000
01C000
01C000
01C000
01C000
038000
010000
ENDCHAR
STARTCHAR uni0123
ENCODING 291
SWIDTH 492 0
DWIDTH 18 0
BBX 14 37 2 -7
BITMAP
0100
0380
0380
0700
0700
0700
0700
0700
0000
0000
0000
0F1C
3FDC
7FFC
787C
F03C
E03C
E03C
E03C
E03C
E03C
E03C
E03C
E03C
E03C
F03C
787C
7FFC
3FFC
0F3C
003C
0038
0038
3078
7FF0
3FE0
0FC0
ENDCHAR
STARTCHAR Hcircumflex
ENCODING 292
SWIDTH 620 0
DWIDTH 22 0
BBX 16 33 3 0
BITMAP
0380
03C0
06E0
0E70
1C30
0000
0000
E007
E007
E007
E007
E007
E007
E007
E007
E007
E007
E007
FFFF
FFFF
FFFF
E007
E007
E007
E007
E007
E007
E007
E007
E007
E007
E007
E007
ENDCHAR
STARTCHAR hcircumflex
ENCODING 293
SWIDTH 482 0
DWIDTH 17 0
BBX 13 33 2 0
BITMAP
0E00
0F00
1B80
39C0
70C0
0000
E000
E000
E000
E000
E000
E000
E000
E000
E7C0
EFE0
FFF0
F870
F078
E038
E038
E038
E038
E038
E038
E038
E038
E038
E038
E038
E038
E038
E038
ENDCHAR
STARTCHAR Hbar
ENCODING 294
SWIDTH 611 0
DWIDTH 22 0
BBX 20 26 1 0
BITMAP
3801E0
3801E0
3801E0
3801E0
3801E0
FFFFF0
FFFFF0
FFFFF0
3801E0
3801E0
3801E0
3FFFE0
3FFFE0
3FFFE0
3801E0
3801E0
3801E0
3801E0
3801E0
3801E0
3801E0
3801E0
3801E0
3801E0
3801E0
3801E0
ENDCHAR
STARTCHAR hbar
ENCODING 295
SWIDTH 497 0
DWIDTH 18 0
BBX 16 27 0 0
BITMAP
1C00
1C00
1C00
FF80
FF80
FF80
1C00
1C00
1CF8
1DFC
1FFE
1F1E
1E0E
1C0F
1C0F
1C07
1C07
1C07
1C07
1C07
1C07
1C07
1C07
1C07
1C07
1C07
1C07
ENDCHAR
STARTCHAR Itilde
ENCODING 296
SWIDTH 250 0
DWIDTH 9 0
BBX 11 32 -1 0
BITMAP
3860
7CE0
E7C0
C380
0000
0000
0E00
0E00
0E00
0E00
0E00
0E00
0E00
0E00
0E00
0E00
0E00
0E00
0E00
0E00
0E00
0E00
0E00
0E00
0E00
0E00
0E00
0E00
0E00
0E00
0E00
0E00
ENDCHAR
STARTCHAR itilde
ENCODING 297
SWIDTH 234 0
DWIDTH 8 0
BBX 11 26 -1 0
BITMAP
78E0
7CC0
C7C0
C380
0000
0000
0000
0E00
0E00
0E00
0E00
0E00
0E00
0E00
0E00
0E00
0E00
0E00
0E00
0E00
0E00
0E00
0E00
0E00
0E00
0E00
ENDCHAR
STARTCHAR Imacron
ENCODING 298
SWIDTH 250 0
DWIDTH 9 0
BBX 11 31 -1 0
BITMAP
FFE0
FFE0
FFE0
0000
0000
0E00
0E00
0E00
0E00
0E00
0E00
0E00
0E00
0E00
0E00
0E00
0E00
0E00
0E00
0E00
0E00
0E00
0E00
0E00
0E00
0E00
0E00
0E00
0E00
0E00
0E00
ENDCHAR
STARTCHAR imacron
ENCODING 299
SWIDTH 234 0
DWIDTH 8 0
BBX 10 25 -1 0
BITMAP
FFC0
FFC0
FFC0
0000
0000
0000
0E00
0E00
0E00
0E00
0E00
0E00
0E00
0E00
0E00
0E00
0E00
0E00
0E00
0E00
0E00
0E00
0E00
0E00
0E00
ENDCHAR
STARTCHAR Ibreve
ENCODING 300
SWIDTH 250 0
DWIDTH 9 0
BBX 11 32 -1 0
BITMAP
E0E0
E0C0
71C0
7F80
1F00
0000
0E00
0E00
0E00
0E00
0E00
0E00
0E00
0E00
0E00
0E00
0E00
0E00
0E00
0E00
0E00
0E00
0E00
0E00
0E00
0E00
0E00
0E00
0E00
0E00
0E00
0E00
ENDCHAR
STARTCHAR ibreve
ENCODING 301
SWIDTH 234 0
DWIDTH 8 0
BBX 10 26 -1 0
BITMAP
C0C0
E1C0
E1C0
7F80
3E00
0000
0000
0E00
0E00
0E00
0E00
0E00
0E00
0E00
0E00
0E00
0E00
0E00
0E00
0E00
0E00
0E00
0E00
0E00
0E00
0E00
ENDCHAR
STARTCHAR Iogonek
ENCODING 302
SWIDTH 250 0
DWIDTH 9 0
BBX 5 33 1 -7
BITMAP
38
38
38
38
38
38
38
38
38
38
38
38
38
38
38
38
38
38
38
38
38
38
38
38
38
38
70
E0
E0
C0
C0
F8
78
ENDCHAR
STARTCHAR iogonek
ENCODING 303
SWIDTH 229 0
DWIDTH 8 0
BBX 6 33 0 -7
BITMAP
18
3C
3C
18
00
00
00
3C
3C
3C
3C
3C
3C
3C
3C
3C
3C
3C
3C
3C
3C
3C
3C
3C
3C
3C
38
70
E0
E0
E0
7C
78
ENDCHAR
STARTCHAR Idotaccent
ENCODING 304
SWIDTH 250 0
DWIDTH 9 0
BBX 4 32 3 0
BITMAP
E0
E0
F0
E0
00
00
E0
E0
E0
E0
E0
E0
E0
E0
E0
E0
E0
E0
E0
E0
E0
E0
E0
E0
E0
E0
E0
E0
E0
E0
E0
E0
ENDCHAR
STARTCHAR dotlessi
ENCODING 305
SWIDTH 234 0
DWIDTH 8 0
BBX 3 19 3 0
BITMAP
E0
E0
E0
E0
E0
E0
E0
E0
E0
E0
E0
E0
E0
E0
E0
E0
E0
E0
E0
ENDCHAR
STARTCHAR IJ
ENCODING 306
SWIDTH 733 0
DWIDTH 26 0
BBX 21 26 3 0
BITMAP
E00038
E00038
E00038
E00038
E00038
E00038
E00038
E00038
E00038
E00038
E00038
E00038
E00038
E00038
E00038
E00038
E00038
E00038
E00038
E1C078
E1E078
E1E070
E0F0F0
E0FFE0
E07FC0
E01F80
ENDCHAR
STARTCHAR ij
ENCODING 307
SWIDTH 452 0
DWIDTH 16 0
BBX 12 33 2 -7
BITMAP
6060
F0F0
F0F0
6060
0000
0000
0000
F070
F070
F070
F070
F070
F070
F070
F070
F070
F070
F070
F070
F070
F070
F070
F070
F070
F070
F070
0070
0070
0070
00F0
03E0
03E0
03C0
ENDCHAR
STARTCHAR Jcircumflex
ENCODING 308
SWIDTH 483 0
DWIDTH 17 0
BBX 16 33 1 0
BITMAP
0038
003C
006E
00E7
01C3
0000
0000
001C
001C
001C
001C
001C
001C
001C
001C
001C
001C
001C
001C
001C
001C
001C
001C
001C
001C
001C
E03C
F03C
F038
7878
7FF0
3FE0
0FC0
ENDCHAR
STARTCHAR jcircumflex
ENCODING 309
SWIDTH 237 0
DWIDTH 9 0
BBX 10 34 -1 -7
BITMAP
0E00
1F00
3B00
3380
71C0
0000
0000
0000
0E00
0E00
0E00
0E00
0E00
0E00
0E00
0E00
0E00
0E00
0E00
0E00
0E00
0E00
0E00
0E00
0E00
0E00
0E00
0E00
0E00
0E00
1E00
7C00
7C00
F000
ENDCHAR
STARTCHAR uni0136
ENCODING 310
SWIDTH 544 0
DWIDTH 20 0
BBX 17 34 3 -8
BITMAP
E00F00
E01E00
E03C00
E03C00
E07800
E0F000
E0E000
E1E000
E3C000
E78000
E70000
EF0000
FF0000
FF8000
FBC000
F9C000
F1E000
E0E000
E0F000
E07800
E03800
E03C00
E01E00
E01E00
E00F00
E00700
000080
070000
070000
070000
070000
070000
0E0000
060000
ENDCHAR
STARTCHAR uni0137
ENCODING 311
SWIDTH 450 0
DWIDTH 16 0
BBX 14 35 2 -8
BITMAP
E000
E000
E000
E000
E000
E000
E000
E000
E078
E0F0
E1E0
E1C0
E3C0
E780
E700
EE00
FE00
FF00
FF80
F380
E3C0
E1C0
E1E0
E0F0
E070
E078
E038
0004
0E00
0E00
0E00
0E00
0E00
1C00
0C00
ENDCHAR
STARTCHAR kgreenlandic
ENCODING 312
SWIDTH 491 0
DWIDTH 18 0
BBX 14 19 3 0
BITMAP
E078
E0F0
E0E0
E1E0
E3C0
E380
E700
EF00
FE00
FE00
FE00
EF00
E780
E3C0
E3C0
E1E0
E0F0
E078
E07C
ENDCHAR
STARTCHAR Lacute
ENCODING 313
SWIDTH 475 0
DWIDTH 17 0
BBX 13 33 3 0
BITMAP
1E00
3800
7800
F000
E000
0000
0000
E000
E000
E000
E000
E000
E000
E000
E000
E000
E000
E000
E000
E000
E000
E000
E000
E000
E000
E000
E000
E000
E000
E000
FFF8
FFF8
FFF8
ENDCHAR
STARTCHAR lacute
ENCODING 314
SWIDTH 229 0
DWIDTH 8 0
BBX 8 34 2 0
BITMAP
1F
1C
38
70
E0
00
00
70
70
70
70
70
70
70
70
70
70
70
70
70
70
70
70
70
70
70
70
70
70
70
70
70
70
70
ENDCHAR
STARTCHAR uni013B
ENCODING 315
SWIDTH 475 0
DWIDTH 17 0
BBX 13 35 3 -9
BITMAP
E000
E000
E000
E000
E000
E000
E000
E000
E000
E000
E000
E000
E000
E000
E000
E000
E000
E000
E000
E000
E000
E000
E000
FFF8
FFF8
FFF8
0000
0000
0700
0700
0700
0E00
0E00
0E00
0400
ENDCHAR
STARTCHAR uni013C
ENCODING 316
SWIDTH 229 0
DWIDTH 8 0
BBX 5 36 1 -9
BITMAP
38
38
38
38
38
38
38
38
38
38
38
38
38
38
38
38
38
38
38
38
38
38
38
38
38
38
38
00
00
70
70
70
70
70
E0
60
ENDCHAR
STARTCHAR Lcaron
ENCODING 317
SWIDTH 475 0
DWIDTH 17 0
BBX 13 26 3 0
BITMAP
E1C0
E1C0
E380
E380
E380
E300
E700
E000
E000
E000
E000
E000
E000
E000
E000
E000
E000
E000
E000
E000
E000
E000
E000
FFF8
FFF8
FFF8
ENDCHAR
STARTCHAR lcaron
ENCODING 318
SWIDTH 302 0
DWIDTH 11 0
BBX 8 27 3 0
BITMAP
E7
E7
E7
EE
EE
EE
E4
E0
E0
E0
E0
E0
E0
E0
E0
E0
E0
E0
E0
E0
E0
E0
E0
E0
E0
E0
E0
ENDCHAR
STARTCHAR Ldot
ENCODING 319
SWIDTH 475 0
DWIDTH 17 0
BBX 13 26 3 0
BITMAP
E000
E000
E000
E000
E000
E000
E000
E000
E000
E000
E180
E3C0
E3C0
E180
E000
E000
E000
E000
E000
E000
E000
E000
E000
FFF8
FFF8
FFF8
ENDCHAR
STARTCHAR ldot
ENCODING 320
SWIDTH 336 0
DWIDTH 12 0
BBX 8 27 3 0
BITMAP
E0
E0
E0
E0
E0
E0
E0
E0
E0
E0
E0
E7
EF
EF
E7
E0
E0
E0
E0
E0
E0
E0
E0
E0
E0
E0
E0
ENDCHAR
STARTCHAR Lslash
ENCODING 321
SWIDTH 475 0
DWIDTH 17 0
BBX 15 26 1 0
BITMAP
3800
3800
3800
3800
3800
3800
3800
3800
3800
3980
3F80
3F80
FE00
F800
F800
3800
3800
3800
3800
3800
3800
3800
3800
3FFE
3FFE
3FFE
ENDCHAR
STARTCHAR lslash
ENCODING 322
SWIDTH 250 0
DWIDTH 9 0
BBX 7 27 1 0
BITMAP
38
38
38
38
38
38
38
38
38
38
38
3A
3E
3E
FC
F8
F8
38
38
38
38
38
38
38
38
38
38
ENDCHAR
STARTCHAR Nacute
ENCODING 323
SWIDTH 619 0
DWIDTH 22 0
BBX 16 33 3 0
BITMAP
007C
0070
00E0
01C0
0380
0000
0000
E007
F007
F007
F807
F807
FC07
FC07
EE07
EE07
E707
E707
E387
E387
E1C7
E1C7
E0E7
E0E7
E077
E077
E03F
E03F
E01F
E01F
E00F
E00F
E007
ENDCHAR
STARTCHAR nacute
ENCODING 324
SWIDTH 483 0
DWIDTH 17 0
BBX 13 26 2 0
BITMAP
00F0
01E0
03C0
0380
0700
0000
0000
E7C0
EFE0
FFF0
F870
F078
E038
E038
E038
E038
E038
E038
E038
E038
E038
E038
E038
E038
E038
E038
ENDCHAR
STARTCHAR uni0145
ENCODING 325
SWIDTH 619 0
DWIDTH 22 0
BBX 16 35 3 -9
BITMAP
E007
F007
F007
F807
F807
FC07
FC07
EE07
EE07
E707
E707
E387
E387
E1C7
E1C7
E0E7
E0E7
E077
E077
E03F
E03F
E01F
E01F
E00F
E00F
E007
0000
0000
0380
0380
0380
0380
0380
0700
0200
ENDCHAR
STARTCHAR uni0146
ENCODING 326
SWIDTH 483 0
DWIDTH 17 0
BBX 13 28 2 -9
BITMAP
E7C0
EFE0
FFF0
F870
F078
E038
E038
E038
E038
E038
E038
E038
E038
E038
E038
E038
E038
E038
E038
0000
0000
0700
0700
0700
0700
0E00
0E00
0400
ENDCHAR
STARTCHAR Ncaron
ENCODING 327
SWIDTH 619 0
DWIDTH 22 0
BBX 16 33 3 0
BITMAP
1C38
0E70
07E0
03C0
0180
0000
0000
E007
F007
F007
F807
F807
FC07
FC07
EE07
EE07
E707
E707
E387
E387
E1C7
E1C7
E0E7
E0E7
E077
E077
E03F
E03F
E01F
E01F
E00F
E00F
E007
ENDCHAR
STARTCHAR ncaron
ENCODING 328
SWIDTH 483 0
DWIDTH 17 0
BBX 13 27 2 0
BITMAP
3870
1CC0
0DC0
0780
0700
0000
0000
0000
E7C0
EFE0
FFF0
F870
F078
E038
E038
E038
E038
E038
E038
E038
E038
E038
E038
E038
E038
E038
E038
ENDCHAR
STARTCHAR napostrophe
ENCODING 329
SWIDTH 483 0
DWIDTH 17 0
BBX 16 27 -1 0
BITMAP
7000
7000
7000
7000
6000
E000
4000
0000
1CF8
1DFC
1FFE
1F0E
1E0F
1C07
1C07
1C07
1C07
1C07
1C07
1C07
1C07
1C07
1C07
1C07
1C07
1C07
1C07
ENDCHAR
STARTCHAR Eng
ENCODING 330
SWIDTH 599 0
DWIDTH 22 0
BBX 16 33 3 -7
BITMAP
E007
F007
F007
F807
F807
FC07
FC07
EE07
EE07
E707
E707
E387
E387
E1C7
E1E7
E0E7
E0F7
E077
E03F
E03F
E01F
E01F
E00F
E00F
E007
E007
0007
0007
0007
000F
003F
003E
003C
ENDCHAR
STARTCHAR eng
ENCODING 331
SWIDTH 498 0
DWIDTH 18 0
BBX 13 26 2 -7
BITMAP
E3C0
EFF0
EFF0
F878
F038
F038
F038
F038
F038
F038
F038
F038
F038
F038
F038
F038
F038
F038
F038
0038
0038
0038
0038
01F8
01F0
01E0
ENDCHAR
STARTCHAR Omacron
ENCODING 332
SWIDTH 600 0
DWIDTH 22 0
BBX 18 31 2 0
BITMAP
0FFC00
0FFC00
0FFC00
000000
000000
03F000
0FFC00
1FFE00
3E1F00
380700
780780
700380
700380
700380
F003C0
F003C0
F003C0
F003C0
F003C0
F003C0
F003C0
F003C0
F00380
700380
700380
780780
380700
3E1F00
1FFE00
0FFC00
03F000
ENDCHAR
STARTCHAR omacron
ENCODING 333
SWIDTH 501 0
DWIDTH 18 0
BBX 14 25 2 0
BITMAP
3FF0
3FF0
3FF0
0000
0000
0000
0FC0
1FE0
7FF0
7878
F03C
E01C
E01C
E01C
E01C
E01C
E01C
E01C
E01C
E01C
F03C
7878
7FF0
3FE0
0FC0
ENDCHAR
STARTCHAR Obreve
ENCODING 334
SWIDTH 600 0
DWIDTH 22 0
BBX 18 32 2 0
BITMAP
1C1C00
0C1C00
0E3800
07F800
03E000
000000
03F000
0FFC00
1FFE00
3E1F00
380700
780780
700380
700380
700380
F003C0
F003C0
F003C0
F003C0
F003C0
F003C0
F003C0
F003C0
F00380
700380
700380
780780
380700
3E1F00
1FFE00
0FFC00
03F000
ENDCHAR
STARTCHAR obreve
ENCODING 335
SWIDTH 501 0
DWIDTH 18 0
BBX 14 26 2 0
BITMAP
7070
3070
38E0
1FE0
0F80
0000
0000
0FC0
1FE0
7FF0
7878
F03C
E01C
E01C
E01C
E01C
E01C
E01C
E01C
E01C
E01C
F03C
7878
7FF0
3FE0
0FC0
ENDCHAR
STARTCHAR Ohungarumlaut
ENCODING 336
SWIDTH 600 0
DWIDTH 22 0
BBX 18 33 2 0
BITMAP
01EF00
01DE00
039C00
033800
077000
000000
000000
03F000
0FFC00
1FFE00
3E1F00
380700
780780
700380
700380
700380
F003C0
F003C0
F003C0
F003C0
F003C0
F003C0
F003C0
F003C0
F00380
700380
700380
780780
380700
3E1F00
1FFE00
0FFC00
03F000
ENDCHAR
STARTCHAR ohungarumlaut
ENCODING 337
SWIDTH 501 0
DWIDTH 18 0
BBX 14 26 2 0
BITMAP
07BC
0778
0E70
0CE0
1DC0
0000
0000
0FC0
1FE0
7FF0
7878
F03C
E01C
E01C
E01C
E01C
E01C
E01C
E01C
E01C
E01C
F03C
7878
7FF0
3FE0
0FC0
ENDCHAR
STARTCHAR OE
ENCODING 338
SWIDTH 826 0
DWIDTH 30 0
BBX 25 26 2 0
BITMAP
03FFFF80
0FFFFF80
1FFFFF80
3C1E0000
781E0000
701E0000
F01E0000
E01E0000
E01E0000
E01E0000
E01E0000
E01FFF00
E01FFF00
E01FFF00
E01E0000
E01E0000
E01E0000
E01E0000
E01E0000
F01E0000
701E0000
781E0000
3C1E0000
1FFFFF80
0FFFFF80
07FFFF80
ENDCHAR
STARTCHAR oe
ENCODING 339
SWIDTH 777 0
DWIDTH 28 0
BBX 25 19 2 0
BITMAP
0FC0F800
1FE3FC00
3FF7FE00
787F8F00
703F0700
F03E0700
E01E0700
E01E0380
E01FFF80
E01FFF80
E01FFF80
E01C0000
E01C0000
F03E0000
703E0000
787F8600
3FF7FF00
1FE3FE00
0FC0FC00
ENDCHAR
STARTCHAR Racute
ENCODING 340
SWIDTH 530 0
DWIDTH 19 0
BBX 15 33 3 0
BITMAP
00F0
01C0
03C0
0780
0700
0000
0000
FFC0
FFF0
FFF8
E07C
E03C
E01C
E01C
E01C
E01E
E01C
E01C
E03C
E078
FFF8
FFF0
FFE0
E0E0
E0F0
E070
E078
E078
E038
E03C
E01C
E01E
E00E
ENDCHAR
STARTCHAR racute
ENCODING 341
SWIDTH 304 0
DWIDTH 11 0
BBX 10 26 2 0
BITMAP
03C0
0700
0F00
1E00
1C00
0000
0000
E700
EF00
FF00
F800
F000
E000
E000
E000
E000
E000
E000
E000
E000
E000
E000
E000
E000
E000
E000
ENDCHAR
STARTCHAR uni0156
ENCODING 342
SWIDTH 530 0
DWIDTH 19 0
BBX 15 35 3 -9
BITMAP
FFC0
FFF0
FFF8
E07C
E03C
E01C
E01C
E01C
E01E
E01C
E01C
E03C
E078
FFF8
FFF0
FFE0
E0E0
E0F0
E070
E078
E078
E038
E03C
E01C
E01E
E00E
0000
0000
0700
0700
0600
0E00
0E00
0C00
0400
ENDCHAR
STARTCHAR uni0157
ENCODING 343
SWIDTH 304 0
DWIDTH 11 0
BBX 9 28 1 -9
BITMAP
7380
7780
7F80
7C00
7800
7000
7000
7000
7000
7000
7000
7000
7000
7000
7000
7000
7000
7000
7000
0000
0000
7000
7000
7000
7000
7000
E000
4000
ENDCHAR
STARTCHAR Rcaron
ENCODING 344
SWIDTH 530 0
DWIDTH 19 0
BBX 15 33 3 0
BITMAP
38E0
19C0
1D80
0F00
0700
0000
0000
FFC0
FFF0
FFF8
E07C
E03C
E01C
E01C
E01C
E01E
E01C
E01C
E03C
E078
FFF8
FFF0
FFE0
E0E0
E0F0
E070
E078
E078
E038
E03C
E01C
E01E
E00E
ENDCHAR
STARTCHAR rcaron
ENCODING 345
SWIDTH 304 0
DWIDTH 11 0
BBX 9 27 2 0
BITMAP
E380
6700
7600
3C00
1C00
0000
0000
0000
E700
EF00
FF00
F800
F000
E000
E000
E000
E000
E000
E000
E000
E000
E000
E000
E000
E000
E000
E000
ENDCHAR
STARTCHAR Sacute
ENCODING 346
SWIDTH 518 0
DWIDTH 19 0
BBX 15 33 2 0
BITMAP
0078
00F0
01E0
03C0
0380
0000
0000
07C0
1FF0
3FF8
783C
701E
F00E
F00E
F00E
F000
7800
7C00
3F00
1FE0
07F8
00FC
003C
001E
000E
E00E
E00E
E00E
F01E
783E
3FFC
1FF8
07E0
ENDCHAR
STARTCHAR sacute
ENCODING 347
SWIDTH 455 0
DWIDTH 16 0
BBX 12 26 2 0
BITMAP
00F0
01E0
03C0
0380
0700
0000
0000
1F80
3FE0
7FE0
F0F0
E070
E070
F000
7C00
3F00
1FC0
07E0
01F0
0070
E070
E070
F0F0
7FF0
3FE0
1F80
ENDCHAR
STARTCHAR Scircumflex
ENCODING 348
SWIDTH 518 0
DWIDTH 19 0
BBX 15 33 2 0
BITMAP
0380
07C0
0EE0
0C60
1C70
0000
0000
07C0
1FF0
3FF8
783C
701E
F00E
F00E
F00E
F000
7800
7C00
3F00
1FE0
07F8
00FC
003C
001E
000E
E00E
E00E
E00E
F01E
783E
3FFC
1FF8
07E0
ENDCHAR
STARTCHAR scircumflex
ENCODING 349
SWIDTH 455 0
DWIDTH 16 0
BBX 12 27 2 0
BITMAP
0700
0780
0DC0
1CE0
3860
0000
0000
0000
1F80
3FE0
7FE0
F0F0
E070
E070
F000
7C00
3F00
1FC0
07E0
01F0
0070
E070
E070
F0F0
7FF0
3FE0
1F80
ENDCHAR
STARTCHAR Scedilla
ENCODING 350
SWIDTH 518 0
DWIDTH 19 0
BBX 15 33 2 -7
BITMAP
07C0
1FF0
3FF8
783C
701E
F00E
F00E
F00E
F000
7800
7C00
3F00
1FE0
07F8
00FC
003C
001E
000E
E00E
E00E
E00E
F01E
783E
3FFC
1FF8
07E0
0380
03C0
00C0
00E0
00E0
03C0
0380
ENDCHAR
STARTCHAR scedilla
ENCODING 351
SWIDTH 455 0
DWIDTH 16 0
BBX 12 26 2 -7
BITMAP
1F80
3FE0
7FE0
F0F0
E070
E070
F000
7C00
3F00
1FC0
07E0
01F0
0070
E070
E070
F0F0
7FF0
3FE0
1F80
0300
0780
01C0
01C0
01C0
0780
0700
ENDCHAR
STARTCHAR Scaron
ENCODING 352
SWIDTH 518 0
DWIDTH 19 0
BBX 15 33 2 0
BITMAP
1C70
0C60
06C0
07C0
0380
0000
0000
07C0
1FF0
3FF8
783C
701E
F00E
F00E
F00E
F000
7800
7C00
3F00
1FE0
07F8
00FC
003C
001E
000E
E00E
E00E
E00E
F01E
783E
3FFC
1FF8
07E0
ENDCHAR
STARTCHAR scaron
ENCODING 353
SWIDTH 455 0
DWIDTH 16 0
BBX 12 27 2 0
BITMAP
3870
1CC0
0DC0
0780
0700
0000
0000
0000
1F80
3FE0
7FE0
F0F0
E070
E070
F000
7C00
3F00
1FC0
07E0
01F0
0070
E070
E070
F0F0
7FF0
3FE0
1F80
ENDCHAR
STARTCHAR uni0162
ENCODING 354
SWIDTH 520 0
DWIDTH 19 0
BBX 17 33 1 -7
BITMAP
FFFF80
FFFF80
FFFF80
01C000
01C000
01C000
01C000
01C000
01C000
01C000
01C000
01C000
01C000
01C000
01C000
01C000
01C000
01C000
01C000
01C000
01C000
01C000
01C000
01C000
01C000
01C000
018000
01C000
006000
006000
006000
01E000
01C000
ENDCHAR
STARTCHAR uni0163
ENCODING 355
SWIDTH 295 0
DWIDTH 11 0
BBX 9 31 1 -7
BITMAP
3C00
3C00
3C00
3C00
3C00
FF00
FF00
FF00
3C00
3C00
3C00
3C00
3C00
3C00
3C00
3C00
3C00
3C00
3C00
3C00
1C00
1F00
1F00
0F00
0600
0700
0380
0180
0380
0780
0600
ENDCHAR
STARTCHAR Tcaron
ENCODING 356
SWIDTH 520 0
DWIDTH 19 0
BBX 17 33 1 0
BITMAP
0E3800
067000
076000
03C000
01C000
000000
000000
FFFF80
FFFF80
FFFF80
01C000
01C000
01C000
01C000
01C000
01C000
01C000
01C000
01C000
01C000
01C000
01C000
01C000
01C000
01C000
01C000
01C000
01C000
01C000
01C000
01C000
01C000
01C000
ENDCHAR
STARTCHAR tcaron
ENCODING 357
SWIDTH 314 0
DWIDTH 11 0
BBX 11 29 1 0
BITMAP
00E0
00E0
00E0
01C0
01C0
3DC0
3C80
3C00
3C00
3C00
FF00
FF00
FF00
3C00
3C00
3C00
3C00
3C00
3C00
3C00
3C00
3C00
3C00
3C00
3C00
1C00
1F00
1F00
0F00
ENDCHAR
STARTCHAR Tbar
ENCODING 358
SWIDTH 520 0
DWIDTH 19 0
BBX 17 26 1 0
BITMAP
FFFF80
FFFF80
FFFF80
01C000
01C000
01C000
01C000
01C000
01C000
0FF800
0FF800
0FF800
01C000
01C000
01C000
01C000
01C000
01C000
01C000
01C000
01C000
01C000
01C000
01C000
01C000
01C000
ENDCHAR
STARTCHAR tbar
ENCODING 359
SWIDTH 295 0
DWIDTH 11 0
BBX 10 24 0 0
BITMAP
1C00
1C00
1C00
1C00
1C00
FF80
FF80
FF80
1C00
1C00
1C00
FFC0
FFC0
FFC0
1C00
1C00
1C00
1C00
1C00
1C00
1E00
0F80
0F80
0780
ENDCHAR
STARTCHAR Utilde
ENCODING 360
SWIDTH 561 0
DWIDTH 20 0
BBX 16 32 2 0
BITMAP
0E18
1F98
19F8
1870
0000
0000
E007
E007
E007
E007
E007
E007
E007
E007
E007
E007
E007
E007
E007
E007
E007
E007
E007
E007
E007
E007
F00F
700E
7C1E
3FFC
1FF8
07E0
ENDCHAR
STARTCHAR utilde
ENCODING 361
SWIDTH 483 0
DWIDTH 17 0
BBX 13 26 2 0
BITMAP
1C30
3E70
33E0
61C0
0000
0000
0000
E038
E038
E038
E038
E038
E038
E038
E038
E038
E038
E038
E038
E038
E038
F078
70F8
7FF8
3FB8
1F38
ENDCHAR
STARTCHAR Umacron
ENCODING 362
SWIDTH 561 0
DWIDTH 20 0
BBX 16 31 2 0
BITMAP
1FF8
1FF8
1FF8
0000
0000
E007
E007
E007
E007
E007
E007
E007
E007
E007
E007
E007
E007
E007
E007
E007
E007
E007
E007
E007
E007
F00F
700E
7C1E
3FFC
1FF8
07E0
ENDCHAR
STARTCHAR umacron
ENCODING 363
SWIDTH 483 0
DWIDTH 17 0
BBX 13 25 2 0
BITMAP
3FF0
3FF0
3FF0
0000
0000
0000
E038
E038
E038
E038
E038
E038
E038
E038
E038
E038
E038
E038
E038
E038
F078
70F8
7FF8
3FB8
1F38
ENDCHAR
STARTCHAR Ubreve
ENCODING 364
SWIDTH 561 0
DWIDTH 20 0
BBX 16 32 2 0
BITMAP
1818
1C38
1C38
0FF0
07C0
0000
E007
E007
E007
E007
E007
E007
E007
E007
E007
E007
E007
E007
E007
E007
E007
E007
E007
E007
E007
E007
F00F
700E
7C1E
3FFC
1FF8
07E0
ENDCHAR
STARTCHAR ubreve
ENCODING 365
SWIDTH 483 0
DWIDTH 17 0
BBX 13 26 2 0
BITMAP
7070
7070
38E0
1FC0
0F80
0000
0000
E038
E038
E038
E038
E038
E038
E038
E038
E038
E038
E038
E038
E038
E038
F078
70F8
7FF8
3FB8
1F38
ENDCHAR
STARTCHAR Uring
ENCODING 366
SWIDTH 561 0
DWIDTH 20 0
BBX 16 35 2 0
BITMAP
03C0
07E0
0C30
0C30
0C30
07E0
03C0
0000
0000
E007
E007
E007
E007
E007
E007
E007
E007
E007
E007
E007
E007
E007
E007
E007
E007
E007
E007
E007
E007
F00F
700E
7C1E
3FFC
1FF8
07E0
ENDCHAR
STARTCHAR uring
ENCODING 367
SWIDTH 483 0
DWIDTH 17 0
BBX 13 28 2 0
BITMAP
0780
0FC0
18C0
1840
18C0
1FC0
0780
0000
0000
E038
E038
E038
E038
E038
E038
E038
E038
E038
E038
E038
E038
E038
E038
F078
70F8
7FF8
3FB8
1F38
ENDCHAR
STARTCHAR Uhungarumlaut
ENCODING 368
SWIDTH 561 0
DWIDTH 20 0
BBX 16 33 2 0
BITMAP
03DE
039C
0738
0770
0E70
0000
0000
E007
E007
E007
E007
E007
E007
E007
E007
E007
E007
E007
E007
E007
E007
E007
E007
E007
E007
E007
E007
F00F
700E
7C1E
3FFC
1FF8
07E0
ENDCHAR
STARTCHAR uhungarumlaut
ENCODING 369
SWIDTH 483 0
DWIDTH 17 0
BBX 14 26 2 0
BITMAP
073C
0E78
0E70
1CE0
1DC0
0000
0000
E038
E038
E038
E038
E038
E038
E038
E038
E038
E038
E038
E038
E038
E038
F078
70F8
7FF8
3FB8
1F38
ENDCHAR
STARTCHAR Uogonek
ENCODING 370
SWIDTH 561 0
DWIDTH 20 0
BBX 16 33 2 -7
BITMAP
E007
E007
E007
E007
E007
E007
E007
E007
E007
E007
E007
E007
E007
E007
E007
E007
E007
E007
E007
E007
F00F
700E
7C1E
3FFC
1FF8
07E0
00E0
01C0
01C0
01C0
01C0
01F0
00F0
ENDCHAR
STARTCHAR uogonek
ENCODING 371
SWIDTH 483 0
DWIDTH 17 0
BBX 13 26 2 -7
BITMAP
E038
E038
E038
E038
E038
E038
E038
E038
E038
E038
E038
E038
E038
E038
F078
70F8
7FF8
3FB8
1F38
0070
00E0
00E0
00C0
00C0
00F8
0078
ENDCHAR
STARTCHAR Wcircumflex
ENCODING 372
SWIDTH 761 0
DWIDTH 27 0
BBX 25 33 1 0
BITMAP
000C0000
001E0000
003F0000
00738000
00E1C000
00000000
00000000
F01C0380
701E0380
701E0380
701E0380
701E0780
703E0700
383F0700
383F0700
38330700
38730700
38738E00
3C738E00
1C638E00
1C618E00
1CE18E00
1CE1CC00
1CC1DC00
0EC0DC00
0FC0DC00
0FC0FC00
0FC0F800
0F80F800
07807800
07807800
07807800
07007000
ENDCHAR
STARTCHAR wcircumflex
ENCODING 373
SWIDTH 649 0
DWIDTH 23 0
BBX 21 27 1 0
BITMAP
007000
00F800
00DC00
01CE00
038E00
000000
000000
000000
E07038
E07038
E07038
70F870
70F870
70F870
71D870
71DC60
39DCE0
398CE0
3B8CE0
3B8EC0
1F8FC0
1F07C0
1F07C0
1F0780
0E0780
0E0380
0E0380
ENDCHAR
STARTCHAR Ycircumflex
ENCODING 374
SWIDTH 524 0
DWIDTH 19 0
BBX 17 33 1 0
BITMAP
01C000
03E000
077000
063000
0E3800
000000
000000
E00780
F00780
700700
780F00
380E00
381E00
3C1C00
1C1C00
1E3C00
0E3800
0E7800
077000
077000
03E000
03E000
03C000
01C000
01C000
01C000
01C000
01C000
01C000
01C000
01C000
01C000
01C000
ENDCHAR
STARTCHAR ycircumflex
ENCODING 375
SWIDTH 416 0
DWIDTH 15 0
BBX 13 34 1 -7
BITMAP
0700
0780
0DC0
1CE0
3860
0000
0000
0000
E038
E038
F078
7070
7070
7070
38E0
38E0
38E0
18E0
1DC0
1DC0
1DC0
0F80
0F80
0F80
0700
0700
0700
0700
0E00
0E00
1E00
7C00
7800
7000
ENDCHAR
STARTCHAR Ydieresis
ENCODING 376
SWIDTH 524 0
DWIDTH 19 0
BBX 17 32 1 0
BITMAP
1C1C00
1E3C00
1E3C00
1C1C00
000000
000000
E00780
F00780
700700
780F00
380E00
381E00
3C1C00
1C1C00
1E3C00
0E3800
0E7800
077000
077000
03E000
03E000
03C000
01C000
01C000
01C000
01C000
01C000
01C000
01C000
01C000
01C000
01C000
ENDCHAR
STARTCHAR Zacute
ENCODING 377
SWIDTH 522 0
DWIDTH 19 0
BBX 15 33 2 0
BITMAP
0078
00F0
01E0
03C0
0380
0000
0000
FFFE
FFFE
FFFE
001C
003C
0038
0078
0070
00F0
01E0
01C0
03C0
0380
0780
0700
0F00
1E00
1C00
3C00
3800
7800
7000
E000
FFFE
FFFE
FFFE
ENDCHAR
STARTCHAR zacute
ENCODING 378
SWIDTH 438 0
DWIDTH 16 0
BBX 12 26 2 0
BITMAP
01E0
03C0
0380
0700
0E00
0000
0000
FFF0
FFF0
FFF0
00E0
01E0
01C0
0380
0780
0700
0E00
1E00
1C00
3C00
7800
7000
F000
FFF0
FFF0
FFF0
ENDCHAR
STARTCHAR Zdotaccent
ENCODING 379
SWIDTH 522 0
DWIDTH 19 0
BBX 15 32 2 0
BITMAP
0380
0380
03C0
0380
0000
0000
FFFE
FFFE
FFFE
001C
003C
0038
0078
0070
00F0
01E0
01C0
03C0
0380
0780
0700
0F00
1E00
1C00
3C00
3800
7800
7000
E000
FFFE
FFFE
FFFE
ENDCHAR
STARTCHAR zdotaccent
ENCODING 380
SWIDTH 438 0
DWIDTH 16 0
BBX 12 26 2 0
BITMAP
0600
0F00
0F00
0600
0000
0000
0000
FFF0
FFF0
FFF0
00E0
01E0
01C0
0380
0780
0700
0E00
1E00
1C00
3C00
7800
7000
F000
FFF0
FFF0
FFF0
ENDCHAR
STARTCHAR Zcaron
ENCODING 381
SWIDTH 522 0
DWIDTH 19 0
BBX 15 33 2 0
BITMAP
1C70
0C60
06C0
07C0
0380
0000
0000
FFFE
FFFE
FFFE
001C
003C
0038
0078
0070
00F0
01E0
01C0
03C0
0380
0780
0700
0F00
1E00
1C00
3C00
3800
7800
7000
E000
FFFE
FFFE
FFFE
ENDCHAR
STARTCHAR zcaron
ENCODING 382
SWIDTH 438 0
DWIDTH 16 0
BBX 12 27 2 0
BITMAP
70E0
39C0
1F80
0F00
0600
0000
0000
0000
FFF0
FFF0
FFF0
00E0
01E0
01C0
0380
0780
0700
0E00
1E00
1C00
3C00
7800
7000
F000
FFF0
FFF0
FFF0
ENDCHAR
STARTCHAR longs
ENCODING 383
SWIDTH 234 0
DWIDTH 8 0
BBX 8 27 2 0
BITMAP
1F
3F
7E
78
70
F0
F0
F0
F0
F0
F0
F0
F0
F0
F0
F0
F0
F0
F0
F0
F0
F0
F0
F0
F0
F0
F0
ENDCHAR
STARTCHAR uni018F
ENCODING 399
SWIDTH 597 0
DWIDTH 22 0
BBX 18 26 2 0
BITMAP
0FE000
3FF800
3FFC00
383E00
000F00
000700
000780
000380
000380
000380
0003C0
0003C0
FFFFC0
FFFFC0
FFFFC0
E003C0
E00380
E00380
E00380
F00780
700700
780F00
3C1E00
1FFC00
0FF800
03E000
ENDCHAR
STARTCHAR florin
ENCODING 402
SWIDTH 309 0
DWIDTH 11 0
BBX 11 34 0 -7
BITMAP
03E0
07E0
0FC0
0E00
0E00
1E00
1E00
1E00
7F80
7F80
1E00
1E00
1E00
1E00
1E00
1E00
1E00
1E00
1E00
1E00
1E00
1E00
1E00
1E00
1E00
1E00
1E00
1E00
1E00
1C00
1C00
FC00
F800
F000
ENDCHAR
STARTCHAR Ohorn
ENCODING 416
SWIDTH 592 0
DWIDTH 21 0
BBX 19 28 2 0
BITMAP
000060
0000E0
03E0E0
0FF8E0
1FFDE0
3C3FC0
780F80
700F00
F00700
E00700
E00780
E00380
E00380
E00380
E00380
E00380
E00380
E00380
E00380
E00780
E00780
F00700
700F00
780E00
3C3E00
1FFC00
0FF800
03E000
ENDCHAR
STARTCHAR ohorn
ENCODING 417
SWIDTH 502 0
DWIDTH 18 0
BBX 16 21 2 0
BITMAP
0003
0003
0FC3
1FE7
3FFE
787C
7038
E03C
E01C
E01C
E01C
E01C
E01C
E01C
E01C
E03C
7038
7878
3FF0
1FE0
0FC0
ENDCHAR
STARTCHAR Uhorn
ENCODING 431
SWIDTH 608 0
DWIDTH 22 0
BBX 22 27 2 0
BITMAP
00001C
F0071C
F0071C
F00738
F00738
F007F0
F007C0
F00700
F00700
F00700
F00700
F00700
F00700
F00700
F00700
F00700
F00700
F00700
F00700
F00700
F00700
700F00
780E00
3C3E00
3FFC00
1FF800
07E000
ENDCHAR
STARTCHAR uhorn
ENCODING 432
SWIDTH 549 0
DWIDTH 20 0
BBX 18 21 2 0
BITMAP
0000C0
0000C0
E039C0
E03980
E03F80
E03F00
E03800
E03800
E03800
E03800
E03800
E03800
E03800
E03800
E03800
F03800
707800
78F800
7FF800
3FF800
1F3800
ENDCHAR
STARTCHAR uni01F0
ENCODING 496
SWIDTH 237 0
DWIDTH 9 0
BBX 10 34 -1 -7
BITMAP
71C0
3380
1B00
1F00
0E00
0000
0000
0000
0E00
0E00
0E00
0E00
0E00
0E00
0E00
0E00
0E00
0E00
0E00
0E00
0E00
0E00
0E00
0E00
0E00
0E00
0E00
0E00
0E00
0E00
1E00
7C00
7C00
F000
ENDCHAR
STARTCHAR Aringacute
ENCODING 506
SWIDTH 576 0
DWIDTH 21 0
BBX 19 34 1 0
BITMAP
003C00
003000
006000
000000
00E000
01F000
019000
019000
01F000
00E000
01F000
01F000
01F000
03B800
03B800
03B800
071C00
071C00
071C00
0E0E00
0E0E00
0E0E00
0C0600
1C0700
1FFF00
1FFF00
3FFF80
380380
380380
7001C0
7001C0
7001C0
F001E0
E000E0
ENDCHAR
STARTCHAR aringacute
ENCODING 507
SWIDTH 479 0
DWIDTH 17 0
BBX 13 29 2 0
BITMAP
00F0
01C0
0380
0000
0300
0780
0CC0
0CC0
0780
0300
0FC0
3FE0
7FF0
78F0
F078
E078
0038
0038
0FF8
3FF8
7FF8
F838
E038
E038
E078
F0F8
FFF8
7FB8
1E38
ENDCHAR
STARTCHAR AEacute
ENCODING 508
SWIDTH 812 0
DWIDTH 29 0
BBX 28 33 0 0
BITMAP
0001F000
0001C000
00038000
00070000
000E0000
00000000
00000000
0007FFF0
000FFFF0
000FFFF0
001F8000
001F8000
003B8000
003B8000
00738000
00738000
00F3C000
00E3C000
01E3FFC0
01C1FFC0
03C1FFC0
0381C000
0781C000
0701C000
0FFFC000
0FFFC000
1FFFC000
1C01C000
3C01C000
3801C000
7801FFF0
7801FFF0
F001FFF0
ENDCHAR
STARTCHAR aeacute
ENCODING 509
SWIDTH 728 0
DWIDTH 26 0
BBX 24 26 1 0
BITMAP
0007C0
000700
000E00
001C00
003800
000000
000000
0FC1F0
1FE7F8
3FFFFC
787E1E
703C0E
703C0E
003C07
003807
0FFFFF
3FFFFF
7FFFFF
783800
F03800
E03C00
F03C00
70FF06
7FFFFE
3FE7FF
1F81F8
ENDCHAR
STARTCHAR Oslashacute
ENCODING 510
SWIDTH 600 0
DWIDTH 22 0
BBX 18 34 2 -1
BITMAP
003C00
007800
007000
00E000
01C000
000000
0000C0
03F180
0FFD80
1FFF00
1E1F00
3C0700
780F80
700F80
701F80
701B80
F03BC0
F033C0
E071C0
E061C0
E0E1C0
E0C3C0
E183C0
F183C0
730380
730380
760380
7E0780
3C0F00
1E1F00
1FFE00
3FFC00
33F000
700000
ENDCHAR
STARTCHAR oslashacute
ENCODING 511
SWIDTH 498 0
DWIDTH 18 0
BBX 14 28 2 -2
BITMAP
00F0
01C0
03C0
0780
0700
0018
0030
07F0
1FF0
3FF0
7878
70F8
F0DC
E19C
E19C
E19C
E31C
E31C
E61C
E61C
EC3C
7C3C
7C78
3FF0
1FE0
3FC0
3000
6000
ENDCHAR
STARTCHAR uni0218
ENCODING 536
SWIDTH 518 0
DWIDTH 19 0
BBX 15 35 2 -9
BITMAP
07C0
1FF0
3FF8
783C
701E
F00E
F00E
F00E
F000
7800
7C00
3F00
1FE0
07F8
00FC
003C
001E
000E
E00E
E00E
E00E
F01E
783E
3FFC
1FF8
07E0
0000
0000
0380
0380
0380
0380
0700
0700
0200
ENDCHAR
STARTCHAR uni0219
ENCODING 537
SWIDTH 455 0
DWIDTH 16 0
BBX 12 28 2 -9
BITMAP
1F80
3FE0
7FE0
F0F0
E070
E070
F000
7C00
3F00
1FC0
07E0
01F0
0070
E070
E070
F0F0
7FF0
3FE0
1F80
0000
0000
0700
0700
0700
0700
0E00
0E00
0400
ENDCHAR
STARTCHAR uni021A
ENCODING 538
SWIDTH 520 0
DWIDTH 19 0
BBX 17 35 1 -9
BITMAP
FFFF80
FFFF80
FFFF80
01C000
01C000
01C000
01C000
01C000
01C000
01C000
01C000
01C000
01C000
01C000
01C000
01C000
01C000
01C000
01C000
01C000
01C000
01C000
01C000
01C000
01C000
01C000
000000
000000
01C000
01C000
01C000
038000
038000
038000
010000
ENDCHAR
STARTCHAR uni021B
ENCODING 539
SWIDTH 295 0
DWIDTH 11 0
BBX 8 33 1 -9
BITMAP
3C
3C
3C
3C
3C
FF
FF
FF
3C
3C
3C
3C
3C
3C
3C
3C
3C
3C
3C
3C
1C
1F
1F
0F
00
00
0E
0E
0E
0E
0E
1C
0C
ENDCHAR
STARTCHAR uni0237
ENCODING 567
SWIDTH 237 0
DWIDTH 9 0
BBX 7 26 -1 -7
BITMAP
0E
0E
0E
0E
0E
0E
0E
0E
0E
0E
0E
0E
0E
0E
0E
0E
0E
0E
0E
0E
0E
0E
1E
7C
7C
F0
ENDCHAR
STARTCHAR uni0259
ENCODING 601
SWIDTH 465 0
DWIDTH 17 0
BBX 13 19 2 0
BITMAP
1F80
7FC0
FFE0
60F0
4078
0038
0038
0038
0038
FFF8
FFF8
FFF8
E038
E038
F070
78F0
7FE0
3FC0
0F80
ENDCHAR
STARTCHAR uni02BC
ENCODING 700
SWIDTH 194 0
DWIDTH 7 0
BBX 4 9 1 18
BITMAP
70
70
70
70
70
70
70
E0
40
ENDCHAR
STARTCHAR circumflex
ENCODING 710
SWIDTH 428 0
DWIDTH 15 0
BBX 9 5 3 22
BITMAP
1C00
3E00
7700
6300
E380
ENDCHAR
STARTCHAR caron
ENCODING 711
SWIDTH 403 0
DWIDTH 15 0
BBX 10 5 2 22
BITMAP
E1C0
7380
3F00
1E00
0C00
ENDCHAR
STARTCHAR uni02C9
ENCODING 713
SWIDTH 414 0
DWIDTH 15 0
BBX 11 2 2 22
BITMAP
FFE0
FFE0
ENDCHAR
STARTCHAR breve
ENCODING 728
SWIDTH 426 0
DWIDTH 15 0
BBX 11 5 2 21
BITMAP
E0E0
E0C0
71C0
7F80
1F00
ENDCHAR
STARTCHAR dotaccent
ENCODING 729
SWIDTH 242 0
DWIDTH 9 0
BBX 3 4 3 22
BITMAP
E0
E0
E0
E0
ENDCHAR
STARTCHAR ring
ENCODING 730
SWIDTH 334 0
DWIDTH 12 0
BBX 8 7 2 21
BITMAP
3C
7E
C3
C3
C3
7E
3C
ENDCHAR
STARTCHAR ogonek
ENCODING 731
SWIDTH 253 0
DWIDTH 9 0
BBX 5 8 1 -7
BITMAP
18
38
70
E0
E0
E0
F8
78
ENDCHAR
STARTCHAR tilde
ENCODING 732
SWIDTH 427 0
DWIDTH 15 0
BBX 11 4 2 22
BITMAP
3860
7CE0
E7C0
C380
ENDCHAR
STARTCHAR hungarumlaut
ENCODING 733
SWIDTH 331 0
DWIDTH 12 0
BBX 11 5 2 22
BITMAP
39E0
7380
7780
E700
CE00
ENDCHAR
STARTCHAR uni02F3
ENCODING 755
SWIDTH 263 0
DWIDTH 9 0
BBX 5 6 2 -7
BITMAP
70
F8
C8
C8
F8
70
ENDCHAR
STARTCHAR gravecomb
ENCODING 768
SWIDTH 0 0
DWIDTH 0 0
BBX 7 5 -13 22
BITMAP
F0
38
3C
1C
0E
ENDCHAR
STARTCHAR acutecomb
ENCODING 769
SWIDTH 0 0
DWIDTH 0 0
BBX 7 5 -10 22
BITMAP
1E
3C
38
70
E0
ENDCHAR
STARTCHAR tildecomb
ENCODING 771
SWIDTH 0 0
DWIDTH 0 0
BBX 11 4 -13 22
BITMAP
3860
7CE0
E7C0
C380
ENDCHAR
STARTCHAR hookabovecomb
ENCODING 777
SWIDTH 0 0
DWIDTH 0 0
BBX 5 7 -10 22
BITMAP
E0
F0
38
18
78
70
60
ENDCHAR
STARTCHAR uni030F
ENCODING 783
SWIDTH 0 0
DWIDTH 0 0
BBX 11 5 -14 22
BITMAP
F780
7B80
39C0
1DC0
0EE0
ENDCHAR
STARTCHAR dotbelowcomb
ENCODING 803
SWIDTH 0 0
DWIDTH 0 0
BBX 4 4 -13 -6
BITMAP
70
70
F0
70
ENDCHAR
STARTCHAR tonos
ENCODING 900
SWIDTH 256 0
DWIDTH 9 0
BBX 4 6 3 22
BITMAP
70
70
60
60
E0
C0
ENDCHAR
STARTCHAR dieresistonos
ENCODING 901
SWIDTH 452 0
DWIDTH 16 0
BBX 12 8 2 22
BITMAP
0780
0700
0700
0600
E660
E070
E070
E070
ENDCHAR
STARTCHAR Alphatonos
ENCODING 902
SWIDTH 576 0
DWIDTH 21 0
BBX 19 28 1 0
BITMAP
1C0000
180000
38E000
38E000
31F000
31F000
01F000
03B800
03B800
03B800
071C00
071C00
071C00
0E0E00
0E0E00
0E0E00
0C0600
1C0700
1FFF00
1FFF00
3FFF80
380380
380380
7001C0
7001C0
7001C0
F001E0
E000E0
ENDCHAR
STARTCHAR anoteleia
ENCODING 903
SWIDTH 243 0
DWIDTH 9 0
BBX 3 4 3 11
BITMAP
E0
E0
E0
E0
ENDCHAR
STARTCHAR Epsilontonos
ENCODING 904
SWIDTH 496 0
DWIDTH 18 0
BBX 20 28 -3 0
BITMAP
700000
E00000
E3FFE0
E3FFE0
C3FFE0
C38000
038000
038000
038000
038000
038000
038000
038000
03FFC0
03FFC0
03FFC0
038000
038000
038000
038000
038000
038000
038000
038000
038000
03FFF0
03FFF0
03FFF0
ENDCHAR
STARTCHAR Etatonos
ENCODING 905
SWIDTH 620 0
DWIDTH 22 0
BBX 22 28 -3 0
BITMAP
700000
600000
E3801C
E3801C
C3801C
C3801C
03801C
03801C
03801C
03801C
03801C
03801C
03801C
03FFFC
03FFFC
03FFFC
03801C
03801C
03801C
03801C
03801C
03801C
03801C
03801C
03801C
03801C
03801C
03801C
ENDCHAR
STARTCHAR Iotatonos
ENCODING 906
SWIDTH 250 0
DWIDTH 9 0
BBX 9 28 -3 0
BITMAP
7000
7000
6380
E380
C380
C380
0380
0380
0380
0380
0380
0380
0380
0380
0380
0380
0380
0380
0380
0380
0380
0380
0380
0380
0380
0380
0380
0380
ENDCHAR
STARTCHAR Omicrontonos
ENCODING 908
SWIDTH 610 0
DWIDTH 22 0
BBX 20 28 0 0
BITMAP
F00000
E00000
E0FC00
C3FF00
C7FF80
C783C0
0F01E0
0E00E0
1E00E0
1C00F0
1C0070
1C0070
1C0070
1C0070
1C0070
1C0070
1C0070
1C0070
1C0070
1C0070
1C00F0
1E00E0
0E00E0
0F01E0
0783C0
07FF80
03FF00
00FC00
ENDCHAR
STARTCHAR Upsilontonos
ENCODING 910
SWIDTH 573 0
DWIDTH 21 0
BBX 24 28 -4 0
BITMAP
700000
700000
73C00F
61E00E
61E01E
E0E01E
00F01C
00703C
007838
003878
003870
001C70
001CE0
001EE0
000FC0
000FC0
0007C0
000780
000380
000380
000380
000380
000380
000380
000380
000380
000380
000380
ENDCHAR
STARTCHAR Omegatonos
ENCODING 911
SWIDTH 591 0
DWIDTH 21 0
BBX 19 28 0 0
BITMAP
F00000
E00000
E0F800
C3FE00
C7FF00
CF8780
0E03C0
1E01C0
1C01C0
1C01E0
1C00E0
3C00E0
3C00E0
3C00E0
3C00E0
3C00E0
3C00E0
3C00E0
1C00E0
1C01C0
1C01C0
0C01C0
0E0180
060380
070700
3FCFE0
3FCFE0
3FCFE0
ENDCHAR
STARTCHAR iotadieresistonos
ENCODING 912
SWIDTH 299 0
DWIDTH 11 0
BBX 12 30 -1 0
BITMAP
0780
0700
0700
0600
E660
E070
E070
E070
0000
0000
0000
0E00
0E00
0E00
0E00
0E00
0E00
0E00
0E00
0E00
0E00
0E00
0E00
0E00
0E00
0E00
0F00
07C0
07C0
03C0
ENDCHAR
STARTCHAR Alpha
ENCODING 913
SWIDTH 576 0
DWIDTH 21 0
BBX 19 26 1 0
BITMAP
00E000
00E000
01F000
01F000
01F000
03B800
03B800
03B800
071C00
071C00
071C00
0E0E00
0E0E00
0E0E00
0C0600
1C0700
1FFF00
1FFF00
3FFF80
380380
380380
7001C0
7001C0
7001C0
F001E0
E000E0
ENDCHAR
STARTCHAR Beta
ENCODING 914
SWIDTH 545 0
DWIDTH 20 0
BBX 15 26 3 0
BITMAP
FFC0
FFF0
FFF8
E078
E03C
E01C
E01C
E01C
E01C
E03C
E078
FFF0
FFE0
FFF8
E03C
E01C
E01C
E01E
E01E
E01E
E01C
E03C
E07C
FFF8
FFF0
FFC0
ENDCHAR
STARTCHAR Gamma
ENCODING 915
SWIDTH 487 0
DWIDTH 18 0
BBX 13 26 3 0
BITMAP
FFF8
FFF8
FFF8
E000
E000
E000
E000
E000
E000
E000
E000
E000
E000
E000
E000
E000
E000
E000
E000
E000
E000
E000
E000
E000
E000
E000
ENDCHAR
STARTCHAR Delta.dup1
ENCODING 916
SWIDTH 614 0
DWIDTH 22 0
BBX 20 26 1 0
BITMAP
007000
00F000
00F000
00F800
01F800
01F800
01DC00
039C00
039C00
078E00
070E00
070E00
0F0700
0E0700
0E0700
1E0380
1C0380
1C0380
3C03C0
3801C0
3801C0
7801E0
7000E0
7FFFE0
FFFFF0
FFFFF0
ENDCHAR
STARTCHAR Epsilon
ENCODING 917
SWIDTH 496 0
DWIDTH 18 0
BBX 14 26 3 0
BITMAP
FFF8
FFF8
FFF8
E000
E000
E000
E000
E000
E000
E000
E000
FFF0
FFF0
FFF0
E000
E000
E000
E000
E000
E000
E000
E000
E000
FFFC
FFFC
FFFC
ENDCHAR
STARTCHAR Zeta
ENCODING 918
SWIDTH 522 0
DWIDTH 19 0
BBX 15 26 2 0
BITMAP
FFFE
FFFE
FFFE
001C
003C
0038
0078
0070
00F0
01E0
01C0
03C0
0380
0780
0700
0F00
1E00
1C00
3C00
3800
7800
7000
E000
FFFE
FFFE
FFFE
ENDCHAR
STARTCHAR Eta
ENCODING 919
SWIDTH 620 0
DWIDTH 22 0
BBX 16 26 3 0
BITMAP
E007
E007
E007
E007
E007
E007
E007
E007
E007
E007
E007
FFFF
FFFF
FFFF
E007
E007
E007
E007
E007
E007
E007
E007
E007
E007
E007
E007
ENDCHAR
STARTCHAR Theta
ENCODING 920
SWIDTH 593 0
DWIDTH 21 0
BBX 17 26 2 0
BITMAP
03E000
0FF800
1FFC00
3C3E00
780E00
700F00
F00700
E00780
E00380
E00380
E00380
E7F380
E7F380
E7F380
E00380
E00380
E00380
E00380
E00780
F00700
700700
780E00
3C3E00
1FFC00
0FF800
03E000
ENDCHAR
STARTCHAR Iota
ENCODING 921
SWIDTH 250 0
DWIDTH 9 0
BBX 3 26 3 0
BITMAP
E0
E0
E0
E0
E0
E0
E0
E0
E0
E0
E0
E0
E0
E0
E0
E0
E0
E0
E0
E0
E0
E0
E0
E0
E0
E0
ENDCHAR
STARTCHAR Kappa
ENCODING 922
SWIDTH 544 0
DWIDTH 20 0
BBX 17 26 3 0
BITMAP
E00F00
E01E00
E03C00
E03C00
E07800
E0F000
E0E000
E1E000
E3C000
E78000
E70000
EF0000
FF0000
FF8000
FBC000
F9C000
F1E000
E0E000
E0F000
E07800
E03800
E03C00
E01E00
E01E00
E00F00
E00780
ENDCHAR
STARTCHAR Lambda
ENCODING 923
SWIDTH 572 0
DWIDTH 21 0
BBX 18 26 1 0
BITMAP
00E000
01E000
01E000
01F000
03F000
03F000
03F800
03B800
073800
073C00
071C00
0F1C00
0E1C00
0E1E00
1E0E00
1C0E00
1C0F00
1C0700
3C0700
380780
380780
780380
700380
7003C0
F001C0
F001C0
ENDCHAR
STARTCHAR Mu
ENCODING 924
SWIDTH 755 0
DWIDTH 27 0
BBX 21 26 3 0
BITMAP
F00078
F00078
F800F8
F800F8
F800F8
FC00F8
FC01F8
FC01F8
EE01F8
EE03B8
EE03B8
E703B8
E70738
E70738
E30738
E38E38
E38E38
E18E38
E1DC38
E1DC38
E0DC38
E0F838
E0F838
E07838
E07038
E07038
ENDCHAR
STARTCHAR Nu
ENCODING 925
SWIDTH 619 0
DWIDTH 22 0
BBX 16 26 3 0
BITMAP
E007
F007
F007
F807
F807
FC07
FC07
EE07
EE07
E707
E707
E387
E387
E1C7
E1C7
E0E7
E0E7
E077
E077
E03F
E03F
E01F
E01F
E00F
E00F
E007
ENDCHAR
STARTCHAR Xi
ENCODING 926
SWIDTH 502 0
DWIDTH 18 0
BBX 14 26 2 0
BITMAP
FFFC
FFFC
FFFC
0000
0000
0000
0000
0000
0000
0000
0000
7FF8
7FF8
7FF8
0000
0000
0000
0000
0000
0000
0000
0000
0000
FFFC
FFFC
FFFC
ENDCHAR
STARTCHAR Omicron
ENCODING 927
SWIDTH 600 0
DWIDTH 22 0
BBX 18 26 2 0
BITMAP
03F000
0FFC00
1FFE00
3E1F00
380700
780780
700380
700380
700380
F003C0
F003C0
F003C0
F003C0
F003C0
F003C0
F003C0
F003C0
F00380
700380
700380
780780
380700
3E1F00
1FFE00
0FFC00
03F000
ENDCHAR
STARTCHAR Pi
ENCODING 928
SWIDTH 620 0
DWIDTH 22 0
BBX 16 26 3 0
BITMAP
FFFF
FFFF
FFFF
E007
E007
E007
E007
E007
E007
E007
E007
E007
E007
E007
E007
E007
E007
E007
E007
E007
E007
E007
E007
E007
E007
E007
ENDCHAR
STARTCHAR Rho
ENCODING 929
SWIDTH 554 0
DWIDTH 20 0
BBX 16 26 3 0
BITMAP
FFE0
FFF8
FFFC
E03E
E01E
E00E
E00E
E00F
E00F
E00F
E00E
E01E
E03E
FFFC
FFF8
FFE0
E000
E000
E000
E000
E000
E000
E000
E000
E000
E000
ENDCHAR
STARTCHAR Sigma
ENCODING 931
SWIDTH 502 0
DWIDTH 18 0
BBX 16 26 1 0
BITMAP
FFFE
FFFE
FFFE
7800
3800
3C00
1E00
0E00
0F00
0780
0380
03C0
01E0
01E0
03C0
0380
0780
0F00
0E00
1E00
3C00
3800
7800
FFFF
FFFF
FFFF
ENDCHAR
STARTCHAR Tau
ENCODING 932
SWIDTH 520 0
DWIDTH 19 0
BBX 17 26 1 0
BITMAP
FFFF80
FFFF80
FFFF80
01C000
01C000
01C000
01C000
01C000
01C000
01C000
01C000
01C000
01C000
01C000
01C000
01C000
01C000
01C000
01C000
01C000
01C000
01C000
01C000
01C000
01C000
01C000
ENDCHAR
STARTCHAR Upsilon
ENCODING 933
SWIDTH 524 0
DWIDTH 19 0
BBX 17 26 1 0
BITMAP
E00780
F00780
700700
780F00
380E00
381E00
3C1C00
1C1C00
1E3C00
0E3800
0E7800
077000
077000
03E000
03E000
03C000
01C000
01C000
01C000
01C000
01C000
01C000
01C000
01C000
01C000
01C000
ENDCHAR
STARTCHAR Phi
ENCODING 934
SWIDTH 621 0
DWIDTH 22 0
BBX 20 26 1 0
BITMAP
00F000
00F000
00F000
03FC00
0FFF00
1FFF80
3CF3C0
78F1E0
70F0E0
70F0E0
F0F0F0
F0F070
E0F070
E0F070
F0F070
F0F0F0
70F0E0
70F0E0
78F1E0
3CF3C0
1FFF80
0FFF00
03FC00
00F000
00F000
00F000
ENDCHAR
STARTCHAR Chi
ENCODING 935
SWIDTH 550 0
DWIDTH 20 0
BBX 18 26 1 0
BITMAP
F003C0
780780
380700
3C0F00
1C0E00
1E1E00
0E1C00
0F3C00
073800
07F800
03F000
03F000
01E000
01E000
03F000
03F000
07F800
073800
0F3C00
0E1C00
1E1E00
1C0E00
3C0F00
780700
780780
F003C0
ENDCHAR
STARTCHAR Psi
ENCODING 936
SWIDTH 600 0
DWIDTH 22 0
BBX 18 26 2 0
BITMAP
E1C1C0
E1C1C0
E1C1C0
E1C1C0
E1C1C0
E1C1C0
E1C1C0
E1C1C0
E1C1C0
E1C1C0
E1C1C0
E1C1C0
E1C3C0
F1C3C0
71C380
79C780
3DCF00
3FFE00
1FFC00
07F000
01C000
01C000
01C000
01C000
01C000
01C000
ENDCHAR
STARTCHAR Omega.dup2
ENCODING 937
SWIDTH 581 0
DWIDTH 21 0
BBX 17 26 2 0
BITMAP
03E000
0FF800
1FFC00
3C3E00
780E00
700F00
700700
F00700
E00700
E00780
E00780
E00780
E00780
E00780
E00780
E00700
E00700
700700
700700
700600
300E00
380C00
1C1C00
FF7F00
FF7F00
FF7F00
ENDCHAR
STARTCHAR Iotadieresis
ENCODING 938
SWIDTH 250 0
DWIDTH 9 0
BBX 11 32 -1 0
BITMAP
E0E0
F1E0
F1E0
E0E0
0000
0000
0E00
0E00
0E00
0E00
0E00
0E00
0E00
0E00
0E00
0E00
0E00
0E00
0E00
0E00
0E00
0E00
0E00
0E00
0E00
0E00
0E00
0E00
0E00
0E00
0E00
0E00
ENDCHAR
STARTCHAR Upsilondieresis
ENCODING 939
SWIDTH 524 0
DWIDTH 19 0
BBX 17 32 1 0
BITMAP
1C1C00
1E3C00
1E3C00
1C1C00
000000
000000
E00780
F00780
700700
780F00
380E00
381E00
3C1C00
1C1C00
1E3C00
0E3800
0E7800
077000
077000
03E000
03E000
03C000
01C000
01C000
01C000
01C000
01C000
01C000
01C000
01C000
01C000
01C000
ENDCHAR
STARTCHAR alphatonos
ENCODING 940
SWIDTH 494 0
DWIDTH 18 0
BBX 15 28 2 0
BITMAP
01C0
01C0
01C0
0180
0180
0380
0000
0000
0000
0F18
3FD8
3FF8
7878
7038
F038
E038
E038
E038
E038
E038
E038
E038
E038
F03C
787C
7FFE
3FDE
0F0E
ENDCHAR
STARTCHAR epsilontonos
ENCODING 941
SWIDTH 470 0
DWIDTH 17 0
BBX 13 28 2 0
BITMAP
0380
0380
0300
0300
0700
0600
0000
0000
0000
1F80
3FE0
7FF0
F078
E038
E000
E000
7000
7F80
1F80
7F80
F000
E000
E038
E038
F078
7FF0
3FE0
1F80
ENDCHAR
STARTCHAR etatonos
ENCODING 942
SWIDTH 498 0
DWIDTH 18 0
BBX 13 35 2 -7
BITMAP
01C0
0380
0380
0380
0300
0300
0000
0000
0000
E3E0
EFF0
FFF8
F878
F038
F038
F038
F038
F038
F038
F038
F038
F038
F038
F038
F038
F038
F038
F038
0038
0038
0038
0038
0038
0038
0038
ENDCHAR
STARTCHAR iotatonos
ENCODING 943
SWIDTH 299 0
DWIDTH 11 0
BBX 6 28 3 0
BITMAP
38
70
70
70
60
60
00
00
00
E0
E0
E0
E0
E0
E0
E0
E0
E0
E0
E0
E0
E0
E0
E0
F0
7C
7C
3C
ENDCHAR
STARTCHAR upsilondieresistonos
ENCODING 944
SWIDTH 480 0
DWIDTH 17 0
BBX 13 30 2 0
BITMAP
0380
0380
0700
0700
6730
F070
F078
6070
0000
0000
0000
E0F0
E070
E078
E038
E038
E038
E038
E038
E038
E038
E038
E038
E038
F078
7070
78F0
7FE0
3FC0
0F80
ENDCHAR
STARTCHAR alpha
ENCODING 945
SWIDTH 494 0
DWIDTH 18 0
BBX 15 19 2 0
BITMAP
0F18
3FD8
3FF8
7878
7038
F038
E038
E038
E038
E038
E038
E038
E038
E038
F03C
787C
7FFE
3FDE
0F0E
ENDCHAR
STARTCHAR beta
ENCODING 946
SWIDTH 517 0
DWIDTH 19 0
BBX 14 33 3 -7
BITMAP
0F80
3FE0
7FF0
78F0
F078
E038
E038
E038
E038
E070
E0F0
E7E0
E7E0
E7F0
E078
E038
E03C
E01C
E01C
E01C
E03C
E038
F078
FFF0
FFE0
E7C0
E000
E000
E000
E000
E000
E000
E000
ENDCHAR
STARTCHAR gamma
ENCODING 947
SWIDTH 444 0
DWIDTH 16 0
BBX 14 26 1 -7
BITMAP
E01C
F01C
7038
7038
7838
3870
3870
3870
1C70
1CE0
1CE0
0EE0
0FC0
0FC0
07C0
0780
0780
0380
0380
0380
0380
0380
0380
0380
0380
0380
ENDCHAR
STARTCHAR delta
ENCODING 948
SWIDTH 498 0
DWIDTH 18 0
BBX 14 27 2 0
BITMAP
0FC0
1FE0
3FE0
3C20
3800
3800
3800
3E00
1F80
0FE0
1FF0
38F8
7078
703C
E01C
E01C
E01C
E01C
E01C
E01C
E01C
F03C
7038
7878
3FF0
1FE0
0FC0
ENDCHAR
STARTCHAR epsilon
ENCODING 949
SWIDTH 470 0
DWIDTH 17 0
BBX 13 19 2 0
BITMAP
1F80
3FE0
7FF0
F078
E038
E000
E000
7000
7F80
1F80
7F80
F000
E000
E038
E038
F078
7FF0
3FE0
1F80
ENDCHAR
STARTCHAR zeta
ENCODING 950
SWIDTH 462 0
DWIDTH 17 0
BBX 13 33 2 -7
BITMAP
FFF8
FFF8
FFF8
0070
0070
00E0
01C0
03C0
0380
0700
0F00
0E00
1C00
1C00
3800
3800
3800
7800
7000
7000
7800
7800
3800
3F00
1FE0
0FF0
01F0
0070
0070
0070
0060
00E0
0040
ENDCHAR
STARTCHAR eta
ENCODING 951
SWIDTH 498 0
DWIDTH 18 0
BBX 13 26 2 -7
BITMAP
E3E0
EFF0
FFF8
F878
F038
F038
F038
F038
F038
F038
F038
F038
F038
F038
F038
F038
F038
F038
F038
0038
0038
0038
0038
0038
0038
0038
ENDCHAR
STARTCHAR theta
ENCODING 952
SWIDTH 496 0
DWIDTH 18 0
BBX 14 26 2 0
BITMAP
0F80
1FE0
3FF0
3870
7038
7038
7038
E01C
E01C
E01C
E01C
FFFC
FFFC
FFFC
E01C
E01C
E01C
E01C
F03C
7038
7038
7878
38F0
3FF0
1FE0
0F80
ENDCHAR
STARTCHAR iota
ENCODING 953
SWIDTH 299 0
DWIDTH 11 0
BBX 6 19 3 0
BITMAP
E0
E0
E0
E0
E0
E0
E0
E0
E0
E0
E0
E0
E0
E0
E0
F0
7C
7C
3C
ENDCHAR
STARTCHAR kappa
ENCODING 954
SWIDTH 491 0
DWIDTH 18 0
BBX 14 19 3 0
BITMAP
E078
E0F0
E0E0
E1E0
E3C0
E380
E700
EF00
FE00
FE00
FE00
EF00
E780
E3C0
E3C0
E1E0
E0F0
E078
E07C
ENDCHAR
STARTCHAR lambda
ENCODING 955
SWIDTH 485 0
DWIDTH 17 0
BBX 15 27 1 0
BITMAP
3800
7C00
7E00
1E00
0E00
0F00
0F00
0700
0780
0780
0780
07C0
0FC0
0FC0
0FE0
1CE0
1CE0
1CF0
3870
3870
3878
7838
7038
703C
F01E
F01E
E00E
ENDCHAR
STARTCHAR uni03BC
ENCODING 956
SWIDTH 498 0
DWIDTH 18 0
BBX 12 26 3 -7
BITMAP
E070
E070
E070
E070
E070
E070
E070
E070
E070
E070
E070
E070
E070
E070
E070
F0F0
FFF0
FFF0
EF30
E000
E000
E000
E000
E000
E000
E000
ENDCHAR
STARTCHAR nu
ENCODING 957
SWIDTH 427 0
DWIDTH 15 0
BBX 13 19 1 0
BITMAP
E038
E038
E078
7070
7070
7070
30E0
38E0
38E0
38C0
1DC0
1DC0
1DC0
0D80
0F80
0F80
0700
0700
0700
ENDCHAR
STARTCHAR xi
ENCODING 958
SWIDTH 431 0
DWIDTH 16 0
BBX 12 33 2 -7
BITMAP
07E0
1FF0
3FF0
7C10
7800
7000
7000
7000
7800
3C00
1FE0
07E0
1FE0
3C00
7000
F000
E000
E000
E000
E000
F000
F000
7800
3E00
1FC0
0FF0
01F0
0070
0070
0070
0070
00E0
0040
ENDCHAR
STARTCHAR omicron
ENCODING 959
SWIDTH 501 0
DWIDTH 18 0
BBX 14 19 2 0
BITMAP
0FC0
1FE0
7FF0
7878
F03C
E01C
E01C
E01C
E01C
E01C
E01C
E01C
E01C
E01C
F03C
7878
7FF0
3FE0
0FC0
ENDCHAR
STARTCHAR pi
ENCODING 960
SWIDTH 520 0
DWIDTH 19 0
BBX 17 19 1 0
BITMAP
FFFF00
FFFF00
FFFF00
3C1C00
3C1C00
3C1C00
3C1C00
3C1C00
3C1C00
3C1C00
3C1C00
3C1C00
3C1C00
3C1C00
3C1C00
3C1E00
3C1F80
3C0F80
3C0780
ENDCHAR
STARTCHAR rho
ENCODING 961
SWIDTH 498 0
DWIDTH 18 0
BBX 14 26 2 -7
BITMAP
07C0
1FE0
3FF0
3C78
7838
703C
701C
F01C
F01C
F01C
F01C
F01C
F01C
F03C
F038
F878
FFF8
FFF0
F7C0
F000
F000
F000
F000
F000
F000
F000
ENDCHAR
STARTCHAR sigma1
ENCODING 962
SWIDTH 472 0
DWIDTH 17 0
BBX 13 26 2 -7
BITMAP
0F80
1FE0
3FF0
7870
7078
F038
E038
E000
E000
E000
E000
E000
E000
F000
7800
7C00
3F80
1FE0
07F0
00F0
0070
0070
0070
00E0
00E0
0040
ENDCHAR
STARTCHAR sigma
ENCODING 963
SWIDTH 498 0
DWIDTH 18 0
BBX 15 19 2 0
BITMAP
0FFE
1FFE
3FFE
7870
7038
F038
E01C
E01C
E01C
E01C
E01C
E01C
E01C
F03C
7038
7878
3FF0
1FE0
0FC0
ENDCHAR
STARTCHAR tau
ENCODING 964
SWIDTH 460 0
DWIDTH 17 0
BBX 13 19 2 0
BITMAP
FFF8
FFF8
FFF8
0700
0700
0700
0700
0700
0700
0700
0700
0700
0700
0700
0700
0700
07E0
03E0
03E0
ENDCHAR
STARTCHAR upsilon
ENCODING 965
SWIDTH 480 0
DWIDTH 17 0
BBX 13 19 2 0
BITMAP
E0F0
E070
E078
E038
E038
E038
E038
E038
E038
E038
E038
E038
E038
F078
7070
78F0
7FE0
3FC0
0F80
ENDCHAR
STARTCHAR phi
ENCODING 966
SWIDTH 617 0
DWIDTH 22 0
BBX 20 27 1 -8
BITMAP
083E00
187F00
3CFF80
78F3C0
70E1E0
70E0E0
70E0E0
F0E0E0
E0E0F0
F0E0F0
F0E0F0
70E0E0
70E0E0
78E1E0
7CE3C0
3EE7C0
1FFF80
0FFF00
03FC00
00E000
00E000
00E000
00E000
00E000
00E000
00E000
00E000
ENDCHAR
STARTCHAR chi
ENCODING 967
SWIDTH 438 0
DWIDTH 16 0
BBX 16 26 1 -7
BITMAP
E01C
F83C
F838
3C38
1C70
1C70
0EE0
0EE0
0FE0
07C0
07C0
0380
0380
0780
07C0
07C0
0FE0
0EE0
1EE0
1C70
1C70
3870
3838
783F
701E
F00E
ENDCHAR
STARTCHAR psi
ENCODING 968
SWIDTH 612 0
DWIDTH 22 0
BBX 19 27 2 -8
BITMAP
E1C380
E1C380
E1C3C0
E1C1C0
E1C1C0
E1C1C0
E1C1C0
E1C1C0
E1C1E0
E1C1E0
E1C1C0
E1C1C0
E1C1C0
F1C3C0
79C780
7DCF80
3FFF00
1FFE00
07F800
01C000
01C000
01C000
01C000
01C000
01C000
01C000
01C000
ENDCHAR
STARTCHAR omega
ENCODING 969
SWIDTH 711 0
DWIDTH 26 0
BBX 22 19 2 0
BITMAP
3800F0
380070
780078
700038
700038
707838
F0783C
E0783C
E0781C
E0781C
E0783C
F0783C
F07838
707838
707838
78FC78
3FCEF0
1F8FE0
0F03C0
ENDCHAR
STARTCHAR iotadieresis
ENCODING 970
SWIDTH 299 0
DWIDTH 11 0
BBX 12 26 -1 0
BITMAP
70E0
F0F0
F0F0
70E0
0000
0000
0000
0E00
0E00
0E00
0E00
0E00
0E00
0E00
0E00
0E00
0E00
0E00
0E00
0E00
0E00
0E00
0F00
07C0
07C0
03C0
ENDCHAR
STARTCHAR upsilondieresis
ENCODING 971
SWIDTH 480 0
DWIDTH 17 0
BBX 13 26 2 0
BITMAP
7070
78F0
78F0
7070
0000
0000
0000
E0F0
E070
E078
E038
E038
E038
E038
E038
E038
E038
E038
E038
E038
F078
7070
78F0
7FE0
3FC0
0F80
ENDCHAR
STARTCHAR omicrontonos
ENCODING 972
SWIDTH 501 0
DWIDTH 18 0
BBX 14 28 2 0
BITMAP
01C0
0380
0380
0300
0300
0300
0000
0000
0000
0FC0
1FE0
7FF0
7878
F03C
E01C
E01C
E01C
E01C
E01C
E01C
E01C
E01C
E01C
F03C
7878
7FF0
3FE0
0FC0
ENDCHAR
STARTCHAR upsilontonos
ENCODING 973
SWIDTH 480 0
DWIDTH 17 0
BBX 13 28 2 0
BITMAP
0380
0380
0300
0300
0700
0600
0000
0000
0000
E0F0
E070
E078
E038
E038
E038
E038
E038
E038
E038
E038
E038
E038
F078
7070
78F0
7FE0
3FC0
0F80
ENDCHAR
STARTCHAR omegatonos
ENCODING 974
SWIDTH 711 0
DWIDTH 26 0
BBX 22 28 2 0
BITMAP
003C00
003800
003800
003000
003000
003000
000000
000000
000000
3800F0
380070
780078
700038
700038
707838
F0783C
E0783C
E0781C
E0781C
E0783C
F0783C
F07838
707838
707838
78FC78
3FCEF0
1F8FE0
0F03C0
ENDCHAR
STARTCHAR theta1
ENCODING 977
SWIDTH 507 0
DWIDTH 18 0
BBX 15 26 2 0
BITMAP
03C0
07F0
0FF0
1E78
1C38
1C38
1C38
1C38
1C38
1E38
0E38
0F38
E7F8
E3FE
E1FE
E07E
E038
E038
E038
E038
E038
F078
78F0
7FF0
3FE0
0F80
ENDCHAR
STARTCHAR Upsilon1
ENCODING 978
SWIDTH 465 0
DWIDTH 17 0
BBX 17 26 0 0
BITMAP
F00780
F00780
F80F80
380E00
1C1E00
1C1C00
1E1C00
0E3800
0E3800
0F7800
077000
077000
03E000
03E000
03E000
01C000
01C000
01C000
01C000
01C000
01C000
01C000
01C000
01C000
01C000
01C000
ENDCHAR
STARTCHAR omega1
ENCODING 982
SWIDTH 678 0
DWIDTH 24 0
BBX 22 19 1 0
BITMAP
FFFFFC
FFFFFC
FFFFFC
380070
380078
780038
703838
703838
703838
703838
707838
707838
707838
787838
387870
38FC70
3FCFF0
1FCFE0
0F03C0
ENDCHAR
STARTCHAR uni0400
ENCODING 1024
SWIDTH 496 0
DWIDTH 18 0
BBX 14 33 3 0
BITMAP
7800
3C00
1E00
0F00
0700
0000
0000
FFF8
FFF8
FFF8
E000
E000
E000
E000
E000
E000
E000
E000
FFF0
FFF0
FFF0
E000
E000
E000
E000
E000
E000
E000
E000
E000
FFFC
FFFC
FFFC
ENDCHAR
STARTCHAR uni0401
ENCODING 1025
SWIDTH 496 0
DWIDTH 18 0
BBX 14 32 3 0
BITMAP
7070
78F0
78F0
7070
0000
0000
FFF8
FFF8
FFF8
E000
E000
E000
E000
E000
E000
E000
E000
FFF0
FFF0
FFF0
E000
E000
E000
E000
E000
E000
E000
E000
E000
FFFC
FFFC
FFFC
ENDCHAR
STARTCHAR uni0402
ENCODING 1026
SWIDTH 650 0
DWIDTH 23 0
BBX 21 26 1 0
BITMAP
FFFF00
FFFF00
FFFF00
038000
038000
038000
038000
038000
038000
038000
03BF00
03FFC0
03FFE0
03C1F0
038070
038070
038078
038078
038078
038078
038078
038070
0380F0
0387E0
0387C0
038700
ENDCHAR
STARTCHAR uni0403
ENCODING 1027
SWIDTH 487 0
DWIDTH 18 0
BBX 13 33 3 0
BITMAP
00F0
01E0
03C0
0380
0700
0000
0000
FFF8
FFF8
FFF8
E000
E000
E000
E000
E000
E000
E000
E000
E000
E000
E000
E000
E000
E000
E000
E000
E000
E000
E000
E000
E000
E000
E000
ENDCHAR
STARTCHAR uni0404
ENCODING 1028
SWIDTH 589 0
DWIDTH 21 0
BBX 17 26 2 0
BITMAP
03F000
0FF800
1FFE00
3E1E00
380F00
700700
700700
F00780
E00780
E00000
E00000
FFE000
FFE000
FFE000
E00000
E00000
E00000
F00780
F00780
700700
780700
780F00
3C1E00
1FFE00
0FF800
03F000
ENDCHAR
STARTCHAR uni0405
ENCODING 1029
SWIDTH 518 0
DWIDTH 19 0
BBX 15 26 2 0
BITMAP
07C0
1FF0
3FF8
783C
701E
F00E
F00E
F00E
F000
7800
7C00
3F00
1FE0
07F8
00FC
003C
001E
000E
E00E
E00E
E00E
F01E
783E
3FFC
1FF8
07E0
ENDCHAR
STARTCHAR uni0406
ENCODING 1030
SWIDTH 250 0
DWIDTH 9 0
BBX 3 26 3 0
BITMAP
E0
E0
E0
E0
E0
E0
E0
E0
E0
E0
E0
E0
E0
E0
E0
E0
E0
E0
E0
E0
E0
E0
E0
E0
E0
E0
ENDCHAR
STARTCHAR uni0407
ENCODING 1031
SWIDTH 250 0
DWIDTH 9 0
BBX 11 32 -1 0
BITMAP
E0E0
F1E0
F1E0
E0E0
0000
0000
0E00
0E00
0E00
0E00
0E00
0E00
0E00
0E00
0E00
0E00
0E00
0E00
0E00
0E00
0E00
0E00
0E00
0E00
0E00
0E00
0E00
0E00
0E00
0E00
0E00
0E00
ENDCHAR
STARTCHAR uni0408
ENCODING 1032
SWIDTH 483 0
DWIDTH 17 0
BBX 14 26 1 0
BITMAP
001C
001C
001C
001C
001C
001C
001C
001C
001C
001C
001C
001C
001C
001C
001C
001C
001C
001C
001C
E03C
F03C
F038
7878
7FF0
3FE0
0FC0
ENDCHAR
STARTCHAR uni0409
ENCODING 1033
SWIDTH 923 0
DWIDTH 33 0
BBX 31 26 1 0
BITMAP
07FFC000
07FFC000
0FFFC000
0F01C000
0F01C000
0F01C000
0F01C000
0F01C000
0F01C000
0E01C000
0E01FFC0
0E01FFF0
0E01FFF8
0E01C07C
0E01C03C
0E01C01C
0E01C01E
0E01C01E
0E01C01E
0E01C01E
1E01C01C
1C01C03C
3C01C07C
F801FFF8
F801FFF0
E001FFC0
ENDCHAR
STARTCHAR uni040A
ENCODING 1034
SWIDTH 927 0
DWIDTH 33 0
BBX 29 26 3 0
BITMAP
E0070000
E0070000
E0070000
E0070000
E0070000
E0070000
E0070000
E0070000
E0070000
E0070000
E0070000
FFFFFF00
FFFFFFC0
FFFFFFE0
E00701F0
E0070070
E0070078
E0070078
E0070078
E0070078
E0070070
E0070070
E00701F0
E007FFE0
E007FFC0
E007FF00
ENDCHAR
STARTCHAR uni040B
ENCODING 1035
SWIDTH 705 0
DWIDTH 25 0
BBX 21 26 1 0
BITMAP
FFFF80
FFFF80
FFFF80
038000
038000
038000
038000
038000
038000
038000
03BF80
03FFE0
03FFF0
03C0F0
038078
038038
038038
038038
038038
038038
038038
038038
038038
038038
038038
038038
ENDCHAR
STARTCHAR uni040C
ENCODING 1036
SWIDTH 544 0
DWIDTH 20 0
BBX 17 33 3 0
BITMAP
01F000
01C000
038000
078000
0F0000
000000
000000
E00F00
E01E00
E03C00
E03C00
E07800
E0F000
E0E000
E1E000
E3C000
E78000
E70000
EF0000
FF0000
FF8000
FBC000
F9C000
F1E000
E0E000
E0F000
E07800
E03800
E03C00
E01E00
E01E00
E00F00
E00780
ENDCHAR
STARTCHAR uni040D
ENCODING 1037
SWIDTH 619 0
DWIDTH 22 0
BBX 16 33 3 0
BITMAP
1E00
0F00
0700
0380
01C0
0000
0000
E007
E00F
E00F
E01F
E01F
E03F
E03F
E077
E077
E0E7
E0E7
E1C7
E1C7
E387
E387
E707
E707
EE07
EE07
FC07
FC07
F807
F807
F007
F007
E007
ENDCHAR
STARTCHAR uni040E
ENCODING 1038
SWIDTH 547 0
DWIDTH 20 0
BBX 17 32 2 0
BITMAP
383800
183800
1C7000
0FF000
07C000
000000
F00780
F00F00
700F00
780E00
781E00
381E00
3C1C00
1C3C00
1C3C00
1E3800
0E3800
0E7800
0F7000
077000
07F000
03E000
03E000
03E000
01C000
01C000
03C000
038000
078000
3F0000
3F0000
3C0000
ENDCHAR
STARTCHAR uni040F
ENCODING 1039
SWIDTH 621 0
DWIDTH 22 0
BBX 16 32 3 -6
BITMAP
E007
E007
E007
E007
E007
E007
E007
E007
E007
E007
E007
E007
E007
E007
E007
E007
E007
E007
E007
E007
E007
E007
E007
FFFF
FFFF
FFFF
01C0
01C0
01C0
01C0
01C0
01C0
ENDCHAR
STARTCHAR uni0410
ENCODING 1040
SWIDTH 576 0
DWIDTH 21 0
BBX 19 26 1 0
BITMAP
00E000
00E000
01F000
01F000
01F000
03B800
03B800
03B800
071C00
071C00
071C00
0E0E00
0E0E00
0E0E00
0C0600
1C0700
1FFF00
1FFF00
3FFF80
380380
380380
7001C0
7001C0
7001C0
F001E0
E000E0
ENDCHAR
STARTCHAR uni0411
ENCODING 1041
SWIDTH 549 0
DWIDTH 20 0
BBX 16 26 3 0
BITMAP
FFF8
FFF8
FFF8
E000
E000
E000
E000
E000
E000
E000
E000
FFE0
FFF8
FFFC
E03E
E01E
E00E
E00E
E00F
E00E
E00E
E01E
E03E
FFFC
FFF8
FFE0
ENDCHAR
STARTCHAR uni0412
ENCODING 1042
SWIDTH 545 0
DWIDTH 20 0
BBX 15 26 3 0
BITMAP
FFC0
FFF0
FFF8
E078
E03C
E01C
E01C
E01C
E01C
E03C
E078
FFF0
FFE0
FFF8
E03C
E01C
E01C
E01E
E01E
E01E
E01C
E03C
E07C
FFF8
FFF0
FFC0
ENDCHAR
STARTCHAR uni0413
ENCODING 1043
SWIDTH 487 0
DWIDTH 18 0
BBX 13 26 3 0
BITMAP
FFF8
FFF8
FFF8
E000
E000
E000
E000
E000
E000
E000
E000
E000
E000
E000
E000
E000
E000
E000
E000
E000
E000
E000
E000
E000
E000
E000
ENDCHAR
STARTCHAR uni0414
ENCODING 1044
SWIDTH 660 0
DWIDTH 24 0
BBX 22 32 1 -6
BITMAP
07FFE0
07FFE0
07FFE0
0781E0
0781E0
0701E0
0701E0
0701E0
0701E0
0701E0
0701E0
0701E0
0701E0
0701E0
0701E0
0F01E0
0F01E0
0E01E0
0E01E0
0E01E0
1E01E0
1C01E0
3C01E0
FFFFFC
FFFFFC
FFFFFC
E0003C
E0003C
E0003C
E0003C
E0003C
E0003C
ENDCHAR
STARTCHAR uni0415
ENCODING 1045
SWIDTH 496 0
DWIDTH 18 0
BBX 14 26 3 0
BITMAP
FFF8
FFF8
FFF8
E000
E000
E000
E000
E000
E000
E000
E000
FFF0
FFF0
FFF0
E000
E000
E000
E000
E000
E000
E000
E000
E000
FFFC
FFFC
FFFC
ENDCHAR
STARTCHAR uni0416
ENCODING 1046
SWIDTH 791 0
DWIDTH 28 0
BBX 27 26 1 0
BITMAP
F00E03C0
780E03C0
380E0780
3C0E0780
1C0E0700
1E0E0F00
0E0E0E00
0E0E1E00
070E1C00
070E3C00
038E3800
038E3800
01FFF000
01FFF000
03FFF800
078E3800
078E3C00
0F0E1C00
0F0E1E00
1E0E0E00
1E0E0F00
3C0E0780
3C0E0780
780E03C0
780E03C0
F00E01E0
ENDCHAR
STARTCHAR uni0417
ENCODING 1047
SWIDTH 517 0
DWIDTH 19 0
BBX 15 26 2 0
BITMAP
0FE0
1FF0
3FFC
783C
F01E
E01E
E00E
000E
001E
001C
003C
07F8
07F0
07F8
003C
001E
000E
000E
000E
E00E
E00E
F01E
783C
7FFC
3FF0
0FE0
ENDCHAR
STARTCHAR uni0418
ENCODING 1048
SWIDTH 619 0
DWIDTH 22 0
BBX 16 26 3 0
BITMAP
E007
E00F
E00F
E01F
E01F
E03F
E03F
E077
E077
E0E7
E0E7
E1C7
E1C7
E387
E387
E707
E707
EE07
EE07
FC07
FC07
F807
F807
F007
F007
E007
ENDCHAR
STARTCHAR uni0419
ENCODING 1049
SWIDTH 619 0
DWIDTH 22 0
BBX 16 32 3 0
BITMAP
1818
1C38
1C38
0FF0
03E0
0000
E007
E00F
E00F
E01F
E01F
E03F
E03F
E077
E077
E0E7
E0E7
E1C7
E1C7
E387
E387
E707
E707
EE07
EE07
FC07
FC07
F807
F807
F007
F007
E007
ENDCHAR
STARTCHAR uni041A
ENCODING 1050
SWIDTH 560 0
DWIDTH 20 0
BBX 17 26 3 0
BITMAP
E00F00
E01E00
E01E00
E03C00
E07800
E07800
E0F000
E1E000
E1E000
E3C000
E78000
FF8000
FF0000
FF8000
E3C000
E3C000
E1E000
E0F000
E0F000
E07800
E03800
E03C00
E01E00
E01E00
E00F00
E00780
ENDCHAR
STARTCHAR uni041B
ENCODING 1051
SWIDTH 615 0
DWIDTH 22 0
BBX 18 26 1 0
BITMAP
07FFC0
07FFC0
07FFC0
0701C0
0701C0
0F01C0
0F01C0
0F01C0
0F01C0
0F01C0
0F01C0
0E01C0
0E01C0
0E01C0
0E01C0
0E01C0
0E01C0
0E01C0
0E01C0
0E01C0
1E01C0
1C01C0
3C01C0
F801C0
F801C0
E001C0
ENDCHAR
STARTCHAR uni041C
ENCODING 1052
SWIDTH 755 0
DWIDTH 27 0
BBX 21 26 3 0
BITMAP
F00078
F00078
F800F8
F800F8
F800F8
FC00F8
FC01F8
FC01F8
EE01F8
EE03B8
EE03B8
E703B8
E70738
E70738
E30738
E38E38
E38E38
E18E38
E1DC38
E1DC38
E0DC38
E0F838
E0F838
E07838
E07038
E07038
ENDCHAR
STARTCHAR uni041D
ENCODING 1053
SWIDTH 620 0
DWIDTH 22 0
BBX 16 26 3 0
BITMAP
E007
E007
E007
E007
E007
E007
E007
E007
E007
E007
E007
FFFF
FFFF
FFFF
E007
E007
E007
E007
E007
E007
E007
E007
E007
E007
E007
E007
ENDCHAR
STARTCHAR uni041E
ENCODING 1054
SWIDTH 600 0
DWIDTH 22 0
BBX 18 26 2 0
BITMAP
03F000
0FFC00
1FFE00
3E1F00
380700
780780
700380
700380
700380
F003C0
F003C0
F003C0
F003C0
F003C0
F003C0
F003C0
F003C0
F00380
700380
700380
780780
380700
3E1F00
1FFE00
0FFC00
03F000
ENDCHAR
STARTCHAR uni041F
ENCODING 1055
SWIDTH 620 0
DWIDTH 22 0
BBX 16 26 3 0
BITMAP
FFFF
FFFF
FFFF
E007
E007
E007
E007
E007
E007
E007
E007
E007
E007
E007
E007
E007
E007
E007
E007
E007
E007
E007
E007
E007
E007
E007
ENDCHAR
STARTCHAR uni0420
ENCODING 1056
SWIDTH 554 0
DWIDTH 20 0
BBX 16 26 3 0
BITMAP
FFE0
FFF8
FFFC
E03E
E01E
E00E
E00E
E00F
E00F
E00F
E00E
E01E
E03E
FFFC
FFF8
FFE0
E000
E000
E000
E000
E000
E000
E000
E000
E000
E000
ENDCHAR
STARTCHAR uni0421
ENCODING 1057
SWIDTH 566 0
DWIDTH 20 0
BBX 17 26 2 0
BITMAP
03F000
0FFC00
1FFE00
3C1E00
780F00
700700
F00700
F00700
E00780
E00000
E00000
E00000
E00000
E00000
E00000
E00000
E00000
E00780
F00700
F00700
700700
780F00
3C1E00
1FFC00
0FF800
07E000
ENDCHAR
STARTCHAR uni0422
ENCODING 1058
SWIDTH 520 0
DWIDTH 19 0
BBX 17 26 1 0
BITMAP
FFFF80
FFFF80
FFFF80
01C000
01C000
01C000
01C000
01C000
01C000
01C000
01C000
01C000
01C000
01C000
01C000
01C000
01C000
01C000
01C000
01C000
01C000
01C000
01C000
01C000
01C000
01C000
ENDCHAR
STARTCHAR uni0423
ENCODING 1059
SWIDTH 547 0
DWIDTH 20 0
BBX 17 26 2 0
BITMAP
F00780
F00F00
700F00
780E00
781E00
381E00
3C1C00
1C3C00
1C3C00
1E3800
0E3800
0E7800
0F7000
077000
07F000
03E000
03E000
03E000
01C000
01C000
03C000
038000
078000
3F0000
3F0000
3C0000
ENDCHAR
STARTCHAR uni0424
ENCODING 1060
SWIDTH 676 0
DWIDTH 24 0
BBX 22 28 1 -1
BITMAP
003800
003800
003800
003800
03FF00
07FFC0
1FFFE0
1E39F0
383870
783878
703838
703838
70381C
F0381C
F0381C
F0381C
70381C
703838
703838
783878
383870
1E39F0
1FFFE0
0FFFC0
03FF00
003800
003800
003800
ENDCHAR
STARTCHAR uni0425
ENCODING 1061
SWIDTH 550 0
DWIDTH 20 0
BBX 18 26 1 0
BITMAP
F003C0
780780
380700
3C0F00
1C0E00
1E1E00
0E1C00
0F3C00
073800
07F800
03F000
03F000
01E000
01E000
03F000
03F000
07F800
073800
0F3C00
0E1C00
1E1E00
1C0E00
3C0F00
780700
780780
F003C0
ENDCHAR
STARTCHAR uni0426
ENCODING 1062
SWIDTH 639 0
DWIDTH 23 0
BBX 19 32 3 -6
BITMAP
E00700
E00700
E00700
E00700
E00700
E00700
E00700
E00700
E00700
E00700
E00700
E00700
E00700
E00700
E00700
E00700
E00700
E00700
E00700
E00700
E00700
E00700
E00700
FFFFE0
FFFFE0
FFFFE0
0001E0
0001E0
0001E0
0001C0
0001C0
0001C0
ENDCHAR
STARTCHAR uni0427
ENCODING 1063
SWIDTH 600 0
DWIDTH 22 0
BBX 16 26 3 0
BITMAP
E007
E007
E007
E007
E007
E007
E007
E007
E007
E007
E007
F007
F81F
7FFF
3FFF
0FE7
0007
0007
0007
0007
0007
0007
0007
0007
0007
0007
ENDCHAR
STARTCHAR uni0428
ENCODING 1064
SWIDTH 814 0
DWIDTH 29 0
BBX 23 26 3 0
BITMAP
E0380E
E0380E
E0380E
E0380E
E0380E
E0380E
E0380E
E0380E
E0380E
E0380E
E0380E
E0380E
E0380E
E0380E
E0380E
E0380E
E0380E
E0380E
E0380E
E0380E
E0380E
E0380E
E0380E
FFFFFE
FFFFFE
FFFFFE
ENDCHAR
STARTCHAR uni0429
ENCODING 1065
SWIDTH 841 0
DWIDTH 30 0
BBX 26 32 3 -6
BITMAP
E0380E00
E0380E00
E0380E00
E0380E00
E0380E00
E0380E00
E0380E00
E0380E00
E0380E00
E0380E00
E0380E00
E0380E00
E0380E00
E0380E00
E0380E00
E0380E00
E0380E00
E0380E00
E0380E00
E0380E00
E0380E00
E0380E00
E0380E00
FFFFFFC0
FFFFFFC0
FFFFFFC0
000001C0
00000180
00000180
00000180
00000180
00000180
ENDCHAR
STARTCHAR uni042A
ENCODING 1066
SWIDTH 651 0
DWIDTH 23 0
BBX 21 26 1 0
BITMAP
FF0000
FF0000
FF0000
070000
070000
070000
070000
070000
070000
070000
070000
07FF80
07FFC0
07FFE0
0700F0
070070
070078
070038
070038
070038
070078
070070
0700F0
07FFE0
07FFC0
07FF80
ENDCHAR
STARTCHAR uni042B
ENCODING 1067
SWIDTH 755 0
DWIDTH 27 0
BBX 21 26 3 0
BITMAP
E00038
E00038
E00038
E00038
E00038
E00038
E00038
E00038
E00038
E00038
E00038
FFE038
FFF838
FFFC38
E03E38
E01E38
E00E38
E00F38
E00F38
E00F38
E00E38
E01E38
E03E38
FFFC38
FFF838
FFE038
ENDCHAR
STARTCHAR uni042C
ENCODING 1068
SWIDTH 551 0
DWIDTH 20 0
BBX 15 26 3 0
BITMAP
E000
E000
E000
E000
E000
E000
E000
E000
E000
E000
E000
FFE0
FFF8
FFFC
E03E
E01E
E00E
E00E
E00E
E00E
E00E
E01E
E03E
FFFC
FFF8
FFE0
ENDCHAR
STARTCHAR uni042D
ENCODING 1069
SWIDTH 589 0
DWIDTH 21 0
BBX 17 26 2 0
BITMAP
07E000
0FF800
1FFC00
3C3E00
780F00
700700
700700
700780
800380
000380
000380
000380
03FF80
03FF80
03FF80
000380
000380
000380
F00380
700700
700700
780F00
3C1E00
1FFC00
0FF800
07E000
ENDCHAR
STARTCHAR uni042E
ENCODING 1070
SWIDTH 765 0
DWIDTH 28 0
BBX 23 26 3 0
BITMAP
E00FC0
E03FF0
E07FF8
E0F87C
E1E01C
E1C01E
E1C00E
E3C00E
E3C00E
E3800E
E3800E
FF800E
FF800E
FF800E
E3800E
E3800E
E3800E
E3C00E
E1C00E
E1C00E
E1C01E
E0E01C
E0F87C
E07FF8
E03FF0
E00FC0
ENDCHAR
STARTCHAR uni042F
ENCODING 1071
SWIDTH 562 0
DWIDTH 20 0
BBX 15 26 2 0
BITMAP
07FE
1FFE
3FFE
7C0E
780E
700E
F00E
F00E
F00E
F00E
700E
780E
3C0E
3FFE
0FFE
0FFE
0E0E
1E0E
1C0E
3C0E
380E
380E
780E
700E
F00E
E00E
ENDCHAR
STARTCHAR uni0430
ENCODING 1072
SWIDTH 479 0
DWIDTH 17 0
BBX 13 19 2 0
BITMAP
0FC0
3FE0
7FF0
78F0
F078
E078
0038
0038
0FF8
3FF8
7FF8
F838
E038
E038
E078
F0F8
FFF8
7FB8
1E38
ENDCHAR
STARTCHAR uni0431
ENCODING 1073
SWIDTH 484 0
DWIDTH 17 0
BBX 14 27 2 0
BITMAP
0038
0038
00F0
07F0
1FC0
3E00
3800
7000
6000
E7C0
DFE0
FFF0
F878
F038
E03C
E01C
E01C
E01C
E01C
E01C
E03C
E038
F038
7878
3FF0
3FE0
0F80
ENDCHAR
STARTCHAR uni0432
ENCODING 1074
SWIDTH 503 0
DWIDTH 18 0
BBX 13 19 3 0
BITMAP
FF80
FFE0
FFF0
E0F0
E078
E038
E070
E0F0
FFE0
FFE0
FFF0
E078
E038
E038
E038
E078
FFF8
FFF0
FFC0
ENDCHAR
STARTCHAR uni0433
ENCODING 1075
SWIDTH 371 0
DWIDTH 13 0
BBX 10 19 3 0
BITMAP
FFC0
FFC0
FFC0
E000
E000
E000
E000
E000
E000
E000
E000
E000
E000
E000
E000
E000
E000
E000
E000
ENDCHAR
STARTCHAR uni0434
ENCODING 1076
SWIDTH 536 0
DWIDTH 19 0
BBX 17 25 1 -6
BITMAP
0FFE00
0FFE00
0FFE00
0E0E00
0E0E00
0E0E00
0E0E00
0E0E00
0E0E00
0E0E00
0E0E00
1C0E00
1C0E00
1C0E00
380E00
780E00
FFFF80
FFFF80
FFFF80
E00380
E00380
E00380
E00380
E00380
E00380
ENDCHAR
STARTCHAR uni0435
ENCODING 1077
SWIDTH 468 0
DWIDTH 17 0
BBX 14 19 2 0
BITMAP
0FC0
3FE0
3FF0
7878
F038
E038
E038
E038
FFFC
FFFC
FFFC
E000
E000
E000
F010
7838
7FF8
3FF0
0FC0
ENDCHAR
STARTCHAR uni0436
ENCODING 1078
SWIDTH 662 0
DWIDTH 24 0
BBX 22 19 1 0
BITMAP
F0703C
787078
787070
3870F0
1C70E0
1C71E0
0E71C0
0E73C0
07FF80
07FF80
0FFF80
0E73C0
1E71C0
1C71E0
3C70F0
3870F0
787078
F07078
F0703C
ENDCHAR
STARTCHAR uni0437
ENCODING 1079
SWIDTH 446 0
DWIDTH 16 0
BBX 12 19 2 0
BITMAP
1F80
3FC0
7FE0
F0F0
E070
0070
0070
00E0
1FE0
1FC0
1FE0
00F0
0070
E070
E070
F0F0
FFF0
7FE0
1F80
ENDCHAR
STARTCHAR uni0438
ENCODING 1080
SWIDTH 509 0
DWIDTH 18 0
BBX 13 19 3 0
BITMAP
E078
E078
E0F8
E0F8
E1F8
E1B8
E3B8
E338
E738
E638
EE38
EC38
FC38
F838
F838
F038
F038
E038
E038
ENDCHAR
STARTCHAR uni0439
ENCODING 1081
SWIDTH 509 0
DWIDTH 18 0
BBX 13 26 3 0
BITMAP
6060
70E0
70E0
3FC0
0F80
0000
0000
E078
E078
E0F8
E0F8
E1F8
E1B8
E3B8
E338
E738
E638
EE38
EC38
FC38
F838
F838
F038
F038
E038
E038
ENDCHAR
STARTCHAR uni043A
ENCODING 1082
SWIDTH 479 0
DWIDTH 17 0
BBX 14 19 3 0
BITMAP
E078
E0F0
E0E0
E1E0
E1C0
E380
E780
E700
FE00
FE00
FF00
E780
E780
E3C0
E1E0
E1E0
E0F0
E078
E07C
ENDCHAR
STARTCHAR uni043B
ENCODING 1083
SWIDTH 509 0
DWIDTH 18 0
BBX 15 19 1 0
BITMAP
1FFE
1FFE
1FFE
1C1E
1C1E
1C1E
1C1E
1C1E
1C1E
1C1E
1C1E
1C1E
1C1E
1C1E
3C1E
381E
F81E
F01E
E01E
ENDCHAR
STARTCHAR uni043C
ENCODING 1084
SWIDTH 645 0
DWIDTH 23 0
BBX 18 19 3 0
BITMAP
F003C0
F007C0
F007C0
F807C0
F80FC0
FC0FC0
FC1DC0
FC1DC0
EE1DC0
EE39C0
EE39C0
E731C0
E771C0
E371C0
E3E1C0
E3E1C0
E1E1C0
E1C1C0
E1C1C0
ENDCHAR
STARTCHAR uni043D
ENCODING 1085
SWIDTH 508 0
DWIDTH 18 0
BBX 13 19 3 0
BITMAP
E038
E038
E038
E038
E038
E038
E038
E038
FFF8
FFF8
FFF8
E038
E038
E038
E038
E038
E038
E038
E038
ENDCHAR
STARTCHAR uni043E
ENCODING 1086
SWIDTH 501 0
DWIDTH 18 0
BBX 14 19 2 0
BITMAP
0FC0
1FE0
7FF0
7878
F03C
E01C
E01C
E01C
E01C
E01C
E01C
E01C
E01C
E01C
F03C
7878
7FF0
3FE0
0FC0
ENDCHAR
STARTCHAR uni043F
ENCODING 1087
SWIDTH 509 0
DWIDTH 18 0
BBX 13 19 3 0
BITMAP
FFF8
FFF8
FFF8
E038
E038
E038
E038
E038
E038
E038
E038
E038
E038
E038
E038
E038
E038
E038
E038
ENDCHAR
STARTCHAR uni0440
ENCODING 1088
SWIDTH 493 0
DWIDTH 18 0
BBX 14 26 2 -7
BITMAP
E3E0
EFF0
FFF8
F878
F03C
F01C
F01C
F01C
F01C
F01C
F01C
F01C
F01C
F01C
F03C
F878
FFF8
FFF0
F7E0
F000
F000
F000
F000
F000
F000
F000
ENDCHAR
STARTCHAR uni0441
ENCODING 1089
SWIDTH 461 0
DWIDTH 17 0
BBX 14 19 2 0
BITMAP
0FC0
3FE0
7FF0
7878
F038
E038
E01C
E000
E000
E000
E000
E000
E01C
E038
F038
7878
7FF0
3FE0
0FC0
ENDCHAR
STARTCHAR uni0442
ENCODING 1090
SWIDTH 424 0
DWIDTH 15 0
BBX 13 19 1 0
BITMAP
FFF8
FFF8
FFF8
0700
0700
0700
0700
0700
0700
0700
0700
0700
0700
0700
0700
0700
0700
0700
0700
ENDCHAR
STARTCHAR uni0443
ENCODING 1091
SWIDTH 416 0
DWIDTH 15 0
BBX 13 26 1 -7
BITMAP
E038
E038
F078
7070
7070
7070
38E0
38E0
38E0
18E0
1DC0
1DC0
1DC0
0F80
0F80
0F80
0700
0700
0700
0700
0E00
0E00
1E00
7C00
7800
7000
ENDCHAR
STARTCHAR uni0444
ENCODING 1092
SWIDTH 628 0
DWIDTH 23 0
BBX 19 34 2 -7
BITMAP
00E000
00E000
00E000
00E000
00E000
00E000
00E000
00E000
0FFE00
3FFF80
3FFF80
78E3C0
70E1C0
F0E1E0
E0E0E0
E0E0E0
E0E0E0
E0E0E0
E0E0E0
E0E0E0
E0E0E0
F0E1E0
70E1C0
78E3C0
7FFFC0
3FFF80
1FFE00
00E000
00E000
00E000
00E000
00E000
00E000
00E000
ENDCHAR
STARTCHAR uni0445
ENCODING 1093
SWIDTH 438 0
DWIDTH 16 0
BBX 14 19 1 0
BITMAP
F03C
7078
7870
38F0
1CE0
1DE0
0FC0
0FC0
0780
0780
0780
0FC0
1FC0
1CE0
3CE0
3870
7870
7038
F03C
ENDCHAR
STARTCHAR uni0446
ENCODING 1094
SWIDTH 524 0
DWIDTH 19 0
BBX 15 25 3 -6
BITMAP
E038
E038
E038
E038
E038
E038
E038
E038
E038
E038
E038
E038
E038
E038
E038
E038
FFFE
FFFE
FFFE
000E
000E
000E
000C
000C
000C
ENDCHAR
STARTCHAR uni0447
ENCODING 1095
SWIDTH 479 0
DWIDTH 17 0
BBX 13 19 2 0
BITMAP
E078
E078
E078
E078
E078
E078
E078
E078
E078
F078
7FF8
3FF8
1FF8
0078
0078
0078
0078
0078
0078
ENDCHAR
STARTCHAR uni0448
ENCODING 1096
SWIDTH 703 0
DWIDTH 25 0
BBX 20 19 3 0
BITMAP
E0E070
E0E070
E0E070
E0E070
E0E070
E0E070
E0E070
E0E070
E0E070
E0E070
E0E070
E0E070
E0E070
E0E070
E0E070
E0E070
FFFFF0
FFFFF0
FFFFF0
ENDCHAR
STARTCHAR uni0449
ENCODING 1097
SWIDTH 722 0
DWIDTH 26 0
BBX 23 25 2 -6
BITMAP
F07070
F07070
F07070
F07070
F07070
F07070
F07070
F07070
F07070
F07070
F07070
F07070
F07070
F07070
F07070
F07070
FFFFFE
FFFFFE
FFFFFE
00000E
00000E
00000E
00000E
00000E
00000E
ENDCHAR
STARTCHAR uni044A
ENCODING 1098
SWIDTH 538 0
DWIDTH 19 0
BBX 17 19 1 0
BITMAP
FE0000
FE0000
FE0000
0E0000
0E0000
0E0000
0E0000
0FFC00
0FFE00
0FFF00
0E0780
0E0380
0E0380
0E0380
0E0380
0E0780
0FFF00
0FFE00
0FFC00
ENDCHAR
STARTCHAR uni044B
ENCODING 1099
SWIDTH 679 0
DWIDTH 24 0
BBX 19 19 2 0
BITMAP
E000E0
E000E0
E000E0
E000E0
E000E0
E000E0
E000E0
FFC0E0
FFF0E0
FFF0E0
E078E0
E038E0
E038E0
E038E0
E038E0
E078E0
FFF0E0
FFF0E0
FFC0E0
ENDCHAR
STARTCHAR uni044C
ENCODING 1100
SWIDTH 478 0
DWIDTH 17 0
BBX 13 19 2 0
BITMAP
F000
F000
F000
F000
F000
F000
F000
FFC0
FFF0
FFF8
F078
F038
F038
F038
F038
F078
FFF8
FFF0
FFC0
ENDCHAR
STARTCHAR uni044D
ENCODING 1101
SWIDTH 472 0
DWIDTH 17 0
BBX 13 19 2 0
BITMAP
0F80
3FC0
7FE0
F0F0
E070
E078
0038
0038
0FF8
0FF8
0FF8
0038
E038
E078
E070
F0F0
7FE0
3FC0
1F00
ENDCHAR
STARTCHAR uni044E
ENCODING 1102
SWIDTH 706 0
DWIDTH 25 0
BBX 22 19 2 0
BITMAP
F00F80
F03FE0
F07FF0
F0F8F0
F0E078
F1E038
F1E038
F1C03C
FFC01C
FFC01C
FFC03C
F1C03C
F1C038
F1E038
F0E078
F0F0F0
F07FF0
F03FE0
F00F80
ENDCHAR
STARTCHAR uni044F
ENCODING 1103
SWIDTH 482 0
DWIDTH 17 0
BBX 14 19 1 0
BITMAP
0FFC
3FFC
3FFC
783C
703C
703C
703C
703C
783C
7FFC
3FFC
0FFC
1E3C
1C3C
383C
383C
703C
F03C
E03C
ENDCHAR
STARTCHAR uni0450
ENCODING 1104
SWIDTH 468 0
DWIDTH 17 0
BBX 14 26 2 0
BITMAP
7C00
1C00
1E00
0F00
0780
0000
0000
0FC0
3FE0
3FF0
7878
F038
E038
E038
E038
FFFC
FFFC
FFFC
E000
E000
E000
F010
7838
7FF8
3FF0
0FC0
ENDCHAR
STARTCHAR uni0451
ENCODING 1105
SWIDTH 468 0
DWIDTH 17 0
BBX 14 26 2 0
BITMAP
3070
7870
7870
3070
0000
0000
0000
0FC0
3FE0
3FF0
7878
F038
E038
E038
E038
FFFC
FFFC
FFFC
E000
E000
E000
F010
7838
7FF8
3FF0
0FC0
ENDCHAR
STARTCHAR uni0452
ENCODING 1106
SWIDTH 482 0
DWIDTH 17 0
BBX 15 34 0 -7
BITMAP
3800
3800
3800
FF80
FF80
FF80
3800
3800
39F0
3BF8
3FFC
3E1E
3C1E
380E
380E
380E
380E
380E
380E
380E
380E
380E
380E
380E
380E
380E
380E
000E
000E
000E
001E
007C
00FC
00F0
ENDCHAR
STARTCHAR uni0453
ENCODING 1107
SWIDTH 371 0
DWIDTH 13 0
BBX 10 26 3 0
BITMAP
0780
0F00
1E00
1C00
3800
0000
0000
FFC0
FFC0
FFC0
E000
E000
E000
E000
E000
E000
E000
E000
E000
E000
E000
E000
E000
E000
E000
E000
ENDCHAR
STARTCHAR uni0454
ENCODING 1108
SWIDTH 472 0
DWIDTH 17 0
BBX 14 19 2 0
BITMAP
0FC0
1FE0
3FF0
7878
7038
E038
E018
E004
FF00
FF00
FF00
E000
E000
E03C
7038
7878
3FF0
1FE0
0FC0
ENDCHAR
STARTCHAR uni0455
ENCODING 1109
SWIDTH 455 0
DWIDTH 16 0
BBX 12 19 2 0
BITMAP
1F80
3FE0
7FE0
F0F0
E070
E070
F000
7C00
3F00
1FC0
07E0
01F0
0070
E070
E070
F0F0
7FF0
3FE0
1F80
ENDCHAR
STARTCHAR uni0456
ENCODING 1110
SWIDTH 229 0
DWIDTH 8 0
BBX 4 26 2 0
BITMAP
60
F0
F0
60
00
00
00
F0
F0
F0
F0
F0
F0
F0
F0
F0
F0
F0
F0
F0
F0
F0
F0
F0
F0
F0
ENDCHAR
STARTCHAR uni0457
ENCODING 1111
SWIDTH 234 0
DWIDTH 8 0
BBX 11 26 -1 0
BITMAP
E0C0
E1E0
E1E0
E0C0
0000
0000
0000
0E00
0E00
0E00
0E00
0E00
0E00
0E00
0E00
0E00
0E00
0E00
0E00
0E00
0E00
0E00
0E00
0E00
0E00
0E00
ENDCHAR
STARTCHAR uni0458
ENCODING 1112
SWIDTH 223 0
DWIDTH 8 0
BBX 6 33 0 -7
BITMAP
18
3C
3C
18
00
00
00
38
38
38
38
38
38
38
38
38
38
38
38
38
38
38
38
38
38
38
38
38
38
38
F8
F8
E0
ENDCHAR
STARTCHAR uni0459
ENCODING 1113
SWIDTH 729 0
DWIDTH 26 0
BBX 24 19 1 0
BITMAP
1FFC00
1FFC00
1FFC00
1C1C00
1C1C00
1C1C00
1C1C00
1C1FF8
1C1FFC
1C1FFE
1C1C0E
1C1C0F
1C1C07
1C1C07
381C0F
381C0E
F81FFE
F01FFC
E01FF0
ENDCHAR
STARTCHAR uni045A
ENCODING 1114
SWIDTH 743 0
DWIDTH 27 0
BBX 23 19 3 0
BITMAP
E03800
E03800
E03800
E03800
E03800
E03800
E03800
FFFFE0
FFFFF8
FFFFFC
E0383C
E0381E
E0380E
E0380E
E0381E
E0383C
E03FFC
E03FF8
E03FE0
ENDCHAR
STARTCHAR uni045B
ENCODING 1115
SWIDTH 499 0
DWIDTH 18 0
BBX 15 27 0 0
BITMAP
3800
3800
3800
FFC0
FFC0
FFC0
3800
3800
38F0
3BFC
3FFC
3E1E
3C0E
3C0E
380E
380E
380E
380E
380E
380E
380E
380E
380E
380E
380E
380E
380E
ENDCHAR
STARTCHAR uni045C
ENCODING 1116
SWIDTH 479 0
DWIDTH 17 0
BBX 14 26 3 0
BITMAP
01E0
0380
0780
0F00
0E00
0000
0000
E078
E0F0
E0E0
E1E0
E1C0
E380
E780
E700
FE00
FE00
FF00
E780
E780
E3C0
E1E0
E1E0
E0F0
E078
E07C
ENDCHAR
STARTCHAR uni045D
ENCODING 1117
SWIDTH 509 0
DWIDTH 18 0
BBX 13 26 3 0
BITMAP
7800
3C00
1C00
0E00
0700
0000
0000
E078
E078
E0F8
E0F8
E1F8
E1B8
E3B8
E338
E738
E638
EE38
EC38
FC38
F838
F838
F038
F038
E038
E038
ENDCHAR
STARTCHAR uni045E
ENCODING 1118
SWIDTH 416 0
DWIDTH 15 0
BBX 13 33 1 -7
BITMAP
7070
3070
38E0
1FE0
0F80
0000
0000
E038
E038
F078
7070
7070
7070
38E0
38E0
38E0
18E0
1DC0
1DC0
1DC0
0F80
0F80
0F80
0700
0700
0700
0700
0E00
0E00
1E00
7C00
7800
7000
ENDCHAR
STARTCHAR uni045F
ENCODING 1119
SWIDTH 509 0
DWIDTH 18 0
BBX 13 25 3 -6
BITMAP
E038
E038
E038
E038
E038
E038
E038
E038
E038
E038
E038
E038
E038
E038
E038
E038
FFF8
FFF8
FFF8
0700
0700
0700
0700
0700
0700
ENDCHAR
STARTCHAR uni0460
ENCODING 1120
SWIDTH 754 0
DWIDTH 27 0
BBX 23 26 2 0
BITMAP
F0381E
F0381E
F0381E
F0381E
F0381E
F0381E
F0381E
F0381E
F0381E
F0381E
F0381E
F0381E
F0381E
F0381E
F0381E
F0381E
F0381E
F0381E
F0381E
F0381E
703C1E
707C1C
78FE3C
3FEFF8
3FC7F8
0F83E0
ENDCHAR
STARTCHAR uni0461
ENCODING 1121
SWIDTH 650 0
DWIDTH 23 0
BBX 19 19 2 0
BITMAP
E0E0E0
E0E0E0
E0E0E0
E0E0E0
E0E0E0
E0E0E0
E0E0E0
E0E0E0
E0E0E0
E0E0E0
E0E0E0
E0E0E0
E0E0E0
E0E0E0
E0F0E0
F1F1E0
7FFFC0
7FBFC0
1F1F00
ENDCHAR
STARTCHAR uni0462
ENCODING 1122
SWIDTH 551 0
DWIDTH 20 0
BBX 19 26 -1 0
BITMAP
0E0000
0E0000
0E0000
0E0000
FFC000
FFC000
FFC000
0E0000
0E0000
0E0000
0E0000
0FFE00
0FFF80
0FFFC0
0E03E0
0E01E0
0E00E0
0E00E0
0E00E0
0E00E0
0E00E0
0E01E0
0E03C0
0FFFC0
0FFF80
0FFE00
ENDCHAR
STARTCHAR uni0463
ENCODING 1123
SWIDTH 477 0
DWIDTH 17 0
BBX 15 27 0 0
BITMAP
3C00
3C00
3C00
3C00
3C00
3C00
FFC0
FFC0
FFC0
3C00
3C00
3C00
3C00
3C00
3FF0
3FFC
3FFC
3C1E
3C0E
3C0E
3C0E
3C0E
3C0E
3C1E
3FFC
3FFC
3FF0
ENDCHAR
STARTCHAR uni0464
ENCODING 1124
SWIDTH 772 0
DWIDTH 28 0
BBX 23 26 3 0
BITMAP
E00FC0
E03FE0
E07FF0
E0F078
E1E03C
E1C01C
E1C01C
E3C01C
E38002
E38000
E38000
FFFF80
FFFF80
FFFF80
E38000
E38000
E38000
E38000
E3C01E
E3C01C
E1C01C
E1E03C
E0F078
E07FF0
E03FE0
E00F80
ENDCHAR
STARTCHAR uni0465
ENCODING 1125
SWIDTH 646 0
DWIDTH 23 0
BBX 20 19 2 0
BITMAP
F03F00
F07F80
F0FFC0
F1E1E0
F1C0E0
F3C0F0
F38070
F38000
FFFE00
FFFE00
FFFE00
F38000
F38000
F3C070
F1C0E0
F1E1E0
F0FFC0
F07F80
F03F00
ENDCHAR
STARTCHAR uni0466
ENCODING 1126
SWIDTH 526 0
DWIDTH 19 0
BBX 18 26 1 0
BITMAP
00E000
01E000
01E000
01E000
03F000
03F000
03F000
073800
073800
073800
073C00
0E1C00
0E1C00
0E1C00
1C0E00
1FFE00
1FFE00
3FFF00
39E700
39E700
39E700
79E780
71E380
71E380
F1E3C0
E1E1C0
ENDCHAR
STARTCHAR uni0467
ENCODING 1127
SWIDTH 470 0
DWIDTH 17 0
BBX 15 19 1 0
BITMAP
0380
0780
07C0
07C0
0FC0
0EE0
0EE0
1CE0
1C70
1C70
3870
3FF8
3FF8
7FF8
73BC
739C
F39C
E39E
E38E
ENDCHAR
STARTCHAR uni0468
ENCODING 1128
SWIDTH 759 0
DWIDTH 27 0
BBX 24 26 3 0
BITMAP
E00700
E00780
E00780
E00F80
E00FC0
E00FC0
E01FC0
E01DC0
E01CE0
E01CE0
E038E0
E03870
E03870
E07870
E07070
FFFFF8
FFFFF8
FFFFF8
E0E73C
E0E71C
E1E71C
E1C71E
E1C70E
E3C70E
E3870E
E3870F
ENDCHAR
STARTCHAR uni0469
ENCODING 1129
SWIDTH 654 0
DWIDTH 24 0
BBX 20 19 3 0
BITMAP
E03800
E03C00
E03C00
E07C00
E07E00
E07E00
E0EE00
E0E700
E0E700
E1C780
E1C380
FFFF80
FFFFC0
FFFFC0
E3BDC0
E73DE0
E73CE0
E73CE0
EE3CF0
ENDCHAR
STARTCHAR uni046A
ENCODING 1130
SWIDTH 747 0
DWIDTH 27 0
BBX 22 26 3 0
BITMAP
3FFFF0
3FFFE0
1FFFE0
1E03C0
0E03C0
0F0380
070780
078700
038F00
03CE00
01DE00
01FC00
1FFF80
3FFFE0
7FFFF0
F07078
E07038
E07038
E07038
E0703C
E0703C
E0703C
E0703C
E0703C
E0703C
E0703C
ENDCHAR
STARTCHAR uni046B
ENCODING 1131
SWIDTH 645 0
DWIDTH 23 0
BBX 19 19 2 0
BITMAP
3FFF80
1FFF00
0FFE00
0E0E00
071C00
071C00
03B800
03F800
0FFE00
3FFF00
3FFF80
78E3C0
70E1C0
70E1C0
F0E1E0
F0E1E0
F0E1E0
F0E1E0
F0E1E0
ENDCHAR
STARTCHAR uni046C
ENCODING 1132
SWIDTH 980 0
DWIDTH 35 0
BBX 30 26 3 0
BITMAP
E03FFFF0
E01FFFE0
E01FFFE0
E00E01C0
E00F03C0
E0070380
E0078780
E0038700
E003CE00
E001CE00
E001FC00
FFFFFFC0
FFFFFFE0
FFFFFFF0
E07878F8
E0F07038
E0E07038
E0E0703C
E0E0703C
E0E0703C
E0E0703C
E0E0703C
E0E0703C
E0E0703C
E0E0703C
E0E0703C
ENDCHAR
STARTCHAR uni046D
ENCODING 1133
SWIDTH 856 0
DWIDTH 31 0
BBX 25 19 3 0
BITMAP
E07FFF00
E03FFE00
E01FFC00
E01C1C00
E00E3800
E00E7800
E0077000
E007F000
FFFFFC00
FFFFFE00
FFFFFF00
E0F1C780
E0E1C380
E1E1C380
E1C1C380
E1C1C380
E1C1C380
E1C1C380
E1C1C380
ENDCHAR
STARTCHAR uni046E
ENCODING 1134
SWIDTH 454 0
DWIDTH 16 0
BBX 13 42 1 -8
BITMAP
3870
1CE0
0FC0
0780
0300
0000
0000
0000
7F00
7FC0
7FE0
01F0
0070
0070
0070
0070
0070
0070
00E0
1FC0
1F80
1FE0
00F0
0070
0078
0038
0038
0038
0078
0070
00F0
1FE0
7FC0
7F80
F000
E000
E000
E000
7000
7800
3800
1000
ENDCHAR
STARTCHAR uni046F
ENCODING 1135
SWIDTH 423 0
DWIDTH 15 0
BBX 12 36 1 -8
BITMAP
70E0
39C0
1F80
0F00
0600
0000
0000
0000
0000
7F80
7FC0
7FE0
00F0
0070
0070
0070
00E0
1FE0
1F80
1FE0
00F0
0070
0070
0070
00F0
1FF0
7FE0
7F80
F000
E000
E000
E000
7000
7800
3C00
1800
ENDCHAR
STARTCHAR uni0470
ENCODING 1136
SWIDTH 600 0
DWIDTH 22 0
BBX 18 26 2 0
BITMAP
E1C1C0
E1C1C0
E1C1C0
E1C1C0
E1C1C0
E1C1C0
E1C1C0
E1C1C0
E1C1C0
E1C1C0
E1C1C0
E1C1C0
E1C3C0
F1C3C0
71C380
79C780
3DCF00
3FFE00
1FFC00
07F000
01C000
01C000
01C000
01C000
01C000
01C000
ENDCHAR
STARTCHAR uni0471
ENCODING 1137
SWIDTH 612 0
DWIDTH 22 0
BBX 19 27 2 -8
BITMAP
E1C380
E1C380
E1C3C0
E1C1C0
E1C1C0
E1C1C0
E1C1C0
E1C1C0
E1C1E0
E1C1E0
E1C1C0
E1C1C0
E1C1C0
F1C3C0
79C780
7DCF80
3FFF00
1FFE00
07F800
01C000
01C000
01C000
01C000
01C000
01C000
01C000
01C000
ENDCHAR
STARTCHAR uni0472
ENCODING 1138
SWIDTH 593 0
DWIDTH 21 0
BBX 17 26 2 0
BITMAP
03E000
0FF800
1FFC00
3C3E00
780E00
700F00
F00700
E00780
E00380
E00380
E00380
E00380
FFFF80
FFFF80
FFFF80
E00380
E00380
E00380
E00780
F00700
700700
780E00
3C1E00
1FFC00
0FF800
03E000
ENDCHAR
STARTCHAR uni0473
ENCODING 1139
SWIDTH 497 0
DWIDTH 18 0
BBX 14 19 2 0
BITMAP
07C0
1FE0
3FF0
7878
7038
F01C
E01C
E01C
FFFC
FFFC
FFFC
E01C
E01C
E01C
703C
7878
3FF0
1FE0
07C0
ENDCHAR
STARTCHAR uni0474
ENCODING 1140
SWIDTH 553 0
DWIDTH 20 0
BBX 18 26 1 0
BITMAP
E001C0
F003C0
F003C0
700780
700700
780700
380F00
380E00
380E00
3C0E00
1C1C00
1C1C00
1C1C00
0E1C00
0E3800
0E3800
0E3800
073000
077000
077000
037000
03E000
03E000
01E000
01C000
01C000
ENDCHAR
STARTCHAR uni0475
ENCODING 1141
SWIDTH 443 0
DWIDTH 16 0
BBX 15 19 1 0
BITMAP
E01E
F03E
703C
7078
7070
3870
3870
3870
18E0
1CE0
1CE0
1CC0
0DC0
0FC0
0F80
0780
0780
0700
0300
ENDCHAR
STARTCHAR uni0476
ENCODING 1142
SWIDTH 553 0
DWIDTH 20 0
BBX 18 31 1 0
BITMAP
7BC000
3DC000
1CE000
0EE000
077000
E001C0
F003C0
F003C0
700780
700700
780700
380F00
380E00
380E00
3C0E00
1C1C00
1C1C00
1C1C00
0E1C00
0E3800
0E3800
0E3800
073000
077000
077000
037000
03E000
03E000
01E000
01C000
01C000
ENDCHAR
STARTCHAR uni0477
ENCODING 1143
SWIDTH 443 0
DWIDTH 16 0
BBX 16 26 0 0
BITMAP
F780
3BC0
3DC0
1EE0
0F60
0000
0000
700F
781F
381E
383C
3838
1C38
1C38
1C38
0C70
0E70
0E70
0E60
06E0
07E0
07C0
03C0
03C0
0380
0180
ENDCHAR
STARTCHAR uni0478
ENCODING 1144
SWIDTH 1017 0
DWIDTH 37 0
BBX 34 33 2 -7
BITMAP
03F0000000
0FFC000000
1FFE000000
3E1F000000
3807000000
7807800000
7003800000
70038F03C0
70038703C0
F003C70380
F003C78380
F003C38780
F003C38700
F003C38700
F003C1C700
F003C1CE00
F003C1CE00
F00381CE00
700380EE00
700380FC00
780780FC00
3807007C00
3E1F007800
1FFE007800
0FFC003800
03F0003000
0000007000
0000007000
0000007000
000000E000
000007E000
000007C000
0000078000
ENDCHAR
STARTCHAR uni0479
ENCODING 1145
SWIDTH 918 0
DWIDTH 33 0
BBX 30 26 2 -7
BITMAP
0FC0701C
1FE0701C
7FF0783C
78783838
F03C3838
E01C3C38
E01C1C70
E01C1C70
E01C1C70
E01C0E70
E01C0EE0
E01C0EE0
E01C06E0
E01C07C0
F03C07C0
787807C0
7FF003C0
3FE00380
0FC00380
00000380
00000300
00000700
00000F00
00003E00
00003C00
00003800
ENDCHAR
STARTCHAR uni047A
ENCODING 1146
SWIDTH 593 0
DWIDTH 21 0
BBX 17 30 2 -2
BITMAP
01C000
01C000
07E000
0FF800
1FFC00
3DDE00
79CF00
700700
F00700
E00780
E00380
E00380
E00380
E00380
E00380
E00380
E00380
E00380
E00380
E00380
E00780
F00700
700700
79CF00
3DDE00
1FFC00
0FF800
07F000
01C000
01C000
ENDCHAR
STARTCHAR uni047B
ENCODING 1147
SWIDTH 498 0
DWIDTH 18 0
BBX 14 23 2 -2
BITMAP
0780
0780
0FC0
1FE0
3FF0
7FF8
77B8
E01C
E01C
E01C
E01C
E01C
E01C
E01C
E01C
E01C
77B8
7FF8
3FF0
1FF0
0FC0
0780
0780
ENDCHAR
STARTCHAR uni047C
ENCODING 1148
SWIDTH 752 0
DWIDTH 27 0
BBX 22 33 3 0
BITMAP
01E000
03FC00
031F80
030780
003000
003000
003000
1C70C0
3C60E0
7C00F0
F00078
E00038
E00038
E0003C
E0003C
E0003C
E0003C
E0003C
E0703C
E0703C
E0703C
E0703C
E0703C
E0703C
E0703C
E0703C
E0703C
E07038
E0F838
F1FC78
7FDFF0
3FCFE0
1F07C0
ENDCHAR
STARTCHAR uni047D
ENCODING 1149
SWIDTH 654 0
DWIDTH 24 0
BBX 20 26 2 0
BITMAP
01E000
03FC00
031F80
030780
003000
003000
003000
1C7380
3C63C0
7C03E0
7800E0
7000E0
F00070
E00070
E00070
E00070
E0F070
E0F070
E0F070
E0F070
F0F0F0
70F0E0
71F8E0
7FFFE0
3F9FC0
1F0F80
ENDCHAR
STARTCHAR uni047E
ENCODING 1150
SWIDTH 754 0
DWIDTH 27 0
BBX 23 32 2 0
BITMAP
03FFC0
03FFC0
003800
003800
000000
000000
F0381E
F0381E
F0381E
F0381E
F0381E
F0381E
F0381E
F0381E
F0381E
F0381E
F0381E
F0381E
F0381E
F0381E
F0381E
F0381E
F0381E
F0381E
F0381E
F0381E
703C1E
707C1C
78FE3C
3FEFF8
3FC7F8
0F83E0
ENDCHAR
STARTCHAR uni047F
ENCODING 1151
SWIDTH 650 0
DWIDTH 23 0
BBX 19 25 2 0
BITMAP
0FFF00
0FFF00
00E000
00E000
000000
000000
E0E0E0
E0E0E0
E0E0E0
E0E0E0
E0E0E0
E0E0E0
E0E0E0
E0E0E0
E0E0E0
E0E0E0
E0E0E0
E0E0E0
E0E0E0
E0E0E0
E0F0E0
F1F1E0
7FFFC0
7FBFC0
1F1F00
ENDCHAR
STARTCHAR uni0480
ENCODING 1152
SWIDTH 570 0
DWIDTH 21 0
BBX 17 33 2 -7
BITMAP
03F000
0FF800
1FFE00
3E1E00
380F00
780700
700700
700780
F00780
F00000
E00000
E00000
E00000
E00000
E00000
E00000
F00000
F00000
700000
700000
780000
380000
3E0000
1FC000
0FC000
03C000
01C000
01C000
01C000
01C000
01C000
01C000
01C000
ENDCHAR
STARTCHAR uni0481
ENCODING 1153
SWIDTH 472 0
DWIDTH 17 0
BBX 13 26 2 -7
BITMAP
0F80
1FE0
3FF0
78F0
7078
F038
E038
E000
E000
E000
E000
E000
E000
F000
7000
7800
3F00
3F00
0F00
0700
0700
0700
0700
0700
0700
0700
ENDCHAR
STARTCHAR uni0482
ENCODING 1154
SWIDTH 547 0
DWIDTH 20 0
BBX 16 24 2 0
BITMAP
000E
001C
001C
0418
0E38
07B0
03F0
01F0
00F8
00FC
01CF
0186
4382
F380
7F00
3F00
0F00
0F80
1DE0
1CF0
1860
3800
3000
7000
ENDCHAR
STARTCHAR uni0483
ENCODING 1155
SWIDTH 0 0
DWIDTH 0 0
BBX 11 6 -14 21
BITMAP
0060
0060
FFE0
FFE0
E000
E000
ENDCHAR
STARTCHAR uni0484
ENCODING 1156
SWIDTH 0 0
DWIDTH 0 0
BBX 11 4 -13 23
BITMAP
03C0
1FE0
FC60
E060
ENDCHAR
STARTCHAR uni0485
ENCODING 1157
SWIDTH 0 0
DWIDTH 0 0
BBX 4 6 -10 23
BITMAP
E0
E0
60
70
30
20
ENDCHAR
STARTCHAR uni0486
ENCODING 1158
SWIDTH 0 0
DWIDTH 0 0
BBX 4 6 -9 23
BITMAP
70
70
70
60
60
C0
ENDCHAR
STARTCHAR uni0488
ENCODING 1160
SWIDTH 0 0
DWIDTH 0 0
BBX 35 32 -27 -6
BITMAP
0001E00000
0003F00000
0003180000
0003180000
0000000000
0780003C00
0FC0007E00
0C6000C600
0C6000C600
0000000000
0000000000
0000000000
0000000000
0000000000
3C00000780
7E00000FC0
6700001CC0
C300001860
0000000000
0000000000
0000000000
0000000000
0000000000
0780003800
0FC0007C00
0CE000C600
186000C600
0000000000
0000E00000
0003F00000
0003180000
0003180000
ENDCHAR
STARTCHAR uni0489
ENCODING 1161
SWIDTH 0 0
DWIDTH 0 0
BBX 32 33 -26 -7
BITMAP
0000C000
0000C000
0001C000
00018000
04018000
06038000
07000010
03000078
038001E0
018003C0
01000100
00000000
00000000
00000000
00000000
C0000030
FC00003E
3C00003F
04000003
00000000
00000000
00000000
00000000
00000080
008001C0
01C001C0
07C000C0
0F01C060
1801C060
00018020
00018000
00030000
00030000
ENDCHAR
STARTCHAR uni048A
ENCODING 1162
SWIDTH 666 0
DWIDTH 24 0
BBX 20 38 3 -6
BITMAP
0C1C00
0C1C00
0E3C00
07F800
03E000
000000
E00700
E00F00
E00F00
E01F00
E01F00
E03F00
E03F00
E07700
E07700
E0E700
E0E700
E1C700
E1C700
E38700
E38700
E70700
E70700
EE0700
EE0700
FC0700
FC0700
F80700
F80700
F007F0
F007F0
E007F0
0000F0
0000E0
0000E0
0001E0
0001C0
000080
ENDCHAR
STARTCHAR uni048B
ENCODING 1163
SWIDTH 550 0
DWIDTH 20 0
BBX 16 32 3 -6
BITMAP
3070
3070
38E0
1FE0
0F80
0000
0000
E078
E078
E0F8
E0F8
E1F8
E1B8
E3B8
E338
E738
E638
EE38
EC38
FC38
F838
F838
F038
F03F
E03F
E03F
0007
0007
000E
000E
001C
000C
ENDCHAR
STARTCHAR uni048C
ENCODING 1164
SWIDTH 551 0
DWIDTH 20 0
BBX 19 26 -1 0
BITMAP
0E0000
0E0000
0E0000
0E0000
FFC000
FFC000
FFC000
0E0000
0E0000
0E0000
0E0000
0FFE00
0FFF80
0FFFC0
0E03E0
0E01E0
0E00E0
0E00E0
0E00E0
0E00E0
0E00E0
0E01E0
0E03C0
0FFFC0
0FFF80
0FFE00
ENDCHAR
STARTCHAR uni048D
ENCODING 1165
SWIDTH 477 0
DWIDTH 17 0
BBX 15 29 0 0
BITMAP
3C00
3C00
3C00
FFC0
FFC0
FFC0
3C00
3C00
3C00
3C00
3C00
3C00
3C00
3C00
3C00
3C00
3FF0
3FFC
3FFC
3C1E
3C0E
3C0E
3C0E
3C0E
3C0E
3C1E
3FFC
3FFC
3FF0
ENDCHAR
STARTCHAR uni048E
ENCODING 1166
SWIDTH 557 0
DWIDTH 20 0
BBX 16 26 3 0
BITMAP
FFE0
FFF8
FFFC
E03C
E01E
E00E
E00E
E00F
E00F
E06E
E07E
E07E
E03E
FFFC
FFFE
FFEF
E006
E004
E000
E000
E000
E000
E000
E000
E000
E000
ENDCHAR
STARTCHAR uni048F
ENCODING 1167
SWIDTH 496 0
DWIDTH 18 0
BBX 14 26 2 -7
BITMAP
E7C0
EFF0
FFF0
F878
F038
F03C
F01C
F01C
F01C
F01C
F01C
F01C
F05C
F1FC
F0F8
F878
FFF8
FFFC
F7DC
F008
F000
F000
F000
F000
F000
F000
ENDCHAR
STARTCHAR uni0490
ENCODING 1168
SWIDTH 479 0
DWIDTH 17 0
BBX 13 32 3 0
BITMAP
0038
0038
0038
0038
0038
0038
FFF8
FFF8
FFF8
E000
E000
E000
E000
E000
E000
E000
E000
E000
E000
E000
E000
E000
E000
E000
E000
E000
E000
E000
E000
E000
E000
E000
ENDCHAR
STARTCHAR uni0491
ENCODING 1169
SWIDTH 395 0
DWIDTH 14 0
BBX 11 25 2 0
BITMAP
00E0
00E0
00E0
00E0
00E0
00E0
FFE0
FFE0
FFE0
F000
F000
F000
F000
F000
F000
F000
F000
F000
F000
F000
F000
F000
F000
F000
F000
ENDCHAR
STARTCHAR uni0492
ENCODING 1170
SWIDTH 487 0
DWIDTH 18 0
BBX 16 26 0 0
BITMAP
1FFF
1FFF
1FFF
1C00
1C00
1C00
1C00
1C00
1C00
1C00
1C00
FFC0
FFC0
FFC0
1C00
1C00
1C00
1C00
1C00
1C00
1C00
1C00
1C00
1C00
1C00
1C00
ENDCHAR
STARTCHAR uni0493
ENCODING 1171
SWIDTH 371 0
DWIDTH 13 0
BBX 13 19 0 0
BITMAP
1FF8
1FF8
1FF8
1C00
1C00
1C00
1C00
1C00
FFC0
FFC0
FFC0
1C00
1C00
1C00
1C00
1C00
1C00
1C00
1C00
ENDCHAR
STARTCHAR uni0494
ENCODING 1172
SWIDTH 539 0
DWIDTH 19 0
BBX 14 31 3 -5
BITMAP
FFF8
FFF8
FFF8
E000
E000
E000
E000
E000
E000
E000
E000
FF80
FFE0
FFF0
E0F8
E038
E03C
E01C
E01C
E01C
E01C
E01C
E01C
E01C
E01C
E01C
003C
0078
01F0
01F0
01C0
ENDCHAR
STARTCHAR uni0495
ENCODING 1173
SWIDTH 443 0
DWIDTH 16 0
BBX 13 24 2 -5
BITMAP
FFE0
FFE0
FFE0
F000
F000
F000
F000
F000
FF00
FFC0
FFE0
F1F0
F0F0
F070
F078
F038
F038
F078
F070
00F0
01E0
03E0
03C0
0100
ENDCHAR
STARTCHAR uni0496
ENCODING 1174
SWIDTH 833 0
DWIDTH 30 0
BBX 28 32 1 -6
BITMAP
F00E03C0
780E03C0
380E0780
3C0E0780
1C0E0700
1E0E0F00
0E0E0E00
0E0E1E00
070E1C00
070E3C00
038E3800
038E3800
01FFF000
01FFF000
03FFF800
078E3800
078E3C00
0F0E1C00
0F0E1E00
1E0E0E00
1E0E0F00
3C0E0780
3C0E0780
780E03F0
780E03F0
F00E01F0
00000070
00000070
00000070
00000070
00000070
00000070
ENDCHAR
STARTCHAR uni0497
ENCODING 1175
SWIDTH 696 0
DWIDTH 25 0
BBX 23 25 1 -6
BITMAP
F0703C
787078
787070
3870F0
1C70E0
1C71E0
0E71C0
0E73C0
07FF80
07FF80
0FFF80
0E73C0
1E71C0
1C71E0
3C70F0
3870F0
78707E
F0707E
F0703E
00000E
00000E
00000E
00000E
00000E
00000E
ENDCHAR
STARTCHAR uni0498
ENCODING 1176
SWIDTH 517 0
DWIDTH 19 0
BBX 15 33 2 -7
BITMAP
0FE0
1FF0
3FFC
783C
F01E
E01E
E00E
000E
001E
001C
003C
07F8
07F0
07F8
003C
001E
000E
000E
000E
E00E
E00E
F01E
783C
7FFC
3FF0
0FE0
0380
0380
0380
0380
0380
0380
0380
ENDCHAR
STARTCHAR uni0499
ENCODING 1177
SWIDTH 446 0
DWIDTH 16 0
BBX 12 26 2 -7
BITMAP
1F80
3FC0
7FE0
F0F0
E070
0070
0070
00E0
1FE0
1FC0
1FE0
00F0
0070
E070
E070
F0F0
FFF0
7FE0
1F80
0F00
0F00
0F00
0F00
0F00
0F00
0F00
ENDCHAR
STARTCHAR uni049A
ENCODING 1178
SWIDTH 617 0
DWIDTH 22 0
BBX 18 32 3 -6
BITMAP
E00F00
E01E00
E01E00
E03C00
E07800
E07800
E0F000
E1E000
E1E000
E3C000
E78000
FF8000
FF0000
FF8000
E3C000
E3C000
E1E000
E0F000
E0F000
E07800
E03800
E03C00
E01E00
E01FC0
E00FC0
E007C0
0003C0
0003C0
0003C0
0003C0
0003C0
0003C0
ENDCHAR
STARTCHAR uni049B
ENCODING 1179
SWIDTH 524 0
DWIDTH 19 0
BBX 15 25 3 -6
BITMAP
E078
E0F0
E0E0
E1E0
E1C0
E380
E780
E700
FE00
FE00
FF00
E780
E780
E3C0
E1E0
E1E0
E0FE
E07E
E07E
000E
000E
000E
000E
000E
000E
ENDCHAR
STARTCHAR uni049C
ENCODING 1180
SWIDTH 553 0
DWIDTH 20 0
BBX 16 26 3 0
BITMAP
E00F
E00E
E01E
E01C
E03C
E038
E038
EE70
EE70
EE70
EEE0
EEE0
FFC0
FFC0
FFE0
EEE0
EEF0
EE70
EE78
E038
E03C
E01C
E01E
E01E
E00F
E00F
ENDCHAR
STARTCHAR uni049D
ENCODING 1181
SWIDTH 498 0
DWIDTH 18 0
BBX 15 19 3 0
BITMAP
E03C
E038
E078
E070
ECF0
ECE0
ECE0
EDC0
FF80
FFC0
FFC0
EDE0
ECE0
ECF0
E070
E078
E038
E03C
E01E
ENDCHAR
STARTCHAR uni049E
ENCODING 1182
SWIDTH 570 0
DWIDTH 21 0
BBX 20 26 0 0
BITMAP
1C01F0
1C01E0
1C03C0
1C0780
FFC780
FFCF00
FFDE00
1C1E00
1C3C00
1C7800
1C7800
1FF000
1FF000
1FF000
1C7800
1C3C00
1C3C00
1C1E00
1C0F00
1C0F00
1C0780
1C0380
1C03C0
1C01E0
1C01E0
1C00F0
ENDCHAR
STARTCHAR uni049F
ENCODING 1183
SWIDTH 462 0
DWIDTH 17 0
BBX 17 27 -1 0
BITMAP
0E0000
0E0000
0E0000
FFC000
FFC000
FFC000
0E0000
0E0000
0E0780
0E0F00
0E0E00
0E1E00
0E1C00
0E3800
0E3800
0E7000
0FF000
0FE000
0FF000
0E7800
0E3800
0E3C00
0E1E00
0E0E00
0E0F00
0E0700
0E0780
ENDCHAR
STARTCHAR uni04A0
ENCODING 1184
SWIDTH 710 0
DWIDTH 26 0
BBX 24 26 1 0
BITMAP
FFC01F
FFC01E
FFC03C
01C078
01C078
01C0F0
01C1E0
01C1E0
01C3C0
01C780
01C780
01FF00
01FF00
01FF00
01C780
01C3C0
01C3C0
01C1E0
01C0F0
01C0F0
01C078
01C078
01C03C
01C01E
01C01E
01C00F
ENDCHAR
STARTCHAR uni04A1
ENCODING 1185
SWIDTH 607 0
DWIDTH 22 0
BBX 21 19 1 0
BITMAP
FFC0F0
FFC1E0
FFC1C0
03C3C0
03C780
03C700
03CE00
03DE00
03FC00
03FC00
03FE00
03CE00
03CF00
03C780
03C380
03C3C0
03C1E0
03C0E0
03C0F8
ENDCHAR
STARTCHAR uni04A2
ENCODING 1186
SWIDTH 662 0
DWIDTH 24 0
BBX 19 32 3 -6
BITMAP
E00700
E00700
E00700
E00700
E00700
E00700
E00700
E00700
E00700
E00700
E00700
FFFF00
FFFF00
FFFF00
E00700
E00700
E00700
E00700
E00700
E00700
E00700
E00700
E00700
E007E0
E007E0
E007E0
0000E0
0000E0
0000E0
0000E0
0000E0
0000E0
ENDCHAR
STARTCHAR uni04A3
ENCODING 1187
SWIDTH 541 0
DWIDTH 19 0
BBX 15 25 3 -6
BITMAP
E038
E038
E038
E038
E038
E038
E038
E038
FFF8
FFF8
FFF8
E038
E038
E038
E038
E038
E03E
E03E
E03E
000E
000E
000E
000E
000E
000E
ENDCHAR
STARTCHAR uni04A4
ENCODING 1188
SWIDTH 829 0
DWIDTH 30 0
BBX 25 26 3 0
BITMAP
E007FF80
E007FF80
E007FF80
E0078000
E0078000
E0078000
E0078000
E0078000
E0078000
E0078000
E0078000
FFFF8000
FFFF8000
FFFF8000
E0078000
E0078000
E0078000
E0078000
E0078000
E0078000
E0078000
E0078000
E0078000
E0078000
E0078000
E0078000
ENDCHAR
STARTCHAR uni04A5
ENCODING 1189
SWIDTH 614 0
DWIDTH 22 0
BBX 19 19 2 0
BITMAP
F03FE0
F03FE0
F03FE0
F03800
F03800
F03800
F03800
F03800
FFF800
FFF800
FFF800
F03800
F03800
F03800
F03800
F03800
F03800
F03800
F03800
ENDCHAR
STARTCHAR uni04A6
ENCODING 1190
SWIDTH 880 0
DWIDTH 32 0
BBX 27 31 3 -5
BITMAP
FFFF8000
FFFF8000
FFFF8000
E0078000
E0078000
E0078000
E0078000
E0078000
E0078000
E0078000
E0078000
E007F800
E007FE00
E007FF00
E0078780
E00783C0
E00781C0
E00781E0
E00780E0
E00780E0
E00780E0
E00780E0
E00780E0
E00780E0
E00780E0
E00781C0
000001C0
000003C0
00000F80
00000F00
00000E00
ENDCHAR
STARTCHAR uni04A7
ENCODING 1191
SWIDTH 755 0
DWIDTH 27 0
BBX 24 24 2 -5
BITMAP
FFF800
FFF800
FFF800
E03800
E03800
E03800
E03800
E03800
E03FE0
E03FF8
E03FFC
E0383E
E0381E
E0380E
E0380F
E03807
E03807
E03807
E0380E
00000E
00003E
00007C
000038
000030
ENDCHAR
STARTCHAR uni04A8
ENCODING 1192
SWIDTH 641 0
DWIDTH 23 0
BBX 20 26 2 0
BITMAP
061E00
1E3F80
3E7FC0
38F1C0
70E1E0
70E0E0
F1E0E0
E1E0E0
E1C0E0
E1C0E0
E1C0E0
E1C0E0
E1C0E0
E1C0E0
E1C0E0
E1C0E0
E1E0E0
F0E0E0
70E1E0
70F1C0
787BC0
3C3F80
3E1F00
1FFFF0
0FFFF0
03F9F0
ENDCHAR
STARTCHAR uni04A9
ENCODING 1193
SWIDTH 528 0
DWIDTH 19 0
BBX 16 19 2 0
BITMAP
18F0
39F8
79FC
73DC
F38E
E38E
E38E
E38E
E38E
E38E
E38E
E38E
E38E
71DC
71FC
78F8
3FFF
1FFF
07CF
ENDCHAR
STARTCHAR uni04AA
ENCODING 1194
SWIDTH 566 0
DWIDTH 20 0
BBX 17 33 2 -7
BITMAP
03F000
0FFC00
1FFE00
3C1E00
780F00
700700
F00700
F00700
E00780
E00000
E00000
E00000
E00000
E00000
E00000
E00000
E00000
E00780
F00700
F00700
700700
780F00
3C1E00
1FFC00
0FF800
07E000
01C000
01C000
01C000
01C000
01C000
01C000
01C000
ENDCHAR
STARTCHAR uni04AB
ENCODING 1195
SWIDTH 461 0
DWIDTH 17 0
BBX 14 26 2 -7
BITMAP
0FC0
3FE0
7FF0
7878
F038
E038
E01C
E000
E000
E000
E000
E000
E000
E01C
F038
7878
7FF0
3FE0
0FC0
0700
0700
0700
0700
0700
0700
0700
ENDCHAR
STARTCHAR uni04AC
ENCODING 1196
SWIDTH 520 0
DWIDTH 19 0
BBX 17 32 1 -6
BITMAP
FFFF80
FFFF80
FFFF80
01C000
01C000
01C000
01C000
01C000
01C000
01C000
01C000
01C000
01C000
01C000
01C000
01C000
01C000
01C000
01C000
01C000
01C000
01C000
01C000
01F800
01F800
01F800
007800
007800
007800
007800
007800
007800
ENDCHAR
STARTCHAR uni04AD
ENCODING 1197
SWIDTH 424 0
DWIDTH 15 0
BBX 13 25 1 -6
BITMAP
FFF8
FFF8
FFF8
0700
0700
0700
0700
0700
0700
0700
0700
0700
0700
0700
0700
0700
07E0
07E0
07E0
00E0
00E0
00E0
00E0
00E0
00E0
ENDCHAR
STARTCHAR uni04AE
ENCODING 1198
SWIDTH 524 0
DWIDTH 19 0
BBX 17 26 1 0
BITMAP
E00780
F00780
700700
780F00
380E00
381E00
3C1C00
1C1C00
1E3C00
0E3800
0E7800
077000
077000
03E000
03E000
03C000
01C000
01C000
01C000
01C000
01C000
01C000
01C000
01C000
01C000
01C000
ENDCHAR
STARTCHAR uni04AF
ENCODING 1199
SWIDTH 444 0
DWIDTH 16 0
BBX 14 26 1 -7
BITMAP
E01C
F01C
7038
7038
7838
3870
3870
3870
1C70
1CE0
1CE0
0EE0
0FC0
0FC0
07C0
0780
0780
0380
0380
0380
0380
0380
0380
0380
0380
0380
ENDCHAR
STARTCHAR uni04B0
ENCODING 1200
SWIDTH 524 0
DWIDTH 19 0
BBX 17 26 1 0
BITMAP
E00380
F00780
700700
780F00
380E00
381E00
3C1C00
1C1C00
1E3C00
0E3800
0E7800
077000
077000
03E000
0FF800
0FF800
0FF800
01C000
01C000
01C000
01C000
01C000
01C000
01C000
01C000
01C000
ENDCHAR
STARTCHAR uni04B1
ENCODING 1201
SWIDTH 444 0
DWIDTH 16 0
BBX 14 26 1 -7
BITMAP
E01C
701C
7038
7038
7838
3870
3870
3870
1C60
1CE0
1CE0
0EE0
0FC0
0FC0
07C0
0780
3FF0
3FF0
3FF0
0380
0380
0380
0380
0380
0380
0380
ENDCHAR
STARTCHAR uni04B2
ENCODING 1202
SWIDTH 559 0
DWIDTH 20 0
BBX 18 32 1 -6
BITMAP
F003C0
780780
380700
3C0F00
1C0E00
1E1E00
0E1C00
0F3C00
073800
07F800
03F000
03F000
01E000
01E000
03F000
03F000
07F800
073800
0F3C00
0E1C00
1E1E00
1C0E00
3C0F00
7807C0
7807C0
F003C0
0001C0
0001C0
0001C0
0001C0
0001C0
0001C0
ENDCHAR
STARTCHAR uni04B3
ENCODING 1203
SWIDTH 465 0
DWIDTH 17 0
BBX 15 25 1 -6
BITMAP
F03C
7078
7870
38F0
1CE0
1DE0
0FC0
0FC0
0780
0780
0780
0FC0
1FC0
1CE0
3CE0
3870
787E
703E
F03E
000E
000E
000E
000E
000E
000E
ENDCHAR
STARTCHAR uni04B4
ENCODING 1204
SWIDTH 781 0
DWIDTH 28 0
BBX 24 32 1 -6
BITMAP
FFFC1C
FFFC1C
FFFC1C
03801C
03801C
03801C
03801C
03801C
03801C
03801C
03801C
03801C
03801C
03801C
03801C
03801C
03801C
03801C
03801C
03801C
03801C
03801C
03801C
03FFFF
03FFFF
03FFFF
000007
000007
000007
000007
000007
000007
ENDCHAR
STARTCHAR uni04B5
ENCODING 1205
SWIDTH 587 0
DWIDTH 21 0
BBX 19 25 1 -6
BITMAP
FFC380
FFC380
FFC380
0E0380
0E0380
0E0380
0E0380
0E0380
0E0380
0E0380
0E0380
0E0380
0E0380
0E0380
0E0380
0E0380
0FFFE0
0FFFE0
0FFFE0
0000E0
0000E0
0000E0
0000E0
0000E0
0000E0
ENDCHAR
STARTCHAR uni04B6
ENCODING 1206
SWIDTH 638 0
DWIDTH 23 0
BBX 18 32 3 -6
BITMAP
E00700
E00700
E00700
E00700
E00700
E00700
E00700
E00700
E00700
E00700
E00700
F00700
F81F00
7FFF00
3FFF00
0FE700
000700
000700
000700
000700
000700
000700
000700
0007C0
0007C0
0007C0
0001C0
0001C0
0001C0
0001C0
0001C0
0001C0
ENDCHAR
STARTCHAR uni04B7
ENCODING 1207
SWIDTH 512 0
DWIDTH 18 0
BBX 15 25 2 -6
BITMAP
E078
E078
E078
E078
E078
E078
E078
E078
E078
F078
7FF8
3FF8
1FF8
0078
0078
0078
007E
007E
007E
000E
000E
000E
000E
000E
000E
ENDCHAR
STARTCHAR uni04B8
ENCODING 1208
SWIDTH 595 0
DWIDTH 21 0
BBX 16 26 2 0
BITMAP
E007
E007
E007
E007
E007
E007
E007
E007
E0C7
F0C7
F0C7
70C7
78CF
7FFF
3FFF
0FF7
00C7
00C7
00C7
00C7
0007
0007
0007
0007
0007
0007
ENDCHAR
STARTCHAR uni04B9
ENCODING 1209
SWIDTH 483 0
DWIDTH 17 0
BBX 13 19 2 0
BITMAP
E038
E038
E038
E038
E038
E738
E738
E738
F738
7738
7FF8
3FF8
1FF8
0738
0738
0038
0038
0038
0038
ENDCHAR
STARTCHAR uni04BA
ENCODING 1210
SWIDTH 595 0
DWIDTH 21 0
BBX 16 26 2 0
BITMAP
E000
E000
E000
E000
E000
E000
E000
E000
E000
E000
E7F0
FFFC
FFFE
F81E
E00F
E007
E007
E007
E007
E007
E007
E007
E007
E007
E007
E007
ENDCHAR
STARTCHAR uni04BB
ENCODING 1211
SWIDTH 482 0
DWIDTH 17 0
BBX 13 27 2 0
BITMAP
E000
E000
E000
E000
E000
E000
E000
E000
E7C0
EFE0
FFF0
F870
F078
E038
E038
E038
E038
E038
E038
E038
E038
E038
E038
E038
E038
E038
E038
ENDCHAR
STARTCHAR uni04BC
ENCODING 1212
SWIDTH 674 0
DWIDTH 24 0
BBX 21 26 1 0
BITMAP
001F00
007FC0
00FFE0
01E1E0
03C0F0
038070
038078
E78038
E70038
670038
770038
3FFFF8
3FFFF8
0FFFF8
070000
070000
070000
070000
078000
038000
038000
03C000
01F060
00FFF0
007FF0
001FC0
ENDCHAR
STARTCHAR uni04BD
ENCODING 1213
SWIDTH 518 0
DWIDTH 19 0
BBX 17 19 0 0
BITMAP
00F800
01FE00
03FE00
078F00
CF0700
CE0380
EE0380
FE0380
7FFF80
3FFF80
1FFF80
0E0000
0E0000
0E0000
0F0100
078780
07FF00
03FE00
00FC00
ENDCHAR
STARTCHAR uni04BE
ENCODING 1214
SWIDTH 674 0
DWIDTH 24 0
BBX 21 33 1 -7
BITMAP
001F00
007FC0
00FFE0
01E1E0
03C0F0
038070
038078
E78038
E70038
670038
770038
3FFFF8
3FFFF8
0FFFF8
070000
070000
070000
070000
078000
038000
038000
03C000
01F060
00FFF0
007FF0
001FC0
000E00
000E00
000E00
000E00
000E00
000E00
000E00
ENDCHAR
STARTCHAR uni04BF
ENCODING 1215
SWIDTH 518 0
DWIDTH 19 0
BBX 17 26 0 -7
BITMAP
00F800
01FE00
03FE00
078F00
CF0700
CE0380
EE0380
FE0380
7FFF80
3FFF80
1FFF80
0E0000
0E0000
0E0000
0F0100
078780
07FF00
03FE00
00FC00
007000
007000
007000
007000
007000
007000
007000
ENDCHAR
STARTCHAR uni04C0
ENCODING 1216
SWIDTH 250 0
DWIDTH 9 0
BBX 3 26 3 0
BITMAP
E0
E0
E0
E0
E0
E0
E0
E0
E0
E0
E0
E0
E0
E0
E0
E0
E0
E0
E0
E0
E0
E0
E0
E0
E0
E0
ENDCHAR
STARTCHAR uni04C1
ENCODING 1217
SWIDTH 791 0
DWIDTH 28 0
BBX 27 32 1 0
BITMAP
00E0C000
00E1C000
00E1C000
007F8000
001F0000
00000000
F00E03C0
780E03C0
380E0780
3C0E0780
1C0E0700
1E0E0F00
0E0E0E00
0E0E1E00
070E1C00
070E3C00
038E3800
038E3800
01FFF000
01FFF000
03FFF800
078E3800
078E3C00
0F0E1C00
0F0E1E00
1E0E0E00
1E0E0F00
3C0E0780
3C0E0780
780E03C0
780E03C0
F00E01E0
ENDCHAR
STARTCHAR uni04C2
ENCODING 1218
SWIDTH 662 0
DWIDTH 24 0
BBX 22 26 1 0
BITMAP
070700
030700
038E00
01FE00
00F800
000000
000000
F0703C
787078
787070
3870F0
1C70E0
1C71E0
0E71C0
0E73C0
07FF80
07FF80
0FFF80
0E73C0
1E71C0
1C71E0
3C70F0
3870F0
787078
F07078
F0703C
ENDCHAR
STARTCHAR uni04C3
ENCODING 1219
SWIDTH 553 0
DWIDTH 20 0
BBX 16 31 3 -5
BITMAP
E00F
E01E
E03C
E038
E078
E0F0
E0E0
E1E0
E3C0
E380
E780
FFC0
FFF0
FFF8
E07C
E01C
E01E
E00E
E00E
E00F
E00F
E00F
E00F
E00F
E00E
E00E
001E
003C
00FC
00F8
00E0
ENDCHAR
STARTCHAR uni04C4
ENCODING 1220
SWIDTH 481 0
DWIDTH 17 0
BBX 14 24 2 -5
BITMAP
F03C
F078
F0F0
F0E0
F1E0
F3C0
F380
F700
FF80
FFE0
FFF0
F0F8
F038
F038
F03C
F01C
F01C
F01C
F038
0038
0038
00F0
01E0
0080
ENDCHAR
STARTCHAR uni04C5
ENCODING 1221
SWIDTH 662 0
DWIDTH 24 0
BBX 22 32 1 -6
BITMAP
07FFC0
07FFC0
07FFC0
0701C0
0701C0
0F01C0
0F01C0
0F01C0
0F01C0
0F01C0
0F01C0
0E01C0
0E01C0
0E01C0
0E01C0
0E01C0
0E01C0
0E01C0
0E01C0
0E01C0
1E01C0
1C01C0
3C01C0
F801FC
F801FC
E001FC
000038
000038
000038
000070
000070
000020
ENDCHAR
STARTCHAR uni04C6
ENCODING 1222
SWIDTH 551 0
DWIDTH 20 0
BBX 18 25 1 -6
BITMAP
1FFE00
1FFE00
1FFE00
1C1E00
1C1E00
1C1E00
1C1E00
1C1E00
1C1E00
1C1E00
1C1E00
1C1E00
1C1E00
1C1E00
3C1E00
381E00
F81FC0
F01FC0
E01FC0
0001C0
0001C0
000380
000380
000700
000300
ENDCHAR
STARTCHAR uni04C7
ENCODING 1223
SWIDTH 620 0
DWIDTH 22 0
BBX 16 33 3 -7
BITMAP
E007
E007
E007
E007
E007
E007
E007
E007
E007
E007
E007
FFFF
FFFF
FFFF
E007
E007
E007
E007
E007
E007
E007
E007
E007
E007
E007
E007
0007
0007
0007
000F
003E
003E
0038
ENDCHAR
STARTCHAR uni04C8
ENCODING 1224
SWIDTH 498 0
DWIDTH 18 0
BBX 14 26 2 -7
BITMAP
F03C
F03C
F03C
F03C
F03C
F03C
F03C
F03C
FFFC
FFFC
FFFC
F03C
F03C
F03C
F03C
F03C
F03C
F03C
F03C
003C
0038
0038
0038
01F8
01F0
01E0
ENDCHAR
STARTCHAR uni04C9
ENCODING 1225
SWIDTH 671 0
DWIDTH 24 0
BBX 20 32 3 -6
BITMAP
E00700
E00700
E00700
E00700
E00700
E00700
E00700
E00700
E00700
E00700
E00700
FFFF00
FFFF00
FFFF00
E00700
E00700
E00700
E00700
E00700
E00700
E00700
E00700
E00700
E00770
E00770
E00770
000070
0000F0
0000E0
0000E0
0001C0
000080
ENDCHAR
STARTCHAR uni04CA
ENCODING 1226
SWIDTH 550 0
DWIDTH 20 0
BBX 16 25 3 -6
BITMAP
E038
E038
E038
E038
E038
E038
E038
E038
FFF8
FFF8
FFF8
E038
E038
E038
E038
E038
E03F
E03F
E03F
0007
0007
000E
000E
001C
0008
ENDCHAR
STARTCHAR uni04CB
ENCODING 1227
SWIDTH 600 0
DWIDTH 22 0
BBX 16 32 3 -6
BITMAP
E007
E007
E007
E007
E007
E007
E007
E007
E007
E007
E007
F007
F81F
7FFF
3FFF
0FE7
0007
0007
0007
0007
0007
0007
0007
003F
003F
003F
0038
0038
0038
0038
0038
0038
ENDCHAR
STARTCHAR uni04CC
ENCODING 1228
SWIDTH 479 0
DWIDTH 17 0
BBX 13 25 2 -6
BITMAP
E078
E078
E078
E078
E078
E078
E078
E078
E078
F078
7FF8
3FF8
1FF8
0078
0078
0078
01F8
01F8
01F8
01C0
01C0
01C0
01C0
01C0
01C0
ENDCHAR
STARTCHAR uni04CD
ENCODING 1229
SWIDTH 801 0
DWIDTH 29 0
BBX 25 32 3 -6
BITMAP
F0007800
F0007800
F800F800
F800F800
F800F800
FC00F800
FC01F800
FC01F800
EE01F800
EE03B800
EE03B800
E703B800
E7073800
E7073800
E3073800
E38E3800
E38E3800
E18E3800
E1DC3800
E1DC3800
E0DC3800
E0F83800
E0F83800
E0783F80
E0703F80
E0703F80
00000700
00000700
00000700
00000E00
00000E00
00000400
ENDCHAR
STARTCHAR uni04CE
ENCODING 1230
SWIDTH 687 0
DWIDTH 25 0
BBX 21 25 3 -6
BITMAP
F003C0
F007C0
F007C0
F807C0
F80FC0
FC0FC0
FC1DC0
FC1DC0
EE1DC0
EE39C0
EE39C0
E731C0
E771C0
E371C0
E3E1C0
E3E1C0
E1E1F8
E1C1F8
E1C1F8
000038
000038
000070
000070
0000E0
000040
ENDCHAR
STARTCHAR uni04CF
ENCODING 1231
SWIDTH 250 0
DWIDTH 9 0
BBX 3 26 3 0
BITMAP
E0
E0
E0
E0
E0
E0
E0
E0
E0
E0
E0
E0
E0
E0
E0
E0
E0
E0
E0
E0
E0
E0
E0
E0
E0
E0
ENDCHAR
STARTCHAR uni04D0
ENCODING 1232
SWIDTH 576 0
DWIDTH 21 0
BBX 19 32 1 0
BITMAP
0E0E00
0E0C00
071C00
07F800
01F000
000000
00E000
00E000
01F000
01F000
01F000
03B800
03B800
03B800
071C00
071C00
071C00
0E0E00
0E0E00
0E0E00
0C0600
1C0700
1FFF00
1FFF00
3FFF80
380380
380380
7001C0
7001C0
7001C0
F001E0
E000E0
ENDCHAR
STARTCHAR uni04D1
ENCODING 1233
SWIDTH 479 0
DWIDTH 17 0
BBX 13 26 2 0
BITMAP
7070
3070
38E0
1FE0
0F80
0000
0000
0FC0
3FE0
7FF0
78F0
F078
E078
0038
0038
0FF8
3FF8
7FF8
F838
E038
E038
E078
F0F8
FFF8
7FB8
1E38
ENDCHAR
STARTCHAR uni04D2
ENCODING 1234
SWIDTH 576 0
DWIDTH 21 0
BBX 19 32 1 0
BITMAP
0E0E00
0F1E00
0F1E00
0E0E00
000000
000000
00E000
00E000
01F000
01F000
01F000
03B800
03B800
03B800
071C00
071C00
071C00
0E0E00
0E0E00
0E0E00
0C0600
1C0700
1FFF00
1FFF00
3FFF80
380380
380380
7001C0
7001C0
7001C0
F001E0
E000E0
ENDCHAR
STARTCHAR uni04D3
ENCODING 1235
SWIDTH 479 0
DWIDTH 17 0
BBX 13 26 2 0
BITMAP
3870
7878
7878
3870
0000
0000
0000
0FC0
3FE0
7FF0
78F0
F078
E078
0038
0038
0FF8
3FF8
7FF8
F838
E038
E038
E078
F0F8
FFF8
7FB8
1E38
ENDCHAR
STARTCHAR uni04D4
ENCODING 1236
SWIDTH 812 0
DWIDTH 29 0
BBX 28 26 0 0
BITMAP
0007FFF0
000FFFF0
000FFFF0
001F8000
001F8000
003B8000
003B8000
00738000
00738000
00F3C000
00E3C000
01E3FFC0
01C1FFC0
03C1FFC0
0381C000
0781C000
0701C000
0FFFC000
0FFFC000
1FFFC000
1C01C000
3C01C000
3801C000
7801FFF0
7801FFF0
F001FFF0
ENDCHAR
STARTCHAR uni04D5
ENCODING 1237
SWIDTH 728 0
DWIDTH 26 0
BBX 24 19 1 0
BITMAP
0FC1F0
1FE7F8
3FFFFC
787E1E
703C0E
703C0E
003C07
003807
0FFFFF
3FFFFF
7FFFFF
783800
F03800
E03C00
F03C00
70FF06
7FFFFE
3FE7FF
1F81F8
ENDCHAR
STARTCHAR uni04D6
ENCODING 1238
SWIDTH 496 0
DWIDTH 18 0
BBX 14 32 3 0
BITMAP
7070
7060
38E0
3FC0
0F80
0000
FFF8
FFF8
FFF8
E000
E000
E000
E000
E000
E000
E000
E000
FFF0
FFF0
FFF0
E000
E000
E000
E000
E000
E000
E000
E000
E000
FFFC
FFFC
FFFC
ENDCHAR
STARTCHAR uni04D7
ENCODING 1239
SWIDTH 468 0
DWIDTH 17 0
BBX 14 26 2 0
BITMAP
7070
7070
38E0
1FC0
0F80
0000
0000
0FC0
3FE0
3FF0
7878
F038
E038
E038
E038
FFFC
FFFC
FFFC
E000
E000
E000
F010
7838
7FF8
3FF0
0FC0
ENDCHAR
STARTCHAR uni04D8
ENCODING 1240
SWIDTH 597 0
DWIDTH 22 0
BBX 18 26 2 0
BITMAP
0FE000
3FF800
3FFC00
383E00
000F00
000700
000780
000380
000380
000380
0003C0
0003C0
FFFFC0
FFFFC0
FFFFC0
E003C0
E00380
E00380
E00380
F00780
700700
780F00
3C1E00
1FFC00
0FF800
03E000
ENDCHAR
STARTCHAR uni04D9
ENCODING 1241
SWIDTH 465 0
DWIDTH 17 0
BBX 13 19 2 0
BITMAP
1F80
7FC0
FFE0
60F0
4078
0038
0038
0038
0038
FFF8
FFF8
FFF8
E038
E038
F070
78F0
7FE0
3FC0
0F80
ENDCHAR
STARTCHAR uni04DA
ENCODING 1242
SWIDTH 597 0
DWIDTH 22 0
BBX 18 32 2 0
BITMAP
383800
3C7800
3C7800
383800
000000
000000
0FE000
3FF800
3FFC00
383E00
000F00
000700
000780
000380
000380
000380
0003C0
0003C0
FFFFC0
FFFFC0
FFFFC0
E003C0
E00380
E00380
E00380
F00780
700700
780F00
3C1E00
1FFC00
0FF800
03E000
ENDCHAR
STARTCHAR uni04DB
ENCODING 1243
SWIDTH 465 0
DWIDTH 17 0
BBX 13 26 2 0
BITMAP
7070
78F0
78F0
7070
0000
0000
0000
1F80
7FC0
FFE0
60F0
4078
0038
0038
0038
0038
FFF8
FFF8
FFF8
E038
E038
F070
78F0
7FE0
3FC0
0F80
ENDCHAR
STARTCHAR uni04DC
ENCODING 1244
SWIDTH 791 0
DWIDTH 28 0
BBX 27 32 1 0
BITMAP
00E0C000
00E1E000
00E1E000
00E0C000
00000000
00000000
F00E03C0
780E03C0
380E0780
3C0E0780
1C0E0700
1E0E0F00
0E0E0E00
0E0E1E00
070E1C00
070E3C00
038E3800
038E3800
01FFF000
01FFF000
03FFF800
078E3800
078E3C00
0F0E1C00
0F0E1E00
1E0E0E00
1E0E0F00
3C0E0780
3C0E0780
780E03C0
780E03C0
F00E01E0
ENDCHAR
STARTCHAR uni04DD
ENCODING 1245
SWIDTH 662 0
DWIDTH 24 0
BBX 22 26 1 0
BITMAP
030700
078780
078780
030700
000000
000000
000000
F0703C
787078
787070
3870F0
1C70E0
1C71E0
0E71C0
0E73C0
07FF80
07FF80
0FFF80
0E73C0
1E71C0
1C71E0
3C70F0
3870F0
787078
F07078
F0703C
ENDCHAR
STARTCHAR uni04DE
ENCODING 1246
SWIDTH 517 0
DWIDTH 19 0
BBX 15 32 2 0
BITMAP
3830
3878
3878
3830
0000
0000
0FE0
1FF0
3FFC
783C
F01E
E01E
E00E
000E
001E
001C
003C
07F8
07F0
07F8
003C
001E
000E
000E
000E
E00E
E00E
F01E
783C
7FFC
3FF0
0FE0
ENDCHAR
STARTCHAR uni04DF
ENCODING 1247
SWIDTH 446 0
DWIDTH 16 0
BBX 12 26 2 0
BITMAP
7060
F0F0
F0F0
70E0
0000
0000
0000
1F80
3FC0
7FE0
F0F0
E070
0070
0070
00E0
1FE0
1FC0
1FE0
00F0
0070
E070
E070
F0F0
FFF0
7FE0
1F80
ENDCHAR
STARTCHAR uni04E0
ENCODING 1248
SWIDTH 510 0
DWIDTH 18 0
BBX 14 26 2 0
BITMAP
FFF8
FFF8
FFF8
0078
00F0
00E0
01C0
03C0
0380
0700
0F00
0FC0
0FF0
0FF8
0078
003C
001C
001C
001C
E01C
E01C
F03C
7878
7FF8
3FE0
0FC0
ENDCHAR
STARTCHAR uni04E1
ENCODING 1249
SWIDTH 510 0
DWIDTH 18 0
BBX 14 26 2 -7
BITMAP
FFF8
FFF8
FFF8
0070
00F0
00E0
01C0
03C0
0380
0700
0F00
0F80
0FE0
0FF0
0078
003C
001C
001C
001C
E01C
E01C
F03C
7878
7FF0
3FE0
0FC0
ENDCHAR
STARTCHAR uni04E2
ENCODING 1250
SWIDTH 619 0
DWIDTH 22 0
BBX 16 31 3 0
BITMAP
1FF8
1FF8
1FF8
0000
0000
E007
E00F
E00F
E01F
E01F
E03F
E03F
E077
E077
E0E7
E0E7
E1C7
E1C7
E387
E387
E707
E707
EE07
EE07
FC07
FC07
F807
F807
F007
F007
E007
ENDCHAR
STARTCHAR uni04E3
ENCODING 1251
SWIDTH 509 0
DWIDTH 18 0
BBX 13 25 3 0
BITMAP
7FE0
7FE0
7FE0
0000
0000
0000
E078
E078
E0F8
E0F8
E1F8
E1B8
E3B8
E338
E738
E638
EE38
EC38
FC38
F838
F838
F038
F038
E038
E038
ENDCHAR
STARTCHAR uni04E4
ENCODING 1252
SWIDTH 619 0
DWIDTH 22 0
BBX 16 32 3 0
BITMAP
1C18
1C3C
1C3C
1C18
0000
0000
E007
E00F
E00F
E01F
E01F
E03F
E03F
E077
E077
E0E7
E0E7
E1C7
E1C7
E387
E387
E707
E707
EE07
EE07
FC07
FC07
F807
F807
F007
F007
E007
ENDCHAR
STARTCHAR uni04E5
ENCODING 1253
SWIDTH 509 0
DWIDTH 18 0
BBX 13 26 3 0
BITMAP
7060
70F0
F0F0
7060
0000
0000
0000
E078
E078
E0F8
E0F8
E1F8
E1B8
E3B8
E338
E738
E638
EE38
EC38
FC38
F838
F838
F038
F038
E038
E038
ENDCHAR
STARTCHAR uni04E6
ENCODING 1254
SWIDTH 600 0
DWIDTH 22 0
BBX 18 32 2 0
BITMAP
0C1C00
1E1E00
1E1E00
0C1C00
000000
000000
03F000
0FFC00
1FFE00
3E1F00
380700
780780
700380
700380
700380
F003C0
F003C0
F003C0
F003C0
F003C0
F003C0
F003C0
F003C0
F00380
700380
700380
780780
380700
3E1F00
1FFE00
0FFC00
03F000
ENDCHAR
STARTCHAR uni04E7
ENCODING 1255
SWIDTH 501 0
DWIDTH 18 0
BBX 14 26 2 0
BITMAP
3070
7878
7878
3070
0000
0000
0000
0FC0
1FE0
7FF0
7878
F03C
E01C
E01C
E01C
E01C
E01C
E01C
E01C
E01C
E01C
F03C
7878
7FF0
3FE0
0FC0
ENDCHAR
STARTCHAR uni04E8
ENCODING 1256
SWIDTH 593 0
DWIDTH 21 0
BBX 17 26 2 0
BITMAP
03E000
0FF800
1FFC00
3C3E00
780E00
700F00
F00700
E00780
E00380
E00380
E00380
E00380
FFFF80
FFFF80
FFFF80
E00380
E00380
E00380
E00780
F00700
700700
780E00
3C1E00
1FFC00
0FF800
03E000
ENDCHAR
STARTCHAR uni04E9
ENCODING 1257
SWIDTH 497 0
DWIDTH 18 0
BBX 14 19 2 0
BITMAP
07C0
1FE0
3FF0
7878
7038
F01C
E01C
E01C
FFFC
FFFC
FFFC
E01C
E01C
E01C
703C
7878
3FF0
1FE0
07C0
ENDCHAR
STARTCHAR uni04EA
ENCODING 1258
SWIDTH 593 0
DWIDTH 21 0
BBX 17 32 2 0
BITMAP
0E1C00
1E1E00
1E1E00
0E1C00
000000
000000
03E000
0FF800
1FFC00
3C3E00
780E00
700F00
F00700
E00780
E00380
E00380
E00380
E00380
FFFF80
FFFF80
FFFF80
E00380
E00380
E00380
E00780
F00700
700700
780E00
3C1E00
1FFC00
0FF800
03E000
ENDCHAR
STARTCHAR uni04EB
ENCODING 1259
SWIDTH 497 0
DWIDTH 18 0
BBX 14 26 2 0
BITMAP
3070
7870
78F0
7070
0000
0000
0000
07C0
1FE0
3FF0
7878
7038
F01C
E01C
E01C
FFFC
FFFC
FFFC
E01C
E01C
E01C
703C
7878
3FF0
1FE0
07C0
ENDCHAR
STARTCHAR uni04EC
ENCODING 1260
SWIDTH 589 0
DWIDTH 21 0
BBX 17 32 2 0
BITMAP
1C1C00
1E3C00
1E3C00
1C1C00
000000
000000
07E000
0FF800
1FFC00
3C3E00
780F00
700700
700700
700780
800380
000380
000380
000380
03FF80
03FF80
03FF80
000380
000380
000380
F00380
700700
700700
780F00
3C1E00
1FFC00
0FF800
07E000
ENDCHAR
STARTCHAR uni04ED
ENCODING 1261
SWIDTH 472 0
DWIDTH 17 0
BBX 13 26 2 0
BITMAP
7070
78F0
78F0
7070
0000
0000
0000
0F80
3FC0
7FE0
F0F0
E070
E078
0038
0038
0FF8
0FF8
0FF8
0038
E038
E078
E070
F0F0
7FE0
3FC0
1F00
ENDCHAR
STARTCHAR uni04EE
ENCODING 1262
SWIDTH 547 0
DWIDTH 20 0
BBX 17 31 2 0
BITMAP
1FF800
1FF800
1FF800
000000
000000
F00780
F00F00
700F00
780E00
781E00
381E00
3C1C00
1C3C00
1C3C00
1E3800
0E3800
0E7800
0F7000
077000
07F000
03E000
03E000
03E000
01C000
01C000
03C000
038000
078000
3F0000
3F0000
3C0000
ENDCHAR
STARTCHAR uni04EF
ENCODING 1263
SWIDTH 416 0
DWIDTH 15 0
BBX 13 32 1 -7
BITMAP
3FF0
3FF0
3FF0
0000
0000
0000
E038
E038
F078
7070
7070
7070
38E0
38E0
38E0
18E0
1DC0
1DC0
1DC0
0F80
0F80
0F80
0700
0700
0700
0700
0E00
0E00
1E00
7C00
7800
7000
ENDCHAR
STARTCHAR uni04F0
ENCODING 1264
SWIDTH 547 0
DWIDTH 20 0
BBX 17 32 2 0
BITMAP
1C3800
3C3C00
3C3C00
1C3800
000000
000000
F00780
F00F00
700F00
780E00
781E00
381E00
3C1C00
1C3C00
1C3C00
1E3800
0E3800
0E7800
0F7000
077000
07F000
03E000
03E000
03E000
01C000
01C000
03C000
038000
078000
3F0000
3F0000
3C0000
ENDCHAR
STARTCHAR uni04F1
ENCODING 1265
SWIDTH 416 0
DWIDTH 15 0
BBX 13 33 1 -7
BITMAP
3070
7878
7878
3070
0000
0000
0000
E038
E038
F078
7070
7070
7070
38E0
38E0
38E0
18E0
1DC0
1DC0
1DC0
0F80
0F80
0F80
0700
0700
0700
0700
0E00
0E00
1E00
7C00
7800
7000
ENDCHAR
STARTCHAR uni04F2
ENCODING 1266
SWIDTH 547 0
DWIDTH 20 0
BBX 17 33 2 0
BITMAP
03DE00
03BC00
073800
067000
0EE000
000000
000000
F00780
F00F00
700F00
780E00
781E00
381E00
3C1C00
1C3C00
1C3C00
1E3800
0E3800
0E7800
0F7000
077000
07F000
03E000
03E000
03E000
01C000
01C000
03C000
038000
078000
3F0000
3F0000
3C0000
ENDCHAR
STARTCHAR uni04F3
ENCODING 1267
SWIDTH 416 0
DWIDTH 15 0
BBX 14 33 1 -7
BITMAP
07BC
0778
0E70
1CE0
1DC0
0000
0000
E038
E038
F078
7070
7070
7070
38E0
38E0
38E0
18E0
1DC0
1DC0
1DC0
0F80
0F80
0F80
0700
0700
0700
0700
0E00
0E00
1E00
7C00
7800
7000
ENDCHAR
STARTCHAR uni04F4
ENCODING 1268
SWIDTH 600 0
DWIDTH 22 0
BBX 16 32 3 0
BITMAP
3838
3C78
3C78
3838
0000
0000
E007
E007
E007
E007
E007
E007
E007
E007
E007
E007
E007
F007
F81F
7FFF
3FFF
0FE7
0007
0007
0007
0007
0007
0007
0007
0007
0007
0007
ENDCHAR
STARTCHAR uni04F5
ENCODING 1269
SWIDTH 479 0
DWIDTH 17 0
BBX 13 26 2 0
BITMAP
7060
70F0
F0F0
7060
0000
0000
0000
E078
E078
E078
E078
E078
E078
E078
E078
E078
F078
7FF8
3FF8
1FF8
0078
0078
0078
0078
0078
0078
ENDCHAR
STARTCHAR uni04F6
ENCODING 1270
SWIDTH 487 0
DWIDTH 18 0
BBX 13 32 3 -6
BITMAP
FFF8
FFF8
FFF8
E000
E000
E000
E000
E000
E000
E000
E000
E000
E000
E000
E000
E000
E000
E000
E000
E000
E000
E000
E000
FC00
FC00
FC00
1C00
1C00
1C00
1C00
1C00
1C00
ENDCHAR
STARTCHAR uni04F7
ENCODING 1271
SWIDTH 371 0
DWIDTH 13 0
BBX 10 25 3 -6
BITMAP
FFC0
FFC0
FFC0
E000
E000
E000
E000
E000
E000
E000
E000
E000
E000
E000
E000
E000
F800
F800
F800
3800
3800
3800
3800
3800
3800
ENDCHAR
STARTCHAR uni04F8
ENCODING 1272
SWIDTH 755 0
DWIDTH 27 0
BBX 21 32 3 0
BITMAP
070700
078F00
078F00
070700
000000
000000
E00038
E00038
E00038
E00038
E00038
E00038
E00038
E00038
E00038
E00038
E00038
FFE038
FFF838
FFFC38
E01E38
E00E38
E00F38
E00F38
E00738
E00F38
E00F38
E00E38
E03E38
FFFC38
FFF838
FFE038
ENDCHAR
STARTCHAR uni04F9
ENCODING 1273
SWIDTH 679 0
DWIDTH 24 0
BBX 19 26 2 0
BITMAP
070E00
0F0F00
0F0F00
070E00
000000
000000
000000
F000E0
F000E0
F000E0
F000E0
F000E0
F000E0
F000E0
FFC0E0
FFF0E0
FFF8E0
F078E0
F038E0
F038E0
F038E0
F038E0
F078E0
FFF8E0
FFF0E0
FFC0E0
ENDCHAR
STARTCHAR uni04FA
ENCODING 1274
SWIDTH 520 0
DWIDTH 19 0
BBX 16 33 1 -7
BITMAP
1FFF
1FFF
1FFF
1C00
1C00
1C00
1C00
1C00
1C00
1C00
1C00
FFC0
FFC0
FFC0
1C00
1C00
1C00
1C00
1C00
1C00
1C00
1C00
1C00
1F80
1F80
1F80
0380
0380
0380
0780
1F00
3F00
3C00
ENDCHAR
STARTCHAR uni04FB
ENCODING 1275
SWIDTH 410 0
DWIDTH 15 0
BBX 13 26 1 -7
BITMAP
1FF8
1FF8
1FF8
1C00
1C00
1C00
1C00
FFC0
FFC0
FFC0
1C00
1C00
1C00
1C00
1C00
1C00
1F80
1F80
1F80
0380
0380
0780
0700
3F00
3E00
3C00
ENDCHAR
STARTCHAR uni04FC
ENCODING 1276
SWIDTH 570 0
DWIDTH 21 0
BBX 19 33 1 -7
BITMAP
F003C0
780780
380700
3C0F00
1C0E00
1E1E00
0E1C00
0F3C00
073800
07F800
03F000
03F000
01E000
01E000
03F000
03F000
07F800
073800
0F3C00
0E1C00
1E1E00
1C0E00
3C0F00
7807E0
7807E0
F003E0
0000E0
0001E0
0001E0
0001C0
000FC0
000F80
000F00
ENDCHAR
STARTCHAR uni04FD
ENCODING 1277
SWIDTH 476 0
DWIDTH 17 0
BBX 15 26 1 -7
BITMAP
F03C
7078
7870
38F0
1CE0
1DE0
0FC0
0FC0
0780
0780
0780
0FC0
1FC0
1CE0
3CE0
3870
787E
703E
F03E
000E
000E
000E
001E
007C
007C
0070
ENDCHAR
STARTCHAR uni04FE
ENCODING 1278
SWIDTH 550 0
DWIDTH 20 0
BBX 18 26 1 0
BITMAP
F003C0
780780
380700
3C0F00
1C0E00
1E1E00
0E1C00
0F3C00
073800
07F000
03F000
0FFC00
0FFC00
0FFC00
03F000
03F000
07F800
073800
0F3C00
0E1C00
1E1E00
1C0E00
3C0F00
780700
780780
F003C0
ENDCHAR
STARTCHAR uni04FF
ENCODING 1279
SWIDTH 438 0
DWIDTH 16 0
BBX 14 19 1 0
BITMAP
F03C
7078
7870
38F0
3CE0
1DE0
0FC0
0FC0
3FF0
3FF0
3FF0
0F80
0FC0
1CE0
1CE0
3870
7870
7038
F03C
ENDCHAR
STARTCHAR uni0500
ENCODING 1280
SWIDTH 555 0
DWIDTH 20 0
BBX 15 26 2 0
BITMAP
000E
000E
000E
000E
000E
000E
000E
000E
000E
000E
0FFE
3FFE
7FFE
780E
F00E
E00E
E00E
E00E
E00E
E00E
E00E
F00E
780E
7FFE
3FFE
0FFE
ENDCHAR
STARTCHAR uni0501
ENCODING 1281
SWIDTH 496 0
DWIDTH 18 0
BBX 13 27 2 0
BITMAP
0038
0038
0038
0038
0038
0038
0038
0038
0F38
3FF8
7FF8
7878
F038
E038
E038
E038
E038
E038
E038
E038
E038
E038
F038
7878
7FF8
3FD8
0F18
ENDCHAR
STARTCHAR uni0502
ENCODING 1282
SWIDTH 723 0
DWIDTH 26 0
BBX 23 26 2 0
BITMAP
000E00
000E00
000E00
000E00
000E00
000E00
000E00
000E00
000E00
000E00
0FFE00
3FFE00
7FFE1C
780E1C
F00E1E
E00E0E
E00E0E
E00E0E
E00E0E
E00E0E
E00E1E
F00E1C
780E3C
7FFFF8
3FFFF8
0FFFE0
ENDCHAR
STARTCHAR uni0503
ENCODING 1283
SWIDTH 743 0
DWIDTH 27 0
BBX 23 27 2 0
BITMAP
003800
003800
003800
003800
003800
003800
003800
003800
0FB800
3FF800
3FF81C
78781C
70381C
F0380E
E0380E
E0380E
E0380E
E0380E
E0380E
E0380E
E0381C
E0381C
703C3C
787C78
7FFFF8
3FCFF0
0F87C0
ENDCHAR
STARTCHAR uni0504
ENCODING 1284
SWIDTH 685 0
DWIDTH 25 0
BBX 22 26 1 0
BITMAP
FF8000
FFE000
FFF000
00F000
007800
007800
003800
003800
003800
007878
007038
00F038
1FE038
1FC038
1FE03C
00F03C
00783C
00783C
003838
003838
003838
003878
003CF0
003FF0
001FE0
000F80
ENDCHAR
STARTCHAR uni0505
ENCODING 1285
SWIDTH 562 0
DWIDTH 20 0
BBX 18 19 1 0
BITMAP
FE0000
FF8000
FF8000
03C000
01C000
01C380
01C380
01C380
03C1C0
7F81C0
7F01C0
7FC1C0
03C1C0
01C380
01C380
01E780
01FF00
00FE00
007C00
ENDCHAR
STARTCHAR uni0506
ENCODING 1286
SWIDTH 470 0
DWIDTH 17 0
BBX 14 31 2 -5
BITMAP
FE00
FF80
FF80
03C0
01C0
01E0
00E0
00E0
00E0
01E0
01C0
03C0
7F80
7F00
7F80
03C0
01C0
01E0
00E0
00E0
00E0
00E0
00FC
00FC
00FC
00F8
0038
0038
0038
0070
0020
ENDCHAR
STARTCHAR uni0507
ENCODING 1287
SWIDTH 443 0
DWIDTH 16 0
BBX 13 25 2 -6
BITMAP
FE00
FF80
FFC0
03C0
01E0
01E0
00E0
01C0
03C0
7F80
7F00
7FC0
01C0
01E0
00E0
00E0
00F8
00F8
00F8
0038
0038
0038
0070
0070
0020
ENDCHAR
STARTCHAR uni0508
ENCODING 1288
SWIDTH 834 0
DWIDTH 30 0
BBX 28 26 1 0
BITMAP
07FFC000
07FFC000
07FFC000
0701C000
0701C000
0701C000
0701C000
0701C000
0701C000
0701C1E0
0701C0E0
0701C0E0
0701C0E0
0701C0E0
0F01C0F0
0F01C0F0
0F01C0F0
0E01C0F0
0E01C0E0
0E01C0E0
0E01C0E0
1E01C1E0
3C01E3C0
FC00FF80
F800FF00
F0003E00
ENDCHAR
STARTCHAR uni0509
ENCODING 1289
SWIDTH 698 0
DWIDTH 25 0
BBX 23 19 1 0
BITMAP
0FFC00
0FFC00
0FFC00
0E1C1C
0E1C1C
0E1C0E
0E1C0E
0E1C0E
0E1C0E
0E1C0E
1E1C0E
1C1C0E
1C1C0E
1C1C1E
1C1E1C
3C0E3C
F80FF8
F807F0
E003E0
ENDCHAR
STARTCHAR uni050A
ENCODING 1290
SWIDTH 864 0
DWIDTH 31 0
BBX 26 26 3 0
BITMAP
E0070000
E0070000
E0070000
E0070000
E0070000
E0070000
E0070000
E0070000
E0070000
E0070380
E0070380
FFFF0380
FFFF03C0
FFFF03C0
E00701C0
E00701C0
E00701C0
E00703C0
E00703C0
E0070380
E0070380
E0078780
E0078F00
E003FF00
E001FE00
E000F800
ENDCHAR
STARTCHAR uni050B
ENCODING 1291
SWIDTH 716 0
DWIDTH 26 0
BBX 22 19 3 0
BITMAP
E03800
E03800
E03800
E03838
E03838
E03838
E03838
E03838
FFF838
FFF83C
FFF83C
E03838
E03838
E03838
E03878
E03C70
E03FF0
E01FE0
E00780
ENDCHAR
STARTCHAR uni050C
ENCODING 1292
SWIDTH 541 0
DWIDTH 19 0
BBX 16 26 2 0
BITMAP
03F0
0FFC
1FF8
3C18
7800
7000
F000
E000
E000
E000
E000
E000
E00E
E00E
E00E
E00E
E00F
E00F
E00F
F00E
700E
781E
3C3E
1FFC
0FF8
03E0
ENDCHAR
STARTCHAR uni050D
ENCODING 1293
SWIDTH 452 0
DWIDTH 16 0
BBX 12 19 2 0
BITMAP
0FC0
1FE0
3FE0
7840
F000
E000
E000
E000
E000
E070
E070
E070
E070
E070
F070
7870
3FF0
1FE0
0F80
ENDCHAR
STARTCHAR uni050E
ENCODING 1294
SWIDTH 616 0
DWIDTH 22 0
BBX 19 26 1 0
BITMAP
FFFF80
FFFF80
FFFF80
01C000
01C000
01C000
01C000
01C000
01C000
01C1E0
01C0E0
01C0E0
01C0E0
01C0E0
01C0E0
01C0E0
01C0E0
01C0E0
01C0E0
01C0E0
01C1E0
01C1C0
01E3C0
01FF80
00FF00
003E00
ENDCHAR
STARTCHAR uni050F
ENCODING 1295
SWIDTH 558 0
DWIDTH 20 0
BBX 17 19 1 0
BITMAP
FFFC00
FFFC00
FFFC00
078000
078000
078700
078380
078380
078380
078380
078380
078380
078380
078380
038780
03CF00
03FF00
01FE00
00F800
ENDCHAR
STARTCHAR uni0510
ENCODING 1296
SWIDTH 589 0
DWIDTH 21 0
BBX 17 26 2 0
BITMAP
07F000
1FFC00
3FFE00
3C1F00
780780
700780
700380
700000
700000
780000
3C0000
1FF000
0FF000
1FF000
3C0000
780000
700000
700000
F00000
700380
700380
780780
3C1F00
3FFF00
1FFC00
03F000
ENDCHAR
STARTCHAR uni0511
ENCODING 1297
SWIDTH 470 0
DWIDTH 17 0
BBX 13 19 2 0
BITMAP
1F80
3FE0
7FF0
F078
E038
E000
E000
7000
7F80
1F80
7F80
F000
E000
E038
E038
F078
7FF0
3FE0
1F80
ENDCHAR
STARTCHAR uni0512
ENCODING 1298
SWIDTH 664 0
DWIDTH 24 0
BBX 21 33 1 -7
BITMAP
07FFC0
07FFC0
07FFC0
0701C0
0701C0
0F01C0
0F01C0
0F01C0
0F01C0
0F01C0
0F01C0
0E01C0
0E01C0
0E01C0
0E01C0
0E01C0
0E01C0
0E01C0
0E01C0
0E01C0
1E01C0
1C01C0
3C01C0
F801F8
F801F8
E001F8
000038
000038
000038
000078
0001F0
0001F0
0001C0
ENDCHAR
STARTCHAR uni0513
ENCODING 1299
SWIDTH 553 0
DWIDTH 20 0
BBX 18 26 1 -7
BITMAP
1FFE00
1FFE00
1FFE00
1C1E00
1C1E00
1C1E00
1C1E00
1C1E00
1C1E00
1C1E00
1C1E00
1C1E00
1C1E00
1C1E00
3C1E00
381E00
F81FC0
F01FC0
E01FC0
0001C0
0001C0
0003C0
000380
001F80
001F00
001E00
ENDCHAR
STARTCHAR uni1E00
ENCODING 7680
SWIDTH 576 0
DWIDTH 21 0
BBX 19 33 1 -7
BITMAP
00E000
00E000
01F000
01F000
01F000
03B800
03B800
03B800
071C00
071C00
071C00
0E0E00
0E0E00
0E0E00
0C0600
1C0700
1FFF00
1FFF00
3FFF80
380380
380380
7001C0
7001C0
7001C0
F001E0
E000E0
000000
00E000
01F000
011000
011000
01F000
00E000
ENDCHAR
STARTCHAR uni1E01
ENCODING 7681
SWIDTH 479 0
DWIDTH 17 0
BBX 13 26 2 -7
BITMAP
0FC0
3FE0
7FF0
78F0
F078
E078
0038
0038
0FF8
3FF8
7FF8
F838
E038
E038
E078
F0F8
FFF8
7FB8
1E38
0000
0E00
1F00
1900
1900
1F00
0E00
ENDCHAR
STARTCHAR uni1E3E
ENCODING 7742
SWIDTH 755 0
DWIDTH 27 0
BBX 21 33 3 0
BITMAP
000F00
001E00
003C00
007800
007000
000000
000000
F00078
F00078
F800F8
F800F8
F800F8
FC00F8
FC01F8
FC01F8
EE01F8
EE03B8
EE03B8
E703B8
E70738
E70738
E30738
E38E38
E38E38
E18E38
E1DC38
E1DC38
E0DC38
E0F838
E0F838
E07838
E07038
E07038
ENDCHAR
STARTCHAR uni1E3F
ENCODING 7743
SWIDTH 752 0
DWIDTH 27 0
BBX 23 26 2 0
BITMAP
000780
000F00
001E00
001C00
003800
000000
000000
E7C1F0
EFF7F8
FFFFFC
F87E3C
F07C1C
E0381E
E0380E
E0380E
E0380E
E0380E
E0380E
E0380E
E0380E
E0380E
E0380E
E0380E
E0380E
E0380E
E0380E
ENDCHAR
STARTCHAR Wgrave
ENCODING 7808
SWIDTH 761 0
DWIDTH 27 0
BBX 25 33 1 0
BITMAP
00F00000
00780000
00380000
001C0000
000E0000
00000000
00000000
F01C0380
701E0380
701E0380
701E0380
701E0780
703E0700
383F0700
383F0700
38330700
38730700
38738E00
3C738E00
1C638E00
1C618E00
1CE18E00
1CE1CC00
1CC1DC00
0EC0DC00
0FC0DC00
0FC0FC00
0FC0F800
0F80F800
07807800
07807800
07807800
07007000
ENDCHAR
STARTCHAR wgrave
ENCODING 7809
SWIDTH 649 0
DWIDTH 23 0
BBX 21 26 1 0
BITMAP
078000
03C000
01E000
00F000
007000
000000
000000
E07038
E07038
E07038
70F870
70F870
70F870
71D870
71DC60
39DCE0
398CE0
3B8CE0
3B8EC0
1F8FC0
1F07C0
1F07C0
1F0780
0E0780
0E0380
0E0380
ENDCHAR
STARTCHAR Wacute
ENCODING 7810
SWIDTH 761 0
DWIDTH 27 0
BBX 25 33 1 0
BITMAP
0003E000
00078000
00070000
000E0000
001C0000
00000000
00000000
F01C0380
701E0380
701E0380
701E0380
701E0780
703E0700
383F0700
383F0700
38330700
38730700
38738E00
3C738E00
1C638E00
1C618E00
1CE18E00
1CE1CC00
1CC1DC00
0EC0DC00
0FC0DC00
0FC0FC00
0FC0F800
0F80F800
07807800
07807800
07807800
07007000
ENDCHAR
STARTCHAR wacute
ENCODING 7811
SWIDTH 649 0
DWIDTH 23 0
BBX 21 26 1 0
BITMAP
000F00
001E00
003C00
003800
007000
000000
000000
E07038
E07038
E07038
70F870
70F870
70F870
71D870
71DC60
39DCE0
398CE0
3B8CE0
3B8EC0
1F8FC0
1F07C0
1F07C0
1F0780
0E0780
0E0380
0E0380
ENDCHAR
STARTCHAR Wdieresis
ENCODING 7812
SWIDTH 761 0
DWIDTH 27 0
BBX 25 32 1 0
BITMAP
00E1C000
01E1E000
01E1E000
00E1C000
00000000
00000000
F01C0380
701E0380
701E0380
701E0380
701E0780
703E0700
383F0700
383F0700
38330700
38730700
38738E00
3C738E00
1C638E00
1C618E00
1CE18E00
1CE1CC00
1CC1DC00
0EC0DC00
0FC0DC00
0FC0FC00
0FC0F800
0F80F800
07807800
07807800
07807800
07007000
ENDCHAR
STARTCHAR wdieresis
ENCODING 7813
SWIDTH 649 0
DWIDTH 23 0
BBX 21 26 1 0
BITMAP
030700
078700
078F00
070700
000000
000000
000000
E07038
E07038
E07038
70F870
70F870
70F870
71D870
71DC60
39DCE0
398CE0
3B8CE0
3B8EC0
1F8FC0
1F07C0
1F07C0
1F0780
0E0780
0E0380
0E0380
ENDCHAR
STARTCHAR uni1EA0
ENCODING 7840
SWIDTH 576 0
DWIDTH 21 0
BBX 19 32 1 -6
BITMAP
00E000
00E000
01F000
01F000
01F000
03B800
03B800
03B800
071C00
071C00
071C00
0E0E00
0E0E00
0E0E00
0C0600
1C0700
1FFF00
1FFF00
3FFF80
380380
380380
7001C0
7001C0
7001C0
F001E0
E000E0
000000
000000
00E000
00E000
00E000
00E000
ENDCHAR
STARTCHAR uni1EA1
ENCODING 7841
SWIDTH 479 0
DWIDTH 17 0
BBX 13 25 2 -6
BITMAP
0FC0
3FE0
7FF0
78F0
F078
E078
0038
0038
0FF8
3FF8
7FF8
F838
E038
E038
E078
F0F8
FFF8
7FB8
1E38
0000
0000
0E00
0F00
0F00
0E00
ENDCHAR
STARTCHAR uni1EA2
ENCODING 7842
SWIDTH 576 0
DWIDTH 21 0
BBX 19 35 1 0
BITMAP
00E000
00F000
003800
003800
00F800
00F000
00E000
000000
000000
00E000
00E000
01F000
01F000
01F000
03B800
03B800
03B800
071C00
071C00
071C00
0E0E00
0E0E00
0E0E00
0C0600
1C0700
1FFF00
1FFF00
3FFF80
380380
380380
7001C0
7001C0
7001C0
F001E0
E000E0
ENDCHAR
STARTCHAR uni1EA3
ENCODING 7843
SWIDTH 479 0
DWIDTH 17 0
BBX 13 29 2 0
BITMAP
0380
03C0
00C0
00C0
03C0
0380
0300
0000
0000
0000
0FC0
3FE0
7FF0
78F0
F078
E078
0038
0038
0FF8
3FF8
7FF8
F838
E038
E038
E078
F0F8
FFF8
7FB8
1E38
ENDCHAR
STARTCHAR uni1EA4
ENCODING 7844
SWIDTH 576 0
DWIDTH 21 0
BBX 19 36 1 0
BITMAP
0000E0
0001C0
0001C0
00E380
01F380
03B800
071C00
0E1E00
000000
000000
00E000
00E000
01F000
01F000
01F000
03B800
03B800
03B800
071C00
071C00
071C00
0E0E00
0E0E00
0E0E00
0C0600
1C0700
1FFF00
1FFF00
3FFF80
380380
380380
7001C0
7001C0
7001C0
F001E0
E000E0
ENDCHAR
STARTCHAR uni1EA5
ENCODING 7845
SWIDTH 479 0
DWIDTH 17 0
BBX 17 29 2 0
BITMAP
000780
000700
000E00
078E00
0FDC00
1FE000
3CF000
787800
000000
000000
0FC000
3FE000
7FF000
78F000
F07800
E07800
003800
003800
0FF800
3FF800
7FF800
F83800
E03800
E03800
E07800
F0F800
FFF800
7FB800
1E3800
ENDCHAR
STARTCHAR uni1EA6
ENCODING 7846
SWIDTH 576 0
DWIDTH 21 0
BBX 19 36 1 0
BITMAP
E00000
F00000
700000
38E000
39F000
03B800
071C00
0E1E00
000000
000000
00E000
00E000
01F000
01F000
01F000
03B800
03B800
03B800
071C00
071C00
071C00
0E0E00
0E0E00
0E0E00
0C0600
1C0700
1FFF00
1FFF00
3FFF80
380380
380380
7001C0
7001C0
7001C0
F001E0
E000E0
ENDCHAR
STARTCHAR uni1EA7
ENCODING 7847
SWIDTH 479 0
DWIDTH 17 0
BBX 16 29 -1 0
BITMAP
F000
7000
3800
38F0
19F8
03FC
079E
0F0F
0000
0000
01F8
07FC
0FFE
0F1E
1E0F
1C0F
0007
0007
01FF
07FF
0FFF
1F07
1C07
1C07
1C0F
1E1F
1FFF
0FF7
03C7
ENDCHAR
STARTCHAR uni1EA8
ENCODING 7848
SWIDTH 576 0
DWIDTH 21 0
BBX 19 36 1 0
BITMAP
000700
000780
000180
01E180
01F380
03BB00
071C00
0E0E00
000000
000000
00E000
00E000
01F000
01F000
01F000
03B800
03B800
03B800
071C00
071C00
071C00
0E0E00
0E0E00
0E0E00
0C0600
1C0700
1FFF00
1FFF00
3FFF80
380380
380380
7001C0
7001C0
7001C0
F001E0
E000E0
ENDCHAR
STARTCHAR uni1EA9
ENCODING 7849
SWIDTH 479 0
DWIDTH 17 0
BBX 15 29 2 0
BITMAP
0018
001E
0006
078E
0FDC
1CF8
3870
7078
0000
0000
0FC0
3FE0
7FF0
78F0
F078
E078
0038
0038
0FF8
3FF8
7FF8
F838
E038
E038
E078
F0F8
FFF8
7FB8
1E38
ENDCHAR
STARTCHAR uni1EAA
ENCODING 7850
SWIDTH 576 0
DWIDTH 21 0
BBX 19 35 1 0
BITMAP
038800
03F800
067000
000000
00E000
03B000
071C00
0E0E00
000000
00E000
00E000
01F000
01F000
01F000
03B800
03B800
03B800
071C00
071C00
071C00
0E0E00
0E0E00
0E0E00
0C0600
1C0700
1FFF00
1FFF00
3FFF80
380380
380380
7001C0
7001C0
7001C0
F001E0
E000E0
ENDCHAR
STARTCHAR uni1EAB
ENCODING 7851
SWIDTH 479 0
DWIDTH 17 0
BBX 13 29 2 0
BITMAP
0E60
1FE0
11C0
0000
0780
0FC0
1CE0
7878
0000
0000
0FC0
3FE0
7FF0
78F0
F078
E078
0038
0038
0FF8
3FF8
7FF8
F838
E038
E038
E078
F0F8
FFF8
7FB8
1E38
ENDCHAR
STARTCHAR uni1EAC
ENCODING 7852
SWIDTH 576 0
DWIDTH 21 0
BBX 19 39 1 -6
BITMAP
00E000
01F000
03B000
033800
071C00
000000
000000
00E000
00E000
01F000
01F000
01F000
03B800
03B800
03B800
071C00
071C00
071C00
0E0E00
0E0E00
0E0E00
0C0600
1C0700
1FFF00
1FFF00
3FFF80
380380
380380
7001C0
7001C0
7001C0
F001E0
E000E0
000000
000000
00E000
00E000
00E000
00E000
ENDCHAR
STARTCHAR uni1EAD
ENCODING 7853
SWIDTH 479 0
DWIDTH 17 0
BBX 13 33 2 -6
BITMAP
0300
0780
0FC0
1CE0
3870
0000
0000
0000
0FC0
3FE0
7FF0
78F0
F078
E078
0038
0038
0FF8
3FF8
7FF8
F838
E038
E038
E078
F0F8
FFF8
7FB8
1E38
0000
0000
0E00
0F00
0F00
0E00
ENDCHAR
STARTCHAR uni1EAE
ENCODING 7854
SWIDTH 576 0
DWIDTH 21 0
BBX 19 34 1 0
BITMAP
003800
006000
006000
061C00
071C00
03F800
01F000
000000
00E000
00E000
01F000
01F000
01F000
03B800
03B800
03B800
071C00
071C00
071C00
0E0E00
0E0E00
0E0E00
0C0600
1C0700
1FFF00
1FFF00
3FFF80
380380
380380
7001C0
7001C0
7001C0
F001E0
E000E0
ENDCHAR
STARTCHAR uni1EAF
ENCODING 7855
SWIDTH 479 0
DWIDTH 17 0
BBX 13 29 2 0
BITMAP
01C0
0180
0300
3860
18E0
1FE0
0F80
0000
0000
0000
0FC0
3FE0
7FF0
78F0
F078
E078
0038
0038
0FF8
3FF8
7FF8
F838
E038
E038
E078
F0F8
FFF8
7FB8
1E38
ENDCHAR
STARTCHAR uni1EB0
ENCODING 7856
SWIDTH 576 0
DWIDTH 21 0
BBX 19 34 1 0
BITMAP
038000
00C000
00C000
061C00
071C00
03F800
01F000
000000
00E000
00E000
01F000
01F000
01F000
03B800
03B800
03B800
071C00
071C00
071C00
0E0E00
0E0E00
0E0E00
0C0600
1C0700
1FFF00
1FFF00
3FFF80
380380
380380
7001C0
7001C0
7001C0
F001E0
E000E0
ENDCHAR
STARTCHAR uni1EB1
ENCODING 7857
SWIDTH 479 0
DWIDTH 17 0
BBX 13 29 2 0
BITMAP
0E00
0600
0300
3860
18E0
1FE0
0F80
0000
0000
0000
0FC0
3FE0
7FF0
78F0
F078
E078
0038
0038
0FF8
3FF8
7FF8
F838
E038
E038
E078
F0F8
FFF8
7FB8
1E38
ENDCHAR
STARTCHAR uni1EB2
ENCODING 7858
SWIDTH 576 0
DWIDTH 21 0
BBX 19 38 1 0
BITMAP
00E000
00F000
003800
007000
00E000
00C000
061C00
071800
03F800
01E000
000000
000000
00E000
00E000
01F000
01F000
01F000
03B800
03B800
03B800
071C00
071C00
071C00
0E0E00
0E0E00
0E0E00
0C0600
1C0700
1FFF00
1FFF00
3FFF80
380380
380380
7001C0
7001C0
7001C0
F001E0
E000E0
ENDCHAR
STARTCHAR uni1EB3
ENCODING 7859
SWIDTH 479 0
DWIDTH 17 0
BBX 13 32 2 0
BITMAP
0380
03C0
00C0
01C0
0380
0300
3860
18E0
1FC0
0F80
0000
0000
0000
0FC0
3FE0
7FF0
78F0
F078
E078
0038
0038
0FF8
3FF8
7FF8
F838
E038
E038
E078
F0F8
FFF8
7FB8
1E38
ENDCHAR
STARTCHAR uni1EB4
ENCODING 7860
SWIDTH 576 0
DWIDTH 21 0
BBX 19 37 1 0
BITMAP
03CC00
03F800
067800
000000
000000
061C00
071C00
03F800
01F000
000000
000000
00E000
00E000
01F000
01F000
01F000
03B800
03B800
03B800
071C00
071C00
071C00
0E0E00
0E0E00
0E0E00
0C0600
1C0700
1FFF00
1FFF00
3FFF80
380380
380380
7001C0
7001C0
7001C0
F001E0
E000E0
ENDCHAR
STARTCHAR uni1EB5
ENCODING 7861
SWIDTH 479 0
DWIDTH 17 0
BBX 13 31 2 0
BITMAP
0E20
1FE0
11C0
0000
0000
3860
18E0
1FC0
0F80
0000
0000
0000
0FC0
3FE0
7FF0
78F0
F078
E078
0038
0038
0FF8
3FF8
7FF8
F838
E038
E038
E078
F0F8
FFF8
7FB8
1E38
ENDCHAR
STARTCHAR uni1EB6
ENCODING 7862
SWIDTH 576 0
DWIDTH 21 0
BBX 19 38 1 -6
BITMAP
0E0E00
0E0C00
071C00
07F800
01F000
000000
00E000
00E000
01F000
01F000
01F000
03B800
03B800
03B800
071C00
071C00
071C00
0E0E00
0E0E00
0E0E00
0C0600
1C0700
1FFF00
1FFF00
3FFF80
380380
380380
7001C0
7001C0
7001C0
F001E0
E000E0
000000
000000
00E000
00E000
00E000
00E000
ENDCHAR
STARTCHAR uni1EB7
ENCODING 7863
SWIDTH 479 0
DWIDTH 17 0
BBX 13 32 2 -6
BITMAP
7070
3070
38E0
1FE0
0F80
0000
0000
0FC0
3FE0
7FF0
78F0
F078
E078
0038
0038
0FF8
3FF8
7FF8
F838
E038
E038
E078
F0F8
FFF8
7FB8
1E38
0000
0000
0E00
0F00
0F00
0E00
ENDCHAR
STARTCHAR uni1EB8
ENCODING 7864
SWIDTH 496 0
DWIDTH 18 0
BBX 14 32 3 -6
BITMAP
FFF8
FFF8
FFF8
E000
E000
E000
E000
E000
E000
E000
E000
FFF0
FFF0
FFF0
E000
E000
E000
E000
E000
E000
E000
E000
E000
FFFC
FFFC
FFFC
0000
0000
0700
0700
0F00
0700
ENDCHAR
STARTCHAR uni1EB9
ENCODING 7865
SWIDTH 468 0
DWIDTH 17 0
BBX 14 25 2 -6
BITMAP
0FC0
3FE0
3FF0
7878
F038
E038
E038
E038
FFFC
FFFC
FFFC
E000
E000
E000
F010
7838
7FF8
3FF0
0FC0
0000
0000
0700
0780
0780
0700
ENDCHAR
STARTCHAR uni1EBA
ENCODING 7866
SWIDTH 496 0
DWIDTH 18 0
BBX 14 35 3 0
BITMAP
0700
0780
01C0
01C0
07C0
0780
0700
0000
0000
FFF8
FFF8
FFF8
E000
E000
E000
E000
E000
E000
E000
E000
FFF0
FFF0
FFF0
E000
E000
E000
E000
E000
E000
E000
E000
E000
FFFC
FFFC
FFFC
ENDCHAR
STARTCHAR uni1EBB
ENCODING 7867
SWIDTH 468 0
DWIDTH 17 0
BBX 14 29 2 0
BITMAP
0700
0780
01C0
00C0
03C0
0380
0300
0000
0000
0000
0FC0
3FE0
3FF0
7878
F038
E038
E038
E038
FFFC
FFFC
FFFC
E000
E000
E000
F010
7838
7FF8
3FF0
0FC0
ENDCHAR
STARTCHAR uni1EBC
ENCODING 7868
SWIDTH 496 0
DWIDTH 18 0
BBX 14 32 3 0
BITMAP
1C30
3E70
73E0
61C0
0000
0000
FFF8
FFF8
FFF8
E000
E000
E000
E000
E000
E000
E000
E000
FFF0
FFF0
FFF0
E000
E000
E000
E000
E000
E000
E000
E000
E000
FFFC
FFFC
FFFC
ENDCHAR
STARTCHAR uni1EBD
ENCODING 7869
SWIDTH 468 0
DWIDTH 17 0
BBX 14 26 2 0
BITMAP
1C30
3E70
33E0
61C0
0000
0000
0000
0FC0
3FE0
3FF0
7878
F038
E038
E038
E038
FFFC
FFFC
FFFC
E000
E000
E000
F010
7838
7FF8
3FF0
0FC0
ENDCHAR
STARTCHAR uni1EBE
ENCODING 7870
SWIDTH 496 0
DWIDTH 18 0
BBX 16 36 3 0
BITMAP
0007
000E
000E
071C
0F9C
1DC0
38E0
7870
0000
0000
FFF8
FFF8
FFF8
E000
E000
E000
E000
E000
E000
E000
E000
FFF0
FFF0
FFF0
E000
E000
E000
E000
E000
E000
E000
E000
E000
FFFC
FFFC
FFFC
ENDCHAR
STARTCHAR uni1EBF
ENCODING 7871
SWIDTH 468 0
DWIDTH 17 0
BBX 17 29 2 0
BITMAP
000780
000700
000E00
070C00
0F9C00
1DC000
3CE000
787000
000000
000000
0FC000
3FE000
3FF000
787800
F03800
E03800
E03800
E03800
FFFC00
FFFC00
FFFC00
E00000
E00000
E00000
F01000
783800
7FF800
3FF000
0FC000
ENDCHAR
STARTCHAR uni1EC0
ENCODING 7872
SWIDTH 496 0
DWIDTH 18 0
BBX 17 36 0 0
BITMAP
E00000
700000
700000
38E000
39F000
03B800
071C00
0E1E00
000000
000000
1FFF00
1FFF00
1FFF00
1C0000
1C0000
1C0000
1C0000
1C0000
1C0000
1C0000
1C0000
1FFE00
1FFE00
1FFE00
1C0000
1C0000
1C0000
1C0000
1C0000
1C0000
1C0000
1C0000
1C0000
1FFF80
1FFF80
1FFF80
ENDCHAR
STARTCHAR uni1EC1
ENCODING 7873
SWIDTH 468 0
DWIDTH 17 0
BBX 17 29 -1 0
BITMAP
E00000
700000
700000
38E000
19F000
03B800
071C00
0F0E00
000000
000000
01F800
07FC00
07FE00
0F0F00
1E0700
1C0700
1C0700
1C0700
1FFF80
1FFF80
1FFF80
1C0000
1C0000
1C0000
1E0200
0F0700
0FFF00
07FE00
01F800
ENDCHAR
STARTCHAR uni1EC2
ENCODING 7874
SWIDTH 496 0
DWIDTH 18 0
BBX 14 36 3 0
BITMAP
0038
003C
000C
0F0C
0F9C
1DD8
38E0
7070
0000
0000
FFF8
FFF8
FFF8
E000
E000
E000
E000
E000
E000
E000
E000
FFF0
FFF0
FFF0
E000
E000
E000
E000
E000
E000
E000
E000
E000
FFFC
FFFC
FFFC
ENDCHAR
STARTCHAR uni1EC3
ENCODING 7875
SWIDTH 468 0
DWIDTH 17 0
BBX 15 29 2 0
BITMAP
0018
001C
0006
078E
0FDC
1CD8
38E0
7070
0000
0000
0FC0
3FE0
3FF0
7878
F038
E038
E038
E038
FFFC
FFFC
FFFC
E000
E000
E000
F010
7838
7FF8
3FF0
0FC0
ENDCHAR
STARTCHAR uni1EC4
ENCODING 7876
SWIDTH 496 0
DWIDTH 18 0
BBX 14 35 3 0
BITMAP
1C40
1FC0
3380
0000
0700
1DC0
38E0
7070
0000
FFF8
FFF8
FFF8
E000
E000
E000
E000
E000
E000
E000
E000
FFF0
FFF0
FFF0
E000
E000
E000
E000
E000
E000
E000
E000
E000
FFFC
FFFC
FFFC
ENDCHAR
STARTCHAR uni1EC5
ENCODING 7877
SWIDTH 468 0
DWIDTH 17 0
BBX 14 29 2 0
BITMAP
0E60
1FC0
1380
0000
0700
0FC0
38E0
7070
0000
0000
0FC0
3FE0
3FF0
7878
F038
E038
E038
E038
FFFC
FFFC
FFFC
E000
E000
E000
F010
7838
7FF8
3FF0
0FC0
ENDCHAR
STARTCHAR uni1EC6
ENCODING 7878
SWIDTH 496 0
DWIDTH 18 0
BBX 14 39 3 -6
BITMAP
0700
0F80
1DC0
18C0
38E0
0000
0000
FFF8
FFF8
FFF8
E000
E000
E000
E000
E000
E000
E000
E000
FFF0
FFF0
FFF0
E000
E000
E000
E000
E000
E000
E000
E000
E000
FFFC
FFFC
FFFC
0000
0000
0700
0700
0F00
0700
ENDCHAR
STARTCHAR uni1EC7
ENCODING 7879
SWIDTH 468 0
DWIDTH 17 0
BBX 14 33 2 -6
BITMAP
0700
0F80
0DC0
1CE0
38E0
0000
0000
0000
0FC0
3FE0
3FF0
7878
F038
E038
E038
E038
FFFC
FFFC
FFFC
E000
E000
E000
F010
7838
7FF8
3FF0
0FC0
0000
0000
0700
0780
0780
0700
ENDCHAR
STARTCHAR uni1EC8
ENCODING 7880
SWIDTH 250 0
DWIDTH 9 0
BBX 5 35 3 0
BITMAP
E0
F0
38
38
F8
F0
E0
00
00
E0
E0
E0
E0
E0
E0
E0
E0
E0
E0
E0
E0
E0
E0
E0
E0
E0
E0
E0
E0
E0
E0
E0
E0
E0
E0
ENDCHAR
STARTCHAR uni1EC9
ENCODING 7881
SWIDTH 234 0
DWIDTH 8 0
BBX 5 29 3 0
BITMAP
E0
F0
30
38
F0
E0
C0
00
00
00
E0
E0
E0
E0
E0
E0
E0
E0
E0
E0
E0
E0
E0
E0
E0
E0
E0
E0
E0
ENDCHAR
STARTCHAR uni1ECA
ENCODING 7882
SWIDTH 250 0
DWIDTH 9 0
BBX 4 32 2 -6
BITMAP
70
70
70
70
70
70
70
70
70
70
70
70
70
70
70
70
70
70
70
70
70
70
70
70
70
70
00
00
70
70
F0
70
ENDCHAR
STARTCHAR uni1ECB
ENCODING 7883
SWIDTH 229 0
DWIDTH 8 0
BBX 4 32 2 -6
BITMAP
60
F0
F0
60
00
00
00
F0
F0
F0
F0
F0
F0
F0
F0
F0
F0
F0
F0
F0
F0
F0
F0
F0
F0
F0
00
00
60
F0
F0
60
ENDCHAR
STARTCHAR uni1ECC
ENCODING 7884
SWIDTH 600 0
DWIDTH 22 0
BBX 18 32 2 -6
BITMAP
03F000
0FFC00
1FFE00
3E1F00
380700
780780
700380
700380
700380
F003C0
F003C0
F003C0
F003C0
F003C0
F003C0
F003C0
F003C0
F00380
700380
700380
780780
380700
3E1F00
1FFE00
0FFC00
03F000
000000
000000
01C000
01E000
01E000
01C000
ENDCHAR
STARTCHAR uni1ECD
ENCODING 7885
SWIDTH 501 0
DWIDTH 18 0
BBX 14 25 2 -6
BITMAP
0FC0
1FE0
7FF0
7878
F03C
E01C
E01C
E01C
E01C
E01C
E01C
E01C
E01C
E01C
F03C
7878
7FF0
3FE0
0FC0
0000
0000
0300
0780
0780
0300
ENDCHAR
STARTCHAR uni1ECE
ENCODING 7886
SWIDTH 600 0
DWIDTH 22 0
BBX 18 35 2 0
BITMAP
00C000
00F000
007000
003000
00F000
00E000
00C000
000000
000000
03F000
0FFC00
1FFE00
3E1F00
380700
780780
700380
700380
700380
F003C0
F003C0
F003C0
F003C0
F003C0
F003C0
F003C0
F003C0
F00380
700380
700380
780780
380700
3E1F00
1FFE00
0FFC00
03F000
ENDCHAR
STARTCHAR uni1ECF
ENCODING 7887
SWIDTH 501 0
DWIDTH 18 0
BBX 14 29 2 0
BITMAP
0300
03C0
01C0
00C0
03C0
0380
0300
0000
0000
0000
0FC0
1FE0
7FF0
7878
F03C
E01C
E01C
E01C
E01C
E01C
E01C
E01C
E01C
E01C
F03C
7878
7FF0
3FE0
0FC0
ENDCHAR
STARTCHAR uni1ED0
ENCODING 7888
SWIDTH 600 0
DWIDTH 22 0
BBX 19 36 2 0
BITMAP
0001E0
0001C0
000380
01E380
03F700
07F800
0F3C00
1E1E00
000000
000000
03F000
0FFC00
1FFE00
3E1F00
380700
780780
700380
700380
700380
F003C0
F003C0
F003C0
F003C0
F003C0
F003C0
F003C0
F003C0
F00380
700380
700380
780780
380700
3E1F00
1FFE00
0FFC00
03F000
ENDCHAR
STARTCHAR uni1ED1
ENCODING 7889
SWIDTH 501 0
DWIDTH 18 0
BBX 17 29 2 0
BITMAP
000780
000700
000E00
078E00
0FDC00
1DE000
3CF000
787800
000000
000000
0FC000
1FE000
7FF000
787800
F03C00
E01C00
E01C00
E01C00
E01C00
E01C00
E01C00
E01C00
E01C00
E01C00
F03C00
787800
7FF000
3FE000
0FC000
ENDCHAR
STARTCHAR uni1ED2
ENCODING 7890
SWIDTH 600 0
DWIDTH 22 0
BBX 19 36 1 0
BITMAP
F00000
700000
300000
38F000
19F800
03BC00
079E00
0F0F00
000000
000000
01F800
07FE00
0FFF00
1F0F80
1C0380
3C03C0
3801C0
3801C0
3801C0
7801E0
7801E0
7801E0
7801E0
7801E0
7801E0
7801E0
7801E0
7801C0
3801C0
3801C0
3C03C0
1C0380
1F0F80
0FFF00
07FE00
01F800
ENDCHAR
STARTCHAR uni1ED3
ENCODING 7891
SWIDTH 501 0
DWIDTH 18 0
BBX 17 29 -1 0
BITMAP
F00000
700000
300000
38F000
19F800
03BC00
079E00
0F0F00
000000
000000
01F800
03FC00
0FFE00
0F0F00
1E0780
1C0380
1C0380
1C0380
1C0380
1C0380
1C0380
1C0380
1C0380
1C0380
1E0780
0F0F00
0FFE00
07FC00
01F800
ENDCHAR
STARTCHAR uni1ED4
ENCODING 7892
SWIDTH 600 0
DWIDTH 22 0
BBX 18 36 2 0
BITMAP
000600
000780
000180
01E380
03F700
073E00
0E3C00
1C1E00
000000
000000
03F000
0FFC00
1FFE00
3E1F00
380700
780780
700380
700380
700380
F003C0
F003C0
F003C0
F003C0
F003C0
F003C0
F003C0
F003C0
F00380
700380
700380
780780
380700
3E1F00
1FFE00
0FFC00
03F000
ENDCHAR
STARTCHAR uni1ED5
ENCODING 7893
SWIDTH 501 0
DWIDTH 18 0
BBX 15 29 2 0
BITMAP
0018
001E
0006
078E
0FDC
1CF8
38F0
7078
0000
0000
0FC0
1FE0
7FF0
7878
F03C
E01C
E01C
E01C
E01C
E01C
E01C
E01C
E01C
E01C
F03C
7878
7FF0
3FE0
0FC0
ENDCHAR
STARTCHAR uni1ED6
ENCODING 7894
SWIDTH 600 0
DWIDTH 22 0
BBX 18 35 2 0
BITMAP
039800
07F000
047000
000000
01E000
03F000
073800
1E1E00
000000
03F000
0FFC00
1FFE00
3E1F00
380700
780780
700380
700380
700380
F003C0
F003C0
F003C0
F003C0
F003C0
F003C0
F003C0
F003C0
F00380
700380
700380
780780
380700
3E1F00
1FFE00
0FFC00
03F000
ENDCHAR
STARTCHAR uni1ED7
ENCODING 7895
SWIDTH 501 0
DWIDTH 18 0
BBX 14 29 2 0
BITMAP
0E60
1FC0
11C0
0000
0780
0FC0
1CE0
7878
0000
0000
0FC0
1FE0
7FF0
7878
F03C
E01C
E01C
E01C
E01C
E01C
E01C
E01C
E01C
E01C
F03C
7878
7FF0
3FE0
0FC0
ENDCHAR
STARTCHAR uni1ED8
ENCODING 7896
SWIDTH 600 0
DWIDTH 22 0
BBX 18 39 2 -6
BITMAP
01C000
01E000
03F000
073800
0E1800
000000
000000
03F000
0FFC00
1FFE00
3E1F00
380700
780780
700380
700380
700380
F003C0
F003C0
F003C0
F003C0
F003C0
F003C0
F003C0
F003C0
F00380
700380
700380
780780
380700
3E1F00
1FFE00
0FFC00
03F000
000000
000000
01C000
01E000
01E000
01C000
ENDCHAR
STARTCHAR uni1ED9
ENCODING 7897
SWIDTH 501 0
DWIDTH 18 0
BBX 14 33 2 -6
BITMAP
0700
0780
0FC0
1CE0
3860
0000
0000
0000
0FC0
1FE0
7FF0
7878
F03C
E01C
E01C
E01C
E01C
E01C
E01C
E01C
E01C
E01C
F03C
7878
7FF0
3FE0
0FC0
0000
0000
0300
0780
0780
0300
ENDCHAR
STARTCHAR uni1EDA
ENCODING 7898
SWIDTH 592 0
DWIDTH 21 0
BBX 19 33 2 0
BITMAP
003C00
007800
00F000
00E000
01C000
000060
0000E0
03E0E0
0FF8E0
1FFDE0
3C3FC0
780F80
700F00
F00700
E00700
E00780
E00380
E00380
E00380
E00380
E00380
E00380
E00380
E00380
E00780
E00780
F00700
700F00
780E00
3C3E00
1FFC00
0FF800
03E000
ENDCHAR
STARTCHAR uni1EDB
ENCODING 7899
SWIDTH 502 0
DWIDTH 18 0
BBX 16 26 2 0
BITMAP
00F8
01E0
01C0
0380
0700
0003
0003
0FC3
1FE7
3FFE
787C
7038
E03C
E01C
E01C
E01C
E01C
E01C
E01C
E01C
E03C
7038
7878
3FF0
1FE0
0FC0
ENDCHAR
STARTCHAR uni1EDC
ENCODING 7900
SWIDTH 592 0
DWIDTH 21 0
BBX 19 33 2 0
BITMAP
1E0000
070000
078000
03C000
01E000
000060
0000E0
03E0E0
0FF8E0
1FFDE0
3C3FC0
780F80
700F00
F00700
E00700
E00780
E00380
E00380
E00380
E00380
E00380
E00380
E00380
E00380
E00780
E00780
F00700
700F00
780E00
3C3E00
1FFC00
0FF800
03E000
ENDCHAR
STARTCHAR uni1EDD
ENCODING 7901
SWIDTH 502 0
DWIDTH 18 0
BBX 16 26 2 0
BITMAP
7C00
1E00
0E00
0700
0380
0003
0003
0FC3
1FE7
3FFE
787C
7038
E03C
E01C
E01C
E01C
E01C
E01C
E01C
E01C
E03C
7038
7878
3FF0
1FE0
0FC0
ENDCHAR
STARTCHAR uni1EDE
ENCODING 7902
SWIDTH 592 0
DWIDTH 21 0
BBX 19 35 2 0
BITMAP
01C000
01E000
007000
003000
00F000
00E000
00C000
000060
0000E0
03E0E0
0FF8E0
1FFDE0
3C3FC0
780F80
700F00
F00700
E00700
E00780
E00380
E00380
E00380
E00380
E00380
E00380
E00380
E00380
E00780
E00780
F00700
700F00
780E00
3C3E00
1FFC00
0FF800
03E000
ENDCHAR
STARTCHAR uni1EDF
ENCODING 7903
SWIDTH 502 0
DWIDTH 18 0
BBX 16 29 2 0
BITMAP
0380
03C0
00C0
00C0
03C0
0380
0300
0000
0003
0003
0FC3
1FE7
3FFE
787C
7038
E03C
E01C
E01C
E01C
E01C
E01C
E01C
E01C
E03C
7038
7878
3FF0
1FE0
0FC0
ENDCHAR
STARTCHAR uni1EE0
ENCODING 7904
SWIDTH 592 0
DWIDTH 21 0
BBX 19 32 2 0
BITMAP
070C00
0F9C00
1CF800
187000
000060
0000E0
03E0E0
0FF8E0
1FFDE0
3C3FC0
780F80
700F00
F00700
E00700
E00780
E00380
E00380
E00380
E00380
E00380
E00380
E00380
E00380
E00780
E00780
F00700
700F00
780E00
3C3E00
1FFC00
0FF800
03E000
ENDCHAR
STARTCHAR uni1EE1
ENCODING 7905
SWIDTH 502 0
DWIDTH 18 0
BBX 16 26 2 0
BITMAP
1C30
3F30
33F0
31E0
0000
0003
0003
0FC3
1FE7
3FFE
787C
7038
E03C
E01C
E01C
E01C
E01C
E01C
E01C
E01C
E03C
7038
7878
3FF0
1FE0
0FC0
ENDCHAR
STARTCHAR uni1EE2
ENCODING 7906
SWIDTH 592 0
DWIDTH 21 0
BBX 19 34 2 -6
BITMAP
000060
0000E0
03E0E0
0FF8E0
1FFDE0
3C3FC0
780F80
700F00
F00700
E00700
E00780
E00380
E00380
E00380
E00380
E00380
E00380
E00380
E00380
E00780
E00780
F00700
700F00
780E00
3C3E00
1FFC00
0FF800
03E000
000000
000000
01C000
01C000
01C000
01C000
ENDCHAR
STARTCHAR uni1EE3
ENCODING 7907
SWIDTH 502 0
DWIDTH 18 0
BBX 16 27 2 -6
BITMAP
0003
0003
0FC3
1FE7
3FFE
787C
7038
E03C
E01C
E01C
E01C
E01C
E01C
E01C
E01C
E03C
7038
7878
3FF0
1FE0
0FC0
0000
0000
0300
0780
0780
0700
ENDCHAR
STARTCHAR uni1EE4
ENCODING 7908
SWIDTH 561 0
DWIDTH 20 0
BBX 16 32 2 -6
BITMAP
E007
E007
E007
E007
E007
E007
E007
E007
E007
E007
E007
E007
E007
E007
E007
E007
E007
E007
E007
E007
F00F
700E
7C1E
3FFC
1FF8
07E0
0000
0000
0180
03C0
03C0
0180
ENDCHAR
STARTCHAR uni1EE5
ENCODING 7909
SWIDTH 483 0
DWIDTH 17 0
BBX 13 25 2 -6
BITMAP
E038
E038
E038
E038
E038
E038
E038
E038
E038
E038
E038
E038
E038
E038
F078
70F8
7FF8
3FB8
1F38
0000
0000
0E00
0F00
0F00
0E00
ENDCHAR
STARTCHAR uni1EE6
ENCODING 7910
SWIDTH 561 0
DWIDTH 20 0
BBX 16 35 2 0
BITMAP
01C0
01E0
0060
0060
01E0
01C0
0180
0000
0000
E007
E007
E007
E007
E007
E007
E007
E007
E007
E007
E007
E007
E007
E007
E007
E007
E007
E007
E007
E007
F00F
700E
7C1E
3FFC
1FF8
07E0
ENDCHAR
STARTCHAR uni1EE7
ENCODING 7911
SWIDTH 483 0
DWIDTH 17 0
BBX 13 29 2 0
BITMAP
0700
0780
01C0
00C0
03C0
0380
0300
0000
0000
0000
E038
E038
E038
E038
E038
E038
E038
E038
E038
E038
E038
E038
E038
E038
F078
70F8
7FF8
3FB8
1F38
ENDCHAR
STARTCHAR uni1EE8
ENCODING 7912
SWIDTH 608 0
DWIDTH 22 0
BBX 22 33 2 0
BITMAP
003C00
007800
00F000
00E000
01C000
000000
00001C
F0071C
F0071C
F00738
F00738
F007F0
F007C0
F00700
F00700
F00700
F00700
F00700
F00700
F00700
F00700
F00700
F00700
F00700
F00700
F00700
F00700
700F00
780E00
3C3E00
3FFC00
1FF800
07E000
ENDCHAR
STARTCHAR uni1EE9
ENCODING 7913
SWIDTH 549 0
DWIDTH 20 0
BBX 18 26 2 0
BITMAP
00F000
01E000
01C000
038000
070000
0000C0
0000C0
E039C0
E03980
E03F80
E03F00
E03800
E03800
E03800
E03800
E03800
E03800
E03800
E03800
E03800
F03800
707800
78F800
7FF800
3FF800
1F3800
ENDCHAR
STARTCHAR uni1EEA
ENCODING 7914
SWIDTH 608 0
DWIDTH 22 0
BBX 22 33 2 0
BITMAP
1F0000
070000
078000
03C000
01E000
000000
00001C
F0071C
F0071C
F00738
F00738
F007F0
F007C0
F00700
F00700
F00700
F00700
F00700
F00700
F00700
F00700
F00700
F00700
F00700
F00700
F00700
F00700
700F00
780E00
3C3E00
3FFC00
1FF800
07E000
ENDCHAR
STARTCHAR uni1EEB
ENCODING 7915
SWIDTH 549 0
DWIDTH 20 0
BBX 18 26 2 0
BITMAP
7C0000
1E0000
0E0000
070000
038000
0000C0
0000C0
E039C0
E03980
E03F80
E03F00
E03800
E03800
E03800
E03800
E03800
E03800
E03800
E03800
E03800
F03800
707800
78F800
7FF800
3FF800
1F3800
ENDCHAR
STARTCHAR uni1EEC
ENCODING 7916
SWIDTH 608 0
DWIDTH 22 0
BBX 22 35 2 0
BITMAP
01C000
01E000
007000
003000
00F000
00E000
00C000
000000
00001C
F0071C
F0071C
F00738
F00738
F007F0
F007C0
F00700
F00700
F00700
F00700
F00700
F00700
F00700
F00700
F00700
F00700
F00700
F00700
F00700
F00700
700F00
780E00
3C3E00
3FFC00
1FF800
07E000
ENDCHAR
STARTCHAR uni1EED
ENCODING 7917
SWIDTH 549 0
DWIDTH 20 0
BBX 18 29 2 0
BITMAP
038000
03C000
01C000
00C000
03C000
038000
030000
000000
0000C0
0000C0
E039C0
E03980
E03F80
E03F00
E03800
E03800
E03800
E03800
E03800
E03800
E03800
E03800
E03800
F03800
707800
78F800
7FF800
3FF800
1F3800
ENDCHAR
STARTCHAR uni1EEE
ENCODING 7918
SWIDTH 608 0
DWIDTH 22 0
BBX 22 32 2 0
BITMAP
070C00
0F9C00
0CF800
187000
000000
00001C
F0071C
F0071C
F00738
F00738
F007F0
F007C0
F00700
F00700
F00700
F00700
F00700
F00700
F00700
F00700
F00700
F00700
F00700
F00700
F00700
F00700
700F00
780E00
3C3E00
3FFC00
1FF800
07E000
ENDCHAR
STARTCHAR uni1EEF
ENCODING 7919
SWIDTH 549 0
DWIDTH 20 0
BBX 18 26 2 0
BITMAP
1C3000
3F3000
33F000
31E000
000000
0000C0
0000C0
E039C0
E03980
E03F80
E03F00
E03800
E03800
E03800
E03800
E03800
E03800
E03800
E03800
E03800
F03800
707800
78F800
7FF800
3FF800
1F3800
ENDCHAR
STARTCHAR uni1EF0
ENCODING 7920
SWIDTH 608 0
DWIDTH 22 0
BBX 22 33 2 -6
BITMAP
00001C
F0071C
F0071C
F00738
F00738
F007F0
F007C0
F00700
F00700
F00700
F00700
F00700
F00700
F00700
F00700
F00700
F00700
F00700
F00700
F00700
F00700
700F00
780E00
3C3E00
3FFC00
1FF800
07E000
000000
000000
01C000
01C000
01E000
01C000
ENDCHAR
STARTCHAR uni1EF1
ENCODING 7921
SWIDTH 549 0
DWIDTH 20 0
BBX 18 27 2 -6
BITMAP
0000C0
0000C0
E039C0
E03980
E03F80
E03F00
E03800
E03800
E03800
E03800
E03800
E03800
E03800
E03800
E03800
F03800
707800
78F800
7FF800
3FF800
1F3800
000000
000000
070000
070000
070000
070000
ENDCHAR
STARTCHAR Ygrave
ENCODING 7922
SWIDTH 524 0
DWIDTH 19 0
BBX 17 33 1 0
BITMAP
1E0000
0F0000
078000
03C000
01C000
000000
000000
E00780
F00780
700700
780F00
380E00
381E00
3C1C00
1C1C00
1E3C00
0E3800
0E7800
077000
077000
03E000
03E000
03C000
01C000
01C000
01C000
01C000
01C000
01C000
01C000
01C000
01C000
01C000
ENDCHAR
STARTCHAR ygrave
ENCODING 7923
SWIDTH 416 0
DWIDTH 15 0
BBX 13 33 1 -7
BITMAP
7C00
1C00
0E00
0700
0780
0000
0000
E038
E038
F078
7070
7070
7070
38E0
38E0
38E0
18E0
1DC0
1DC0
1DC0
0F80
0F80
0F80
0700
0700
0700
0700
0E00
0E00
1E00
7C00
7800
7000
ENDCHAR
STARTCHAR uni1EF4
ENCODING 7924
SWIDTH 524 0
DWIDTH 19 0
BBX 17 32 1 -6
BITMAP
E00780
F00780
700700
780F00
380E00
381E00
3C1C00
1C1C00
1E3C00
0E3800
0E7800
077000
077000
03E000
03E000
03C000
01C000
01C000
01C000
01C000
01C000
01C000
01C000
01C000
01C000
01C000
000000
000000
01C000
03C000
03C000
01C000
ENDCHAR
STARTCHAR uni1EF5
ENCODING 7925
SWIDTH 416 0
DWIDTH 15 0
BBX 13 28 1 -9
BITMAP
E038
E038
F078
7070
7070
7070
38E0
38E0
38E0
18E0
1DC0
1DC0
1DC0
0F80
0F80
0F80
0700
0700
0700
0700
0E00
0E00
1E00
7C00
78E0
70F0
00F0
00E0
ENDCHAR
STARTCHAR uni1EF6
ENCODING 7926
SWIDTH 524 0
DWIDTH 19 0
BBX 17 35 1 0
BITMAP
01C000
01E000
007000
007000
01F000
01E000
01C000
000000
000000
E00780
F00780
700700
780F00
380E00
381E00
3C1C00
1C1C00
1E3C00
0E3800
0E7800
077000
077000
03E000
03E000
03C000
01C000
01C000
01C000
01C000
01C000
01C000
01C000
01C000
01C000
01C000
ENDCHAR
STARTCHAR uni1EF7
ENCODING 7927
SWIDTH 416 0
DWIDTH 15 0
BBX 13 36 1 -7
BITMAP
0300
03C0
01C0
00C0
03C0
0380
0300
0000
0000
0000
E038
E038
F078
7070
7070
7070
38E0
38E0
38E0
18E0
1DC0
1DC0
1DC0
0F80
0F80
0F80
0700
0700
0700
0700
0E00
0E00
1E00
7C00
7800
7000
ENDCHAR
STARTCHAR uni1EF8
ENCODING 7928
SWIDTH 524 0
DWIDTH 19 0
BBX 17 32 1 0
BITMAP
070C00
0F9C00
1CF800
187000
000000
000000
E00780
F00780
700700
780F00
380E00
381E00
3C1C00
1C1C00
1E3C00
0E3800
0E7800
077000
077000
03E000
03E000
03C000
01C000
01C000
01C000
01C000
01C000
01C000
01C000
01C000
01C000
01C000
ENDCHAR
STARTCHAR uni1EF9
ENCODING 7929
SWIDTH 416 0
DWIDTH 15 0
BBX 13 33 1 -7
BITMAP
1C30
3E30
33E0
31C0
0000
0000
0000
E038
E038
F078
7070
7070
7070
38E0
38E0
38E0
18E0
1DC0
1DC0
1DC0
0F80
0F80
0F80
0700
0700
0700
0700
0E00
0E00
1E00
7C00
7800
7000
ENDCHAR
STARTCHAR uni1F4D
ENCODING 8013
SWIDTH 634 0
DWIDTH 23 0
BBX 28 26 -7 0
BITMAP
E380FC00
E383FF00
E707FF80
E70F83C0
760F01E0
241E00E0
001C00E0
001C00F0
001C00F0
001C0070
001C0070
001C0070
001C0070
001C0070
001C0070
001C0070
001C0070
001C00F0
001C00F0
001C00E0
001E00E0
000F01E0
000F83C0
0007FF80
0003FF00
0000FC00
ENDCHAR
STARTCHAR uni2000
ENCODING 8192
SWIDTH 447 0
DWIDTH 16 0
BBX 1 1 0 0
BITMAP
00
ENDCHAR
STARTCHAR uni2001
ENCODING 8193
SWIDTH 876 0
DWIDTH 32 0
BBX 1 1 0 0
BITMAP
00
ENDCHAR
STARTCHAR uni2002
ENCODING 8194
SWIDTH 447 0
DWIDTH 16 0
BBX 1 1 0 0
BITMAP
00
ENDCHAR
STARTCHAR uni2003
ENCODING 8195
SWIDTH 876 0
DWIDTH 32 0
BBX 1 1 0 0
BITMAP
00
ENDCHAR
STARTCHAR uni2004
ENCODING 8196
SWIDTH 305 0
DWIDTH 11 0
BBX 1 1 0 0
BITMAP
00
ENDCHAR
STARTCHAR uni2005
ENCODING 8197
SWIDTH 233 0
DWIDTH 8 0
BBX 1 1 0 0
BITMAP
00
ENDCHAR
STARTCHAR uni2006
ENCODING 8198
SWIDTH 162 0
DWIDTH 6 0
BBX 1 1 0 0
BITMAP
00
ENDCHAR
STARTCHAR uni2007
ENCODING 8199
SWIDTH 491 0
DWIDTH 18 0
BBX 1 1 0 0
BITMAP
00
ENDCHAR
STARTCHAR uni2008
ENCODING 8200
SWIDTH 249 0
DWIDTH 9 0
BBX 1 1 0 0
BITMAP
00
ENDCHAR
STARTCHAR uni2009
ENCODING 8201
SWIDTH 190 0
DWIDTH 7 0
BBX 1 1 0 0
BITMAP
00
ENDCHAR
STARTCHAR uni200A
ENCODING 8202
SWIDTH 105 0
DWIDTH 4 0
BBX 1 1 0 0
BITMAP
00
ENDCHAR
STARTCHAR uni200B
ENCODING 8203
SWIDTH 0 0
DWIDTH 0 0
BBX 1 1 0 0
BITMAP
00
ENDCHAR
STARTCHAR uni2010
ENCODING 8208
SWIDTH 248 0
DWIDTH 9 0
BBX 7 3 1 9
BITMAP
FE
FE
FE
ENDCHAR
STARTCHAR uni2011
ENCODING 8209
SWIDTH 248 0
DWIDTH 9 0
BBX 7 3 1 9
BITMAP
FE
FE
FE
ENDCHAR
STARTCHAR endash
ENCODING 8211
SWIDTH 572 0
DWIDTH 21 0
BBX 15 3 3 11
BITMAP
FFFE
FFFE
FFFE
ENDCHAR
STARTCHAR emdash
ENCODING 8212
SWIDTH 678 0
DWIDTH 24 0
BBX 20 3 3 11
BITMAP
FFFFF0
FFFFF0
FFFFF0
ENDCHAR
STARTCHAR uni2015
ENCODING 8213
SWIDTH 678 0
DWIDTH 24 0
BBX 20 3 3 11
BITMAP
FFFFF0
FFFFF0
FFFFF0
ENDCHAR
STARTCHAR underscoredbl
ENCODING 8215
SWIDTH 402 0
DWIDTH 15 0
BBX 14 8 1 -8
BITMAP
FFFC
FFFC
FFFC
0000
0000
FFFC
FFFC
FFFC
ENDCHAR
STARTCHAR quoteleft
ENCODING 8216
SWIDTH 194 0
DWIDTH 7 0
BBX 4 8 2 19
BITMAP
20
70
70
E0
E0
E0
E0
E0
ENDCHAR
STARTCHAR quoteright
ENCODING 8217
SWIDTH 194 0
DWIDTH 7 0
BBX 4 9 1 18
BITMAP
70
70
70
70
70
70
70
E0
40
ENDCHAR
STARTCHAR quotesinglbase
ENCODING 8218
SWIDTH 194 0
DWIDTH 7 0
BBX 4 8 1 -4
BITMAP
70
70
70
70
70
E0
E0
40
ENDCHAR
STARTCHAR quotereversed
ENCODING 8219
SWIDTH 194 0
DWIDTH 7 0
BBX 5 9 1 18
BITMAP
F0
F0
F0
70
70
70
70
38
10
ENDCHAR
STARTCHAR quotedblleft
ENCODING 8220
SWIDTH 333 0
DWIDTH 12 0
BBX 9 8 2 19
BITMAP
2100
7380
7380
E700
E700
E700
E700
E700
ENDCHAR
STARTCHAR quotedblright
ENCODING 8221
SWIDTH 337 0
DWIDTH 12 0
BBX 10 9 1 18
BITMAP
3BC0
3BC0
3BC0
3BC0
7380
7380
7380
E700
4200
ENDCHAR
STARTCHAR quotedblbase
ENCODING 8222
SWIDTH 326 0
DWIDTH 12 0
BBX 9 10 1 -6
BITMAP
7380
7380
7380
7380
7380
7380
7380
6700
E700
4200
ENDCHAR
STARTCHAR dagger
ENCODING 8224
SWIDTH 482 0
DWIDTH 17 0
BBX 15 26 1 0
BITMAP
0380
0380
0380
0380
0380
0380
0380
FFFE
FFFE
FFFE
0380
0380
0380
0380
0380
0380
0380
0380
0380
0380
0380
0380
0380
0380
0380
0380
ENDCHAR
STARTCHAR daggerdbl
ENCODING 8225
SWIDTH 500 0
DWIDTH 18 0
BBX 14 33 2 -7
BITMAP
0700
0700
0700
0700
0700
0700
0700
FFFC
FFFC
FFFC
0700
0700
0700
0700
0700
0700
0700
0700
0700
0700
0700
0700
0700
FFFC
FFFC
FFFC
0700
0700
0700
0700
0700
0700
0700
ENDCHAR
STARTCHAR bullet
ENCODING 8226
SWIDTH 336 0
DWIDTH 12 0
BBX 8 8 2 9
BITMAP
3C
7E
FE
FF
FF
FE
7E
3C
ENDCHAR
STARTCHAR twodotenleader
ENCODING 8229
SWIDTH 420 0
DWIDTH 15 0
BBX 10 4 3 0
BITMAP
E180
E3C0
F3C0
E1C0
ENDCHAR
STARTCHAR ellipsis
ENCODING 8230
SWIDTH 590 0
DWIDTH 21 0
BBX 16 4 3 0
BITMAP
E187
E3CF
F3CF
E1C7
ENDCHAR
STARTCHAR uni2027
ENCODING 8231
SWIDTH 181 0
DWIDTH 7 0
BBX 3 4 2 9
BITMAP
E0
E0
E0
E0
ENDCHAR
STARTCHAR perthousand
ENCODING 8240
SWIDTH 818 0
DWIDTH 29 0
BBX 27 26 1 0
BITMAP
3C000000
7F000000
63000000
E3820000
C1870000
C1860000
C18E0000
C18C0000
E39C0000
63180000
7F380000
3C300000
00700000
00600000
00E3CF00
00CFFFC0
018C78C0
019C30E0
031C30E0
031830E0
061830E0
0E1830E0
0C1C70E0
040C78C0
000FFFC0
0003CF00
ENDCHAR
STARTCHAR minute
ENCODING 8242
SWIDTH 174 0
DWIDTH 6 0
BBX 2 8 2 19
BITMAP
C0
C0
C0
C0
C0
C0
C0
C0
ENDCHAR
STARTCHAR second
ENCODING 8243
SWIDTH 319 0
DWIDTH 12 0
BBX 8 9 2 18
BITMAP
E7
E7
E7
E7
E6
E6
E6
C6
C6
ENDCHAR
STARTCHAR guilsinglleft
ENCODING 8249
SWIDTH 271 0
DWIDTH 10 0
BBX 7 14 2 3
BITMAP
0E
1C
18
38
70
70
E0
E0
70
70
38
18
1C
0E
ENDCHAR
STARTCHAR guilsinglright
ENCODING 8250
SWIDTH 271 0
DWIDTH 10 0
BBX 6 14 2 3
BITMAP
C0
E0
70
70
38
18
1C
1C
18
38
70
70
E0
C0
ENDCHAR
STARTCHAR exclamdbl
ENCODING 8252
SWIDTH 491 0
DWIDTH 18 0
BBX 12 26 3 0
BITMAP
E070
E070
E070
E070
E070
E070
E070
E070
E070
E070
E070
E070
E070
E070
E070
E070
E070
E070
0000
0000
0000
0000
E070
E070
E070
E070
ENDCHAR
STARTCHAR fraction
ENCODING 8260
SWIDTH 403 0
DWIDTH 15 0
BBX 12 21 1 2
BITMAP
0020
0030
0070
0060
00E0
00C0
01C0
0180
0380
0300
0600
0600
0C00
0C00
1800
1800
3000
7000
6000
E000
4000
ENDCHAR
STARTCHAR uni2074
ENCODING 8308
SWIDTH 329 0
DWIDTH 12 0
BBX 10 14 1 12
BITMAP
0700
0700
0F00
0F00
1B00
3B00
3300
7300
6300
FFC0
FFC0
0300
0300
0300
ENDCHAR
STARTCHAR uni207F
ENCODING 8319
SWIDTH 374 0
DWIDTH 13 0
BBX 9 14 2 12
BITMAP
CF00
DF80
E380
E380
E180
E180
E180
E180
E180
E180
E180
E180
E180
E180
ENDCHAR
STARTCHAR franc
ENCODING 8355
SWIDTH 480 0
DWIDTH 17 0
BBX 15 26 1 0
BITMAP
3FFE
3FFE
3FFE
3800
3800
3800
3800
3800
3800
3800
3800
3800
3FFC
3FFC
3FFC
3800
3800
3800
3800
FF80
FF80
FF80
3800
3800
3800
3800
ENDCHAR
STARTCHAR lira
ENCODING 8356
SWIDTH 510 0
DWIDTH 18 0
BBX 16 26 1 0
BITMAP
01F0
07F8
0FFC
0F1E
1E0E
1C0E
1C0F
1C00
1C00
1C00
1C00
FFE0
FFE0
1C00
1C00
1C00
FFE0
FFE0
1C00
1C00
1C00
1C00
3800
7FFF
7FFF
7FFF
ENDCHAR
STARTCHAR uni20A6
ENCODING 8358
SWIDTH 691 0
DWIDTH 25 0
BBX 23 26 1 0
BITMAP
1E0070
1E0070
1E0070
1F0070
1F0070
1F8070
1F8070
1DC070
1DC070
1CE070
FFFFFE
FFFFFE
FFFFFE
1C3870
1C3870
FFFFFE
FFFFFE
FFFFFE
1C0E70
1C0770
1C07F0
1C03F0
1C01F0
1C01F0
1C00F0
1C00F0
ENDCHAR
STARTCHAR peseta
ENCODING 8359
SWIDTH 709 0
DWIDTH 26 0
BBX 20 26 3 0
BITMAP
FF8000
FFC000
FFE3C0
E0F3C0
E073C0
E073C0
E073C0
E07FF0
E07FF0
E073C0
E073C0
E073C0
E0F3C0
FFE3C0
FFC3C0
FF03C0
E003C0
E003C0
E003C0
E003C0
E003C0
E003C0
E001C0
E001F0
E001F0
E000F0
ENDCHAR
STARTCHAR uni20A8
ENCODING 8360
SWIDTH 911 0
DWIDTH 33 0
BBX 28 26 3 0
BITMAP
FFC00000
FFF00000
FFF80000
E07C0000
E03C0000
E01C0000
E01C0000
E01C1F00
E01E7FC0
E01CFFE0
E01CF1E0
E03CE0F0
E079E070
FFF8E000
FFF0F800
FFE07F00
E0E03FC0
E0F007E0
E07001E0
E07800F0
E079C070
E039C070
E03DE0F0
E01CFFE0
E01E7FC0
E00E1F00
ENDCHAR
STARTCHAR uni20A9
ENCODING 8361
SWIDTH 634 0
DWIDTH 23 0
BBX 21 26 1 0
BITMAP
E07078
F07070
707070
707070
70F870
70F870
70D870
70D8E0
38D8E0
FFFFF8
FFFFF8
FFFFF8
39DCE0
39DCC0
1D8DC0
FFFFF8
FFFFF8
FFFFF8
1D8DC0
0F8F80
0F8F80
0F0F80
0F0780
0F0780
0F0700
070700
ENDCHAR
STARTCHAR uni20AA
ENCODING 8362
SWIDTH 669 0
DWIDTH 24 0
BBX 20 19 2 0
BITMAP
FFE070
FFF870
FFF870
E03C70
E03C70
E01C70
E39C70
E39C70
E39C70
E39C70
E39C70
E39C70
E39C70
E38070
E380F0
E381E0
E3FFE0
E3FFC0
E3FF80
ENDCHAR
STARTCHAR dong
ENCODING 8363
SWIDTH 510 0
DWIDTH 18 0
BBX 16 33 2 -6
BITMAP
0038
0038
0038
01FF
01FF
01FF
0038
0038
0F38
3FF8
7FF8
7878
F038
E038
E038
E038
E038
E038
E038
E038
E038
E038
F038
7878
7FF8
3FD8
0F18
0000
0000
0000
7FFC
7FFC
7FFC
ENDCHAR
STARTCHAR Euro
ENCODING 8364
SWIDTH 493 0
DWIDTH 18 0
BBX 14 26 2 0
BITMAP
01FC
03FC
07FC
0F04
1E00
1C00
1C00
1C00
3C00
FFE0
FFE0
3C00
3C00
3C00
FFE0
FFE0
3C00
1C00
1C00
1C00
1E00
0E00
0F04
07FC
03FC
00FC
ENDCHAR
STARTCHAR uni20B1
ENCODING 8369
SWIDTH 648 0
DWIDTH 23 0
BBX 22 26 1 0
BITMAP
1FFC00
1FFE00
1FFF00
1C0780
1C03C0
FFFFFC
FFFFFC
FFFFFC
1C01E0
1C01E0
FFFFFC
FFFFFC
FFFFFC
1C03C0
1C0780
1FFF80
1FFF00
1FFC00
1C0000
1C0000
1C0000
1C0000
1C0000
1C0000
1C0000
1C0000
ENDCHAR
STARTCHAR uni20B9
ENCODING 8377
SWIDTH 462 0
DWIDTH 17 0
BBX 15 26 1 0
BITMAP
7FFE
FFFE
FFFC
01E0
00F0
00F0
7FFE
FFFE
FFFC
0070
00F0
01E0
FFE0
FFC0
FF00
7800
3C00
3C00
1E00
0F00
0F00
0780
03C0
03C0
01E0
00F0
ENDCHAR
STARTCHAR uni20BA
ENCODING 8378
SWIDTH 500 0
DWIDTH 18 0
BBX 15 26 1 0
BITMAP
0E00
0E00
0E20
0EE0
0FE0
0FC0
3F00
FE00
FE20
CEE0
8FE0
0FC0
3F0E
FE0E
FE0E
CE0E
8E0E
0E0E
0E0E
0E1E
0E1C
0E3C
0E78
0FF0
0FE0
0F80
ENDCHAR
STARTCHAR uni20BC
ENCODING 8380
SWIDTH 575 0
DWIDTH 21 0
BBX 17 19 2 0
BITMAP
01C000
01C000
01C000
01C000
07F000
0FF800
1FFC00
3DDE00
79CF00
71C700
71C700
E1C380
E1C380
E1C380
E1C380
E1C380
E1C380
E1C380
E1C380
ENDCHAR
ENDFONT
